<svg id="svg" version="1.1" width="400" height="400" viewBox="0 0 400 400" xmlns="http://www.w3.org/2000/svg" xmlns:xlink="http://www.w3.org/1999/xlink" ><g id="svgg"><path id="path0" d="M23.467 85.467 C 23.320 85.613,23.200 137.274,23.200 200.267 L 23.200 314.801 200.100 314.700 L 377.000 314.600 377.113 201.200 C 377.175 138.830,377.122 87.215,376.995 86.500 L 376.764 85.200 200.249 85.200 C 103.165 85.200,23.613 85.320,23.467 85.467 M135.200 201.000 L 135.200 299.200 87.200 299.200 L 39.200 299.200 39.200 201.000 L 39.200 102.800 87.200 102.800 L 135.200 102.800 135.200 201.000 M191.292 111.700 L 191.400 120.600 199.982 120.600 L 208.564 120.600 208.842 119.600 C 208.995 119.050,209.138 115.045,209.160 110.700 L 209.200 102.800 229.200 102.800 L 249.200 102.800 249.200 201.000 L 249.200 299.200 229.227 299.200 L 209.253 299.200 209.127 289.861 C 208.967 278.054,209.928 279.200,200.180 279.200 C 190.235 279.200,191.200 278.057,191.200 289.829 L 191.200 299.200 171.200 299.200 L 151.200 299.200 151.200 201.000 L 151.200 102.800 171.192 102.800 L 191.185 102.800 191.292 111.700 M361.200 201.000 L 361.200 299.200 313.200 299.200 L 265.200 299.200 265.200 201.000 L 265.200 102.800 313.200 102.800 L 361.200 102.800 361.200 201.000 M191.829 129.829 C 190.887 130.770,190.882 156.568,191.823 157.911 C 192.637 159.073,207.026 159.316,208.156 158.187 C 209.415 156.927,209.682 131.343,208.451 129.861 C 207.648 128.894,192.792 128.865,191.829 129.829 M191.467 167.467 C 191.320 167.613,191.200 173.823,191.200 181.267 L 191.200 194.800 199.957 194.800 C 207.574 194.800,208.746 194.718,208.957 194.167 C 209.366 193.103,209.231 169.333,208.810 168.226 L 208.420 167.200 200.077 167.200 C 195.488 167.200,191.613 167.320,191.467 167.467 M191.467 205.467 C 191.320 205.613,191.200 211.823,191.200 219.267 L 191.200 232.800 199.953 232.800 C 208.693 232.800,208.707 232.799,208.948 231.900 C 209.262 230.726,209.262 207.274,208.948 206.100 C 208.707 205.202,192.325 204.609,191.467 205.467 M193.700 241.465 C 193.425 241.576,193.200 242.012,193.200 242.433 C 193.200 242.986,192.919 243.200,192.195 243.200 L 191.189 243.200 191.295 256.900 L 191.400 270.600 199.982 270.600 L 208.564 270.600 208.842 269.600 C 209.186 268.362,209.292 244.705,208.957 243.833 C 208.824 243.485,208.403 243.200,208.021 243.200 C 207.640 243.200,207.123 242.750,206.873 242.200 L 206.417 241.200 200.309 241.232 C 196.949 241.249,193.975 241.354,193.700 241.465 " stroke="none" fill="#000000" fill-rule="evenodd"></path><path id="path1" d="M23.467 85.467 C 23.320 85.613,23.200 137.274,23.200 200.267 L 23.200 314.801 200.100 314.700 L 377.000 314.600 377.113 201.200 C 377.175 138.830,377.122 87.215,376.995 86.500 L 376.764 85.200 200.249 85.200 C 103.165 85.200,23.613 85.320,23.467 85.467 M135.200 201.000 L 135.200 299.200 87.200 299.200 L 39.200 299.200 39.200 201.000 L 39.200 102.800 87.200 102.800 L 135.200 102.800 135.200 201.000 M191.292 111.700 L 191.400 120.600 199.982 120.600 L 208.564 120.600 208.842 119.600 C 208.995 119.050,209.138 115.045,209.160 110.700 L 209.200 102.800 229.200 102.800 L 249.200 102.800 249.200 201.000 L 249.200 299.200 229.227 299.200 L 209.253 299.200 209.127 289.861 C 208.967 278.054,209.928 279.200,200.180 279.200 C 190.235 279.200,191.200 278.057,191.200 289.829 L 191.200 299.200 171.200 299.200 L 151.200 299.200 151.200 201.000 L 151.200 102.800 171.192 102.800 L 191.185 102.800 191.292 111.700 M361.200 201.000 L 361.200 299.200 313.200 299.200 L 265.200 299.200 265.200 201.000 L 265.200 102.800 313.200 102.800 L 361.200 102.800 361.200 201.000 M191.829 129.829 C 190.887 130.770,190.882 156.568,191.823 157.911 C 192.637 159.073,207.026 159.316,208.156 158.187 C 209.415 156.927,209.682 131.343,208.451 129.861 C 207.648 128.894,192.792 128.865,191.829 129.829 M191.467 167.467 C 191.320 167.613,191.200 173.823,191.200 181.267 L 191.200 194.800 199.957 194.800 C 207.574 194.800,208.746 194.718,208.957 194.167 C 209.366 193.103,209.231 169.333,208.810 168.226 L 208.420 167.200 200.077 167.200 C 195.488 167.200,191.613 167.320,191.467 167.467 M191.467 205.467 C 191.320 205.613,191.200 211.823,191.200 219.267 L 191.200 232.800 199.953 232.800 C 208.693 232.800,208.707 232.799,208.948 231.900 C 209.262 230.726,209.262 207.274,208.948 206.100 C 208.707 205.202,192.325 204.609,191.467 205.467 M193.700 241.465 C 193.425 241.576,193.200 242.012,193.200 242.433 C 193.200 242.986,192.919 243.200,192.195 243.200 L 191.189 243.200 191.295 256.900 L 191.400 270.600 199.982 270.600 L 208.564 270.600 208.842 269.600 C 209.186 268.362,209.292 244.705,208.957 243.833 C 208.824 243.485,208.403 243.200,208.021 243.200 C 207.640 243.200,207.123 242.750,206.873 242.200 L 206.417 241.200 200.309 241.232 C 196.949 241.249,193.975 241.354,193.700 241.465 " stroke="none" fill="#000000" fill-rule="evenodd"></path><path id="path2" d="M23.467 85.467 C 23.320 85.613,23.200 137.274,23.200 200.267 L 23.200 314.801 200.100 314.700 L 377.000 314.600 377.113 201.200 C 377.175 138.830,377.122 87.215,376.995 86.500 L 376.764 85.200 200.249 85.200 C 103.165 85.200,23.613 85.320,23.467 85.467 M135.200 201.000 L 135.200 299.200 87.200 299.200 L 39.200 299.200 39.200 201.000 L 39.200 102.800 87.200 102.800 L 135.200 102.800 135.200 201.000 M191.292 111.700 L 191.400 120.600 199.982 120.600 L 208.564 120.600 208.842 119.600 C 208.995 119.050,209.138 115.045,209.160 110.700 L 209.200 102.800 229.200 102.800 L 249.200 102.800 249.200 201.000 L 249.200 299.200 229.227 299.200 L 209.253 299.200 209.127 289.861 C 208.967 278.054,209.928 279.200,200.180 279.200 C 190.235 279.200,191.200 278.057,191.200 289.829 L 191.200 299.200 171.200 299.200 L 151.200 299.200 151.200 201.000 L 151.200 102.800 171.192 102.800 L 191.185 102.800 191.292 111.700 M361.200 201.000 L 361.200 299.200 313.200 299.200 L 265.200 299.200 265.200 201.000 L 265.200 102.800 313.200 102.800 L 361.200 102.800 361.200 201.000 M191.829 129.829 C 190.887 130.770,190.882 156.568,191.823 157.911 C 192.637 159.073,207.026 159.316,208.156 158.187 C 209.415 156.927,209.682 131.343,208.451 129.861 C 207.648 128.894,192.792 128.865,191.829 129.829 M191.467 167.467 C 191.320 167.613,191.200 173.823,191.200 181.267 L 191.200 194.800 199.957 194.800 C 207.574 194.800,208.746 194.718,208.957 194.167 C 209.366 193.103,209.231 169.333,208.810 168.226 L 208.420 167.200 200.077 167.200 C 195.488 167.200,191.613 167.320,191.467 167.467 M191.467 205.467 C 191.320 205.613,191.200 211.823,191.200 219.267 L 191.200 232.800 199.953 232.800 C 208.693 232.800,208.707 232.799,208.948 231.900 C 209.262 230.726,209.262 207.274,208.948 206.100 C 208.707 205.202,192.325 204.609,191.467 205.467 M193.700 241.465 C 193.425 241.576,193.200 242.012,193.200 242.433 C 193.200 242.986,192.919 243.200,192.195 243.200 L 191.189 243.200 191.295 256.900 L 191.400 270.600 199.982 270.600 L 208.564 270.600 208.842 269.600 C 209.186 268.362,209.292 244.705,208.957 243.833 C 208.824 243.485,208.403 243.200,208.021 243.200 C 207.640 243.200,207.123 242.750,206.873 242.200 L 206.417 241.200 200.309 241.232 C 196.949 241.249,193.975 241.354,193.700 241.465 " stroke="none" fill="#000000" fill-rule="evenodd"></path><path id="path3" d="M23.467 85.467 C 23.320 85.613,23.200 137.274,23.200 200.267 L 23.200 314.801 200.100 314.700 L 377.000 314.600 377.113 201.200 C 377.175 138.830,377.122 87.215,376.995 86.500 L 376.764 85.200 200.249 85.200 C 103.165 85.200,23.613 85.320,23.467 85.467 M135.200 201.000 L 135.200 299.200 87.200 299.200 L 39.200 299.200 39.200 201.000 L 39.200 102.800 87.200 102.800 L 135.200 102.800 135.200 201.000 M191.292 111.700 L 191.400 120.600 199.982 120.600 L 208.564 120.600 208.842 119.600 C 208.995 119.050,209.138 115.045,209.160 110.700 L 209.200 102.800 229.200 102.800 L 249.200 102.800 249.200 201.000 L 249.200 299.200 229.227 299.200 L 209.253 299.200 209.127 289.861 C 208.967 278.054,209.928 279.200,200.180 279.200 C 190.235 279.200,191.200 278.057,191.200 289.829 L 191.200 299.200 171.200 299.200 L 151.200 299.200 151.200 201.000 L 151.200 102.800 171.192 102.800 L 191.185 102.800 191.292 111.700 M361.200 201.000 L 361.200 299.200 313.200 299.200 L 265.200 299.200 265.200 201.000 L 265.200 102.800 313.200 102.800 L 361.200 102.800 361.200 201.000 M191.829 129.829 C 190.887 130.770,190.882 156.568,191.823 157.911 C 192.637 159.073,207.026 159.316,208.156 158.187 C 209.415 156.927,209.682 131.343,208.451 129.861 C 207.648 128.894,192.792 128.865,191.829 129.829 M191.467 167.467 C 191.320 167.613,191.200 173.823,191.200 181.267 L 191.200 194.800 199.957 194.800 C 207.574 194.800,208.746 194.718,208.957 194.167 C 209.366 193.103,209.231 169.333,208.810 168.226 L 208.420 167.200 200.077 167.200 C 195.488 167.200,191.613 167.320,191.467 167.467 M191.467 205.467 C 191.320 205.613,191.200 211.823,191.200 219.267 L 191.200 232.800 199.953 232.800 C 208.693 232.800,208.707 232.799,208.948 231.900 C 209.262 230.726,209.262 207.274,208.948 206.100 C 208.707 205.202,192.325 204.609,191.467 205.467 M193.700 241.465 C 193.425 241.576,193.200 242.012,193.200 242.433 C 193.200 242.986,192.919 243.200,192.195 243.200 L 191.189 243.200 191.295 256.900 L 191.400 270.600 199.982 270.600 L 208.564 270.600 208.842 269.600 C 209.186 268.362,209.292 244.705,208.957 243.833 C 208.824 243.485,208.403 243.200,208.021 243.200 C 207.640 243.200,207.123 242.750,206.873 242.200 L 206.417 241.200 200.309 241.232 C 196.949 241.249,193.975 241.354,193.700 241.465 " stroke="none" fill="#000000" fill-rule="evenodd"></path><path id="path4" d="M23.467 85.467 C 23.320 85.613,23.200 137.274,23.200 200.267 L 23.200 314.801 200.100 314.700 L 377.000 314.600 377.113 201.200 C 377.175 138.830,377.122 87.215,376.995 86.500 L 376.764 85.200 200.249 85.200 C 103.165 85.200,23.613 85.320,23.467 85.467 M135.200 201.000 L 135.200 299.200 87.200 299.200 L 39.200 299.200 39.200 201.000 L 39.200 102.800 87.200 102.800 L 135.200 102.800 135.200 201.000 M191.292 111.700 L 191.400 120.600 199.982 120.600 L 208.564 120.600 208.842 119.600 C 208.995 119.050,209.138 115.045,209.160 110.700 L 209.200 102.800 229.200 102.800 L 249.200 102.800 249.200 201.000 L 249.200 299.200 229.227 299.200 L 209.253 299.200 209.127 289.861 C 208.967 278.054,209.928 279.200,200.180 279.200 C 190.235 279.200,191.200 278.057,191.200 289.829 L 191.200 299.200 171.200 299.200 L 151.200 299.200 151.200 201.000 L 151.200 102.800 171.192 102.800 L 191.185 102.800 191.292 111.700 M361.200 201.000 L 361.200 299.200 313.200 299.200 L 265.200 299.200 265.200 201.000 L 265.200 102.800 313.200 102.800 L 361.200 102.800 361.200 201.000 M191.829 129.829 C 190.887 130.770,190.882 156.568,191.823 157.911 C 192.637 159.073,207.026 159.316,208.156 158.187 C 209.415 156.927,209.682 131.343,208.451 129.861 C 207.648 128.894,192.792 128.865,191.829 129.829 M191.467 167.467 C 191.320 167.613,191.200 173.823,191.200 181.267 L 191.200 194.800 199.957 194.800 C 207.574 194.800,208.746 194.718,208.957 194.167 C 209.366 193.103,209.231 169.333,208.810 168.226 L 208.420 167.200 200.077 167.200 C 195.488 167.200,191.613 167.320,191.467 167.467 M191.467 205.467 C 191.320 205.613,191.200 211.823,191.200 219.267 L 191.200 232.800 199.953 232.800 C 208.693 232.800,208.707 232.799,208.948 231.900 C 209.262 230.726,209.262 207.274,208.948 206.100 C 208.707 205.202,192.325 204.609,191.467 205.467 M193.700 241.465 C 193.425 241.576,193.200 242.012,193.200 242.433 C 193.200 242.986,192.919 243.200,192.195 243.200 L 191.189 243.200 191.295 256.900 L 191.400 270.600 199.982 270.600 L 208.564 270.600 208.842 269.600 C 209.186 268.362,209.292 244.705,208.957 243.833 C 208.824 243.485,208.403 243.200,208.021 243.200 C 207.640 243.200,207.123 242.750,206.873 242.200 L 206.417 241.200 200.309 241.232 C 196.949 241.249,193.975 241.354,193.700 241.465 " stroke="none" fill="#000000" fill-rule="evenodd"></path><path id="path5" d="M23.467 85.467 C 23.320 85.613,23.200 137.274,23.200 200.267 L 23.200 314.801 200.100 314.700 L 377.000 314.600 377.113 201.200 C 377.175 138.830,377.122 87.215,376.995 86.500 L 376.764 85.200 200.249 85.200 C 103.165 85.200,23.613 85.320,23.467 85.467 M135.200 201.000 L 135.200 299.200 87.200 299.200 L 39.200 299.200 39.200 201.000 L 39.200 102.800 87.200 102.800 L 135.200 102.800 135.200 201.000 M191.292 111.700 L 191.400 120.600 199.982 120.600 L 208.564 120.600 208.842 119.600 C 208.995 119.050,209.138 115.045,209.160 110.700 L 209.200 102.800 229.200 102.800 L 249.200 102.800 249.200 201.000 L 249.200 299.200 229.227 299.200 L 209.253 299.200 209.127 289.861 C 208.967 278.054,209.928 279.200,200.180 279.200 C 190.235 279.200,191.200 278.057,191.200 289.829 L 191.200 299.200 171.200 299.200 L 151.200 299.200 151.200 201.000 L 151.200 102.800 171.192 102.800 L 191.185 102.800 191.292 111.700 M361.200 201.000 L 361.200 299.200 313.200 299.200 L 265.200 299.200 265.200 201.000 L 265.200 102.800 313.200 102.800 L 361.200 102.800 361.200 201.000 M191.829 129.829 C 190.887 130.770,190.882 156.568,191.823 157.911 C 192.637 159.073,207.026 159.316,208.156 158.187 C 209.415 156.927,209.682 131.343,208.451 129.861 C 207.648 128.894,192.792 128.865,191.829 129.829 M191.467 167.467 C 191.320 167.613,191.200 173.823,191.200 181.267 L 191.200 194.800 199.957 194.800 C 207.574 194.800,208.746 194.718,208.957 194.167 C 209.366 193.103,209.231 169.333,208.810 168.226 L 208.420 167.200 200.077 167.200 C 195.488 167.200,191.613 167.320,191.467 167.467 M191.467 205.467 C 191.320 205.613,191.200 211.823,191.200 219.267 L 191.200 232.800 199.953 232.800 C 208.693 232.800,208.707 232.799,208.948 231.900 C 209.262 230.726,209.262 207.274,208.948 206.100 C 208.707 205.202,192.325 204.609,191.467 205.467 M193.700 241.465 C 193.425 241.576,193.200 242.012,193.200 242.433 C 193.200 242.986,192.919 243.200,192.195 243.200 L 191.189 243.200 191.295 256.900 L 191.400 270.600 199.982 270.600 L 208.564 270.600 208.842 269.600 C 209.186 268.362,209.292 244.705,208.957 243.833 C 208.824 243.485,208.403 243.200,208.021 243.200 C 207.640 243.200,207.123 242.750,206.873 242.200 L 206.417 241.200 200.309 241.232 C 196.949 241.249,193.975 241.354,193.700 241.465 " stroke="none" fill="#000000" fill-rule="evenodd"></path><path id="path6" d="M23.467 85.467 C 23.320 85.613,23.200 137.274,23.200 200.267 L 23.200 314.801 200.100 314.700 L 377.000 314.600 377.113 201.200 C 377.175 138.830,377.122 87.215,376.995 86.500 L 376.764 85.200 200.249 85.200 C 103.165 85.200,23.613 85.320,23.467 85.467 M135.200 201.000 L 135.200 299.200 87.200 299.200 L 39.200 299.200 39.200 201.000 L 39.200 102.800 87.200 102.800 L 135.200 102.800 135.200 201.000 M191.292 111.700 L 191.400 120.600 199.982 120.600 L 208.564 120.600 208.842 119.600 C 208.995 119.050,209.138 115.045,209.160 110.700 L 209.200 102.800 229.200 102.800 L 249.200 102.800 249.200 201.000 L 249.200 299.200 229.227 299.200 L 209.253 299.200 209.127 289.861 C 208.967 278.054,209.928 279.200,200.180 279.200 C 190.235 279.200,191.200 278.057,191.200 289.829 L 191.200 299.200 171.200 299.200 L 151.200 299.200 151.200 201.000 L 151.200 102.800 171.192 102.800 L 191.185 102.800 191.292 111.700 M361.200 201.000 L 361.200 299.200 313.200 299.200 L 265.200 299.200 265.200 201.000 L 265.200 102.800 313.200 102.800 L 361.200 102.800 361.200 201.000 M191.829 129.829 C 190.887 130.770,190.882 156.568,191.823 157.911 C 192.637 159.073,207.026 159.316,208.156 158.187 C 209.415 156.927,209.682 131.343,208.451 129.861 C 207.648 128.894,192.792 128.865,191.829 129.829 M191.467 167.467 C 191.320 167.613,191.200 173.823,191.200 181.267 L 191.200 194.800 199.957 194.800 C 207.574 194.800,208.746 194.718,208.957 194.167 C 209.366 193.103,209.231 169.333,208.810 168.226 L 208.420 167.200 200.077 167.200 C 195.488 167.200,191.613 167.320,191.467 167.467 M191.467 205.467 C 191.320 205.613,191.200 211.823,191.200 219.267 L 191.200 232.800 199.953 232.800 C 208.693 232.800,208.707 232.799,208.948 231.900 C 209.262 230.726,209.262 207.274,208.948 206.100 C 208.707 205.202,192.325 204.609,191.467 205.467 M193.700 241.465 C 193.425 241.576,193.200 242.012,193.200 242.433 C 193.200 242.986,192.919 243.200,192.195 243.200 L 191.189 243.200 191.295 256.900 L 191.400 270.600 199.982 270.600 L 208.564 270.600 208.842 269.600 C 209.186 268.362,209.292 244.705,208.957 243.833 C 208.824 243.485,208.403 243.200,208.021 243.200 C 207.640 243.200,207.123 242.750,206.873 242.200 L 206.417 241.200 200.309 241.232 C 196.949 241.249,193.975 241.354,193.700 241.465 " stroke="none" fill="#000000" fill-rule="evenodd"></path><path id="path7" d="M23.467 85.467 C 23.320 85.613,23.200 137.274,23.200 200.267 L 23.200 314.801 200.100 314.700 L 377.000 314.600 377.113 201.200 C 377.175 138.830,377.122 87.215,376.995 86.500 L 376.764 85.200 200.249 85.200 C 103.165 85.200,23.613 85.320,23.467 85.467 M135.200 201.000 L 135.200 299.200 87.200 299.200 L 39.200 299.200 39.200 201.000 L 39.200 102.800 87.200 102.800 L 135.200 102.800 135.200 201.000 M191.292 111.700 L 191.400 120.600 199.982 120.600 L 208.564 120.600 208.842 119.600 C 208.995 119.050,209.138 115.045,209.160 110.700 L 209.200 102.800 229.200 102.800 L 249.200 102.800 249.200 201.000 L 249.200 299.200 229.227 299.200 L 209.253 299.200 209.127 289.861 C 208.967 278.054,209.928 279.200,200.180 279.200 C 190.235 279.200,191.200 278.057,191.200 289.829 L 191.200 299.200 171.200 299.200 L 151.200 299.200 151.200 201.000 L 151.200 102.800 171.192 102.800 L 191.185 102.800 191.292 111.700 M361.200 201.000 L 361.200 299.200 313.200 299.200 L 265.200 299.200 265.200 201.000 L 265.200 102.800 313.200 102.800 L 361.200 102.800 361.200 201.000 M191.829 129.829 C 190.887 130.770,190.882 156.568,191.823 157.911 C 192.637 159.073,207.026 159.316,208.156 158.187 C 209.415 156.927,209.682 131.343,208.451 129.861 C 207.648 128.894,192.792 128.865,191.829 129.829 M191.467 167.467 C 191.320 167.613,191.200 173.823,191.200 181.267 L 191.200 194.800 199.957 194.800 C 207.574 194.800,208.746 194.718,208.957 194.167 C 209.366 193.103,209.231 169.333,208.810 168.226 L 208.420 167.200 200.077 167.200 C 195.488 167.200,191.613 167.320,191.467 167.467 M191.467 205.467 C 191.320 205.613,191.200 211.823,191.200 219.267 L 191.200 232.800 199.953 232.800 C 208.693 232.800,208.707 232.799,208.948 231.900 C 209.262 230.726,209.262 207.274,208.948 206.100 C 208.707 205.202,192.325 204.609,191.467 205.467 M193.700 241.465 C 193.425 241.576,193.200 242.012,193.200 242.433 C 193.200 242.986,192.919 243.200,192.195 243.200 L 191.189 243.200 191.295 256.900 L 191.400 270.600 199.982 270.600 L 208.564 270.600 208.842 269.600 C 209.186 268.362,209.292 244.705,208.957 243.833 C 208.824 243.485,208.403 243.200,208.021 243.200 C 207.640 243.200,207.123 242.750,206.873 242.200 L 206.417 241.200 200.309 241.232 C 196.949 241.249,193.975 241.354,193.700 241.465 " stroke="none" fill="#000000" fill-rule="evenodd"></path><path id="path8" d="M23.467 85.467 C 23.320 85.613,23.200 137.274,23.200 200.267 L 23.200 314.801 200.100 314.700 L 377.000 314.600 377.113 201.200 C 377.175 138.830,377.122 87.215,376.995 86.500 L 376.764 85.200 200.249 85.200 C 103.165 85.200,23.613 85.320,23.467 85.467 M135.200 201.000 L 135.200 299.200 87.200 299.200 L 39.200 299.200 39.200 201.000 L 39.200 102.800 87.200 102.800 L 135.200 102.800 135.200 201.000 M191.292 111.700 L 191.400 120.600 199.982 120.600 L 208.564 120.600 208.842 119.600 C 208.995 119.050,209.138 115.045,209.160 110.700 L 209.200 102.800 229.200 102.800 L 249.200 102.800 249.200 201.000 L 249.200 299.200 229.227 299.200 L 209.253 299.200 209.127 289.861 C 208.967 278.054,209.928 279.200,200.180 279.200 C 190.235 279.200,191.200 278.057,191.200 289.829 L 191.200 299.200 171.200 299.200 L 151.200 299.200 151.200 201.000 L 151.200 102.800 171.192 102.800 L 191.185 102.800 191.292 111.700 M361.200 201.000 L 361.200 299.200 313.200 299.200 L 265.200 299.200 265.200 201.000 L 265.200 102.800 313.200 102.800 L 361.200 102.800 361.200 201.000 M191.829 129.829 C 190.887 130.770,190.882 156.568,191.823 157.911 C 192.637 159.073,207.026 159.316,208.156 158.187 C 209.415 156.927,209.682 131.343,208.451 129.861 C 207.648 128.894,192.792 128.865,191.829 129.829 M191.467 167.467 C 191.320 167.613,191.200 173.823,191.200 181.267 L 191.200 194.800 199.957 194.800 C 207.574 194.800,208.746 194.718,208.957 194.167 C 209.366 193.103,209.231 169.333,208.810 168.226 L 208.420 167.200 200.077 167.200 C 195.488 167.200,191.613 167.320,191.467 167.467 M191.467 205.467 C 191.320 205.613,191.200 211.823,191.200 219.267 L 191.200 232.800 199.953 232.800 C 208.693 232.800,208.707 232.799,208.948 231.900 C 209.262 230.726,209.262 207.274,208.948 206.100 C 208.707 205.202,192.325 204.609,191.467 205.467 M193.700 241.465 C 193.425 241.576,193.200 242.012,193.200 242.433 C 193.200 242.986,192.919 243.200,192.195 243.200 L 191.189 243.200 191.295 256.900 L 191.400 270.600 199.982 270.600 L 208.564 270.600 208.842 269.600 C 209.186 268.362,209.292 244.705,208.957 243.833 C 208.824 243.485,208.403 243.200,208.021 243.200 C 207.640 243.200,207.123 242.750,206.873 242.200 L 206.417 241.200 200.309 241.232 C 196.949 241.249,193.975 241.354,193.700 241.465 " stroke="none" fill="#000000" fill-rule="evenodd"></path><path id="path9" d="M23.467 85.467 C 23.320 85.613,23.200 137.274,23.200 200.267 L 23.200 314.801 200.100 314.700 L 377.000 314.600 377.113 201.200 C 377.175 138.830,377.122 87.215,376.995 86.500 L 376.764 85.200 200.249 85.200 C 103.165 85.200,23.613 85.320,23.467 85.467 M135.200 201.000 L 135.200 299.200 87.200 299.200 L 39.200 299.200 39.200 201.000 L 39.200 102.800 87.200 102.800 L 135.200 102.800 135.200 201.000 M191.292 111.700 L 191.400 120.600 199.982 120.600 L 208.564 120.600 208.842 119.600 C 208.995 119.050,209.138 115.045,209.160 110.700 L 209.200 102.800 229.200 102.800 L 249.200 102.800 249.200 201.000 L 249.200 299.200 229.227 299.200 L 209.253 299.200 209.127 289.861 C 208.967 278.054,209.928 279.200,200.180 279.200 C 190.235 279.200,191.200 278.057,191.200 289.829 L 191.200 299.200 171.200 299.200 L 151.200 299.200 151.200 201.000 L 151.200 102.800 171.192 102.800 L 191.185 102.800 191.292 111.700 M361.200 201.000 L 361.200 299.200 313.200 299.200 L 265.200 299.200 265.200 201.000 L 265.200 102.800 313.200 102.800 L 361.200 102.800 361.200 201.000 M191.829 129.829 C 190.887 130.770,190.882 156.568,191.823 157.911 C 192.637 159.073,207.026 159.316,208.156 158.187 C 209.415 156.927,209.682 131.343,208.451 129.861 C 207.648 128.894,192.792 128.865,191.829 129.829 M191.467 167.467 C 191.320 167.613,191.200 173.823,191.200 181.267 L 191.200 194.800 199.957 194.800 C 207.574 194.800,208.746 194.718,208.957 194.167 C 209.366 193.103,209.231 169.333,208.810 168.226 L 208.420 167.200 200.077 167.200 C 195.488 167.200,191.613 167.320,191.467 167.467 M191.467 205.467 C 191.320 205.613,191.200 211.823,191.200 219.267 L 191.200 232.800 199.953 232.800 C 208.693 232.800,208.707 232.799,208.948 231.900 C 209.262 230.726,209.262 207.274,208.948 206.100 C 208.707 205.202,192.325 204.609,191.467 205.467 M193.700 241.465 C 193.425 241.576,193.200 242.012,193.200 242.433 C 193.200 242.986,192.919 243.200,192.195 243.200 L 191.189 243.200 191.295 256.900 L 191.400 270.600 199.982 270.600 L 208.564 270.600 208.842 269.600 C 209.186 268.362,209.292 244.705,208.957 243.833 C 208.824 243.485,208.403 243.200,208.021 243.200 C 207.640 243.200,207.123 242.750,206.873 242.200 L 206.417 241.200 200.309 241.232 C 196.949 241.249,193.975 241.354,193.700 241.465 " stroke="none" fill="#000000" fill-rule="evenodd"></path><path id="path10" d="M23.467 85.467 C 23.320 85.613,23.200 137.274,23.200 200.267 L 23.200 314.801 200.100 314.700 L 377.000 314.600 377.113 201.200 C 377.175 138.830,377.122 87.215,376.995 86.500 L 376.764 85.200 200.249 85.200 C 103.165 85.200,23.613 85.320,23.467 85.467 M135.200 201.000 L 135.200 299.200 87.200 299.200 L 39.200 299.200 39.200 201.000 L 39.200 102.800 87.200 102.800 L 135.200 102.800 135.200 201.000 M191.292 111.700 L 191.400 120.600 199.982 120.600 L 208.564 120.600 208.842 119.600 C 208.995 119.050,209.138 115.045,209.160 110.700 L 209.200 102.800 229.200 102.800 L 249.200 102.800 249.200 201.000 L 249.200 299.200 229.227 299.200 L 209.253 299.200 209.127 289.861 C 208.967 278.054,209.928 279.200,200.180 279.200 C 190.235 279.200,191.200 278.057,191.200 289.829 L 191.200 299.200 171.200 299.200 L 151.200 299.200 151.200 201.000 L 151.200 102.800 171.192 102.800 L 191.185 102.800 191.292 111.700 M361.200 201.000 L 361.200 299.200 313.200 299.200 L 265.200 299.200 265.200 201.000 L 265.200 102.800 313.200 102.800 L 361.200 102.800 361.200 201.000 M191.829 129.829 C 190.887 130.770,190.882 156.568,191.823 157.911 C 192.637 159.073,207.026 159.316,208.156 158.187 C 209.415 156.927,209.682 131.343,208.451 129.861 C 207.648 128.894,192.792 128.865,191.829 129.829 M191.467 167.467 C 191.320 167.613,191.200 173.823,191.200 181.267 L 191.200 194.800 199.957 194.800 C 207.574 194.800,208.746 194.718,208.957 194.167 C 209.366 193.103,209.231 169.333,208.810 168.226 L 208.420 167.200 200.077 167.200 C 195.488 167.200,191.613 167.320,191.467 167.467 M191.467 205.467 C 191.320 205.613,191.200 211.823,191.200 219.267 L 191.200 232.800 199.953 232.800 C 208.693 232.800,208.707 232.799,208.948 231.900 C 209.262 230.726,209.262 207.274,208.948 206.100 C 208.707 205.202,192.325 204.609,191.467 205.467 M193.700 241.465 C 193.425 241.576,193.200 242.012,193.200 242.433 C 193.200 242.986,192.919 243.200,192.195 243.200 L 191.189 243.200 191.295 256.900 L 191.400 270.600 199.982 270.600 L 208.564 270.600 208.842 269.600 C 209.186 268.362,209.292 244.705,208.957 243.833 C 208.824 243.485,208.403 243.200,208.021 243.200 C 207.640 243.200,207.123 242.750,206.873 242.200 L 206.417 241.200 200.309 241.232 C 196.949 241.249,193.975 241.354,193.700 241.465 " stroke="none" fill="#000000" fill-rule="evenodd"></path><path id="path11" d="M23.467 85.467 C 23.320 85.613,23.200 137.274,23.200 200.267 L 23.200 314.801 200.100 314.700 L 377.000 314.600 377.113 201.200 C 377.175 138.830,377.122 87.215,376.995 86.500 L 376.764 85.200 200.249 85.200 C 103.165 85.200,23.613 85.320,23.467 85.467 M135.200 201.000 L 135.200 299.200 87.200 299.200 L 39.200 299.200 39.200 201.000 L 39.200 102.800 87.200 102.800 L 135.200 102.800 135.200 201.000 M191.292 111.700 L 191.400 120.600 199.982 120.600 L 208.564 120.600 208.842 119.600 C 208.995 119.050,209.138 115.045,209.160 110.700 L 209.200 102.800 229.200 102.800 L 249.200 102.800 249.200 201.000 L 249.200 299.200 229.227 299.200 L 209.253 299.200 209.127 289.861 C 208.967 278.054,209.928 279.200,200.180 279.200 C 190.235 279.200,191.200 278.057,191.200 289.829 L 191.200 299.200 171.200 299.200 L 151.200 299.200 151.200 201.000 L 151.200 102.800 171.192 102.800 L 191.185 102.800 191.292 111.700 M361.200 201.000 L 361.200 299.200 313.200 299.200 L 265.200 299.200 265.200 201.000 L 265.200 102.800 313.200 102.800 L 361.200 102.800 361.200 201.000 M191.829 129.829 C 190.887 130.770,190.882 156.568,191.823 157.911 C 192.637 159.073,207.026 159.316,208.156 158.187 C 209.415 156.927,209.682 131.343,208.451 129.861 C 207.648 128.894,192.792 128.865,191.829 129.829 M191.467 167.467 C 191.320 167.613,191.200 173.823,191.200 181.267 L 191.200 194.800 199.957 194.800 C 207.574 194.800,208.746 194.718,208.957 194.167 C 209.366 193.103,209.231 169.333,208.810 168.226 L 208.420 167.200 200.077 167.200 C 195.488 167.200,191.613 167.320,191.467 167.467 M191.467 205.467 C 191.320 205.613,191.200 211.823,191.200 219.267 L 191.200 232.800 199.953 232.800 C 208.693 232.800,208.707 232.799,208.948 231.900 C 209.262 230.726,209.262 207.274,208.948 206.100 C 208.707 205.202,192.325 204.609,191.467 205.467 M193.700 241.465 C 193.425 241.576,193.200 242.012,193.200 242.433 C 193.200 242.986,192.919 243.200,192.195 243.200 L 191.189 243.200 191.295 256.900 L 191.400 270.600 199.982 270.600 L 208.564 270.600 208.842 269.600 C 209.186 268.362,209.292 244.705,208.957 243.833 C 208.824 243.485,208.403 243.200,208.021 243.200 C 207.640 243.200,207.123 242.750,206.873 242.200 L 206.417 241.200 200.309 241.232 C 196.949 241.249,193.975 241.354,193.700 241.465 " stroke="none" fill="#000000" fill-rule="evenodd"></path><path id="path12" d="M23.467 85.467 C 23.320 85.613,23.200 137.274,23.200 200.267 L 23.200 314.801 200.100 314.700 L 377.000 314.600 377.113 201.200 C 377.175 138.830,377.122 87.215,376.995 86.500 L 376.764 85.200 200.249 85.200 C 103.165 85.200,23.613 85.320,23.467 85.467 M135.200 201.000 L 135.200 299.200 87.200 299.200 L 39.200 299.200 39.200 201.000 L 39.200 102.800 87.200 102.800 L 135.200 102.800 135.200 201.000 M191.292 111.700 L 191.400 120.600 199.982 120.600 L 208.564 120.600 208.842 119.600 C 208.995 119.050,209.138 115.045,209.160 110.700 L 209.200 102.800 229.200 102.800 L 249.200 102.800 249.200 201.000 L 249.200 299.200 229.227 299.200 L 209.253 299.200 209.127 289.861 C 208.967 278.054,209.928 279.200,200.180 279.200 C 190.235 279.200,191.200 278.057,191.200 289.829 L 191.200 299.200 171.200 299.200 L 151.200 299.200 151.200 201.000 L 151.200 102.800 171.192 102.800 L 191.185 102.800 191.292 111.700 M361.200 201.000 L 361.200 299.200 313.200 299.200 L 265.200 299.200 265.200 201.000 L 265.200 102.800 313.200 102.800 L 361.200 102.800 361.200 201.000 M191.829 129.829 C 190.887 130.770,190.882 156.568,191.823 157.911 C 192.637 159.073,207.026 159.316,208.156 158.187 C 209.415 156.927,209.682 131.343,208.451 129.861 C 207.648 128.894,192.792 128.865,191.829 129.829 M191.467 167.467 C 191.320 167.613,191.200 173.823,191.200 181.267 L 191.200 194.800 199.957 194.800 C 207.574 194.800,208.746 194.718,208.957 194.167 C 209.366 193.103,209.231 169.333,208.810 168.226 L 208.420 167.200 200.077 167.200 C 195.488 167.200,191.613 167.320,191.467 167.467 M191.467 205.467 C 191.320 205.613,191.200 211.823,191.200 219.267 L 191.200 232.800 199.953 232.800 C 208.693 232.800,208.707 232.799,208.948 231.900 C 209.262 230.726,209.262 207.274,208.948 206.100 C 208.707 205.202,192.325 204.609,191.467 205.467 M193.700 241.465 C 193.425 241.576,193.200 242.012,193.200 242.433 C 193.200 242.986,192.919 243.200,192.195 243.200 L 191.189 243.200 191.295 256.900 L 191.400 270.600 199.982 270.600 L 208.564 270.600 208.842 269.600 C 209.186 268.362,209.292 244.705,208.957 243.833 C 208.824 243.485,208.403 243.200,208.021 243.200 C 207.640 243.200,207.123 242.750,206.873 242.200 L 206.417 241.200 200.309 241.232 C 196.949 241.249,193.975 241.354,193.700 241.465 " stroke="none" fill="#000000" fill-rule="evenodd"></path><path id="path13" d="M23.467 85.467 C 23.320 85.613,23.200 137.274,23.200 200.267 L 23.200 314.801 200.100 314.700 L 377.000 314.600 377.113 201.200 C 377.175 138.830,377.122 87.215,376.995 86.500 L 376.764 85.200 200.249 85.200 C 103.165 85.200,23.613 85.320,23.467 85.467 M135.200 201.000 L 135.200 299.200 87.200 299.200 L 39.200 299.200 39.200 201.000 L 39.200 102.800 87.200 102.800 L 135.200 102.800 135.200 201.000 M191.292 111.700 L 191.400 120.600 199.982 120.600 L 208.564 120.600 208.842 119.600 C 208.995 119.050,209.138 115.045,209.160 110.700 L 209.200 102.800 229.200 102.800 L 249.200 102.800 249.200 201.000 L 249.200 299.200 229.227 299.200 L 209.253 299.200 209.127 289.861 C 208.967 278.054,209.928 279.200,200.180 279.200 C 190.235 279.200,191.200 278.057,191.200 289.829 L 191.200 299.200 171.200 299.200 L 151.200 299.200 151.200 201.000 L 151.200 102.800 171.192 102.800 L 191.185 102.800 191.292 111.700 M361.200 201.000 L 361.200 299.200 313.200 299.200 L 265.200 299.200 265.200 201.000 L 265.200 102.800 313.200 102.800 L 361.200 102.800 361.200 201.000 M191.829 129.829 C 190.887 130.770,190.882 156.568,191.823 157.911 C 192.637 159.073,207.026 159.316,208.156 158.187 C 209.415 156.927,209.682 131.343,208.451 129.861 C 207.648 128.894,192.792 128.865,191.829 129.829 M191.467 167.467 C 191.320 167.613,191.200 173.823,191.200 181.267 L 191.200 194.800 199.957 194.800 C 207.574 194.800,208.746 194.718,208.957 194.167 C 209.366 193.103,209.231 169.333,208.810 168.226 L 208.420 167.200 200.077 167.200 C 195.488 167.200,191.613 167.320,191.467 167.467 M191.467 205.467 C 191.320 205.613,191.200 211.823,191.200 219.267 L 191.200 232.800 199.953 232.800 C 208.693 232.800,208.707 232.799,208.948 231.900 C 209.262 230.726,209.262 207.274,208.948 206.100 C 208.707 205.202,192.325 204.609,191.467 205.467 M193.700 241.465 C 193.425 241.576,193.200 242.012,193.200 242.433 C 193.200 242.986,192.919 243.200,192.195 243.200 L 191.189 243.200 191.295 256.900 L 191.400 270.600 199.982 270.600 L 208.564 270.600 208.842 269.600 C 209.186 268.362,209.292 244.705,208.957 243.833 C 208.824 243.485,208.403 243.200,208.021 243.200 C 207.640 243.200,207.123 242.750,206.873 242.200 L 206.417 241.200 200.309 241.232 C 196.949 241.249,193.975 241.354,193.700 241.465 " stroke="none" fill="#000000" fill-rule="evenodd"></path><path id="path14" d="M23.467 85.467 C 23.320 85.613,23.200 137.274,23.200 200.267 L 23.200 314.801 200.100 314.700 L 377.000 314.600 377.113 201.200 C 377.175 138.830,377.122 87.215,376.995 86.500 L 376.764 85.200 200.249 85.200 C 103.165 85.200,23.613 85.320,23.467 85.467 M135.200 201.000 L 135.200 299.200 87.200 299.200 L 39.200 299.200 39.200 201.000 L 39.200 102.800 87.200 102.800 L 135.200 102.800 135.200 201.000 M191.292 111.700 L 191.400 120.600 199.982 120.600 L 208.564 120.600 208.842 119.600 C 208.995 119.050,209.138 115.045,209.160 110.700 L 209.200 102.800 229.200 102.800 L 249.200 102.800 249.200 201.000 L 249.200 299.200 229.227 299.200 L 209.253 299.200 209.127 289.861 C 208.967 278.054,209.928 279.200,200.180 279.200 C 190.235 279.200,191.200 278.057,191.200 289.829 L 191.200 299.200 171.200 299.200 L 151.200 299.200 151.200 201.000 L 151.200 102.800 171.192 102.800 L 191.185 102.800 191.292 111.700 M361.200 201.000 L 361.200 299.200 313.200 299.200 L 265.200 299.200 265.200 201.000 L 265.200 102.800 313.200 102.800 L 361.200 102.800 361.200 201.000 M191.829 129.829 C 190.887 130.770,190.882 156.568,191.823 157.911 C 192.637 159.073,207.026 159.316,208.156 158.187 C 209.415 156.927,209.682 131.343,208.451 129.861 C 207.648 128.894,192.792 128.865,191.829 129.829 M191.467 167.467 C 191.320 167.613,191.200 173.823,191.200 181.267 L 191.200 194.800 199.957 194.800 C 207.574 194.800,208.746 194.718,208.957 194.167 C 209.366 193.103,209.231 169.333,208.810 168.226 L 208.420 167.200 200.077 167.200 C 195.488 167.200,191.613 167.320,191.467 167.467 M191.467 205.467 C 191.320 205.613,191.200 211.823,191.200 219.267 L 191.200 232.800 199.953 232.800 C 208.693 232.800,208.707 232.799,208.948 231.900 C 209.262 230.726,209.262 207.274,208.948 206.100 C 208.707 205.202,192.325 204.609,191.467 205.467 M193.700 241.465 C 193.425 241.576,193.200 242.012,193.200 242.433 C 193.200 242.986,192.919 243.200,192.195 243.200 L 191.189 243.200 191.295 256.900 L 191.400 270.600 199.982 270.600 L 208.564 270.600 208.842 269.600 C 209.186 268.362,209.292 244.705,208.957 243.833 C 208.824 243.485,208.403 243.200,208.021 243.200 C 207.640 243.200,207.123 242.750,206.873 242.200 L 206.417 241.200 200.309 241.232 C 196.949 241.249,193.975 241.354,193.700 241.465 " stroke="none" fill="#000000" fill-rule="evenodd"></path><path id="path15" d="M23.467 85.467 C 23.320 85.613,23.200 137.274,23.200 200.267 L 23.200 314.801 200.100 314.700 L 377.000 314.600 377.113 201.200 C 377.175 138.830,377.122 87.215,376.995 86.500 L 376.764 85.200 200.249 85.200 C 103.165 85.200,23.613 85.320,23.467 85.467 M135.200 201.000 L 135.200 299.200 87.200 299.200 L 39.200 299.200 39.200 201.000 L 39.200 102.800 87.200 102.800 L 135.200 102.800 135.200 201.000 M191.292 111.700 L 191.400 120.600 199.982 120.600 L 208.564 120.600 208.842 119.600 C 208.995 119.050,209.138 115.045,209.160 110.700 L 209.200 102.800 229.200 102.800 L 249.200 102.800 249.200 201.000 L 249.200 299.200 229.227 299.200 L 209.253 299.200 209.127 289.861 C 208.967 278.054,209.928 279.200,200.180 279.200 C 190.235 279.200,191.200 278.057,191.200 289.829 L 191.200 299.200 171.200 299.200 L 151.200 299.200 151.200 201.000 L 151.200 102.800 171.192 102.800 L 191.185 102.800 191.292 111.700 M361.200 201.000 L 361.200 299.200 313.200 299.200 L 265.200 299.200 265.200 201.000 L 265.200 102.800 313.200 102.800 L 361.200 102.800 361.200 201.000 M191.829 129.829 C 190.887 130.770,190.882 156.568,191.823 157.911 C 192.637 159.073,207.026 159.316,208.156 158.187 C 209.415 156.927,209.682 131.343,208.451 129.861 C 207.648 128.894,192.792 128.865,191.829 129.829 M191.467 167.467 C 191.320 167.613,191.200 173.823,191.200 181.267 L 191.200 194.800 199.957 194.800 C 207.574 194.800,208.746 194.718,208.957 194.167 C 209.366 193.103,209.231 169.333,208.810 168.226 L 208.420 167.200 200.077 167.200 C 195.488 167.200,191.613 167.320,191.467 167.467 M191.467 205.467 C 191.320 205.613,191.200 211.823,191.200 219.267 L 191.200 232.800 199.953 232.800 C 208.693 232.800,208.707 232.799,208.948 231.900 C 209.262 230.726,209.262 207.274,208.948 206.100 C 208.707 205.202,192.325 204.609,191.467 205.467 M193.700 241.465 C 193.425 241.576,193.200 242.012,193.200 242.433 C 193.200 242.986,192.919 243.200,192.195 243.200 L 191.189 243.200 191.295 256.900 L 191.400 270.600 199.982 270.600 L 208.564 270.600 208.842 269.600 C 209.186 268.362,209.292 244.705,208.957 243.833 C 208.824 243.485,208.403 243.200,208.021 243.200 C 207.640 243.200,207.123 242.750,206.873 242.200 L 206.417 241.200 200.309 241.232 C 196.949 241.249,193.975 241.354,193.700 241.465 " stroke="none" fill="#000000" fill-rule="evenodd"></path></g></svg>