<svg id="svg" version="1.1" width="400" height="360" viewBox="0 0 400 360" xmlns="http://www.w3.org/2000/svg" xmlns:xlink="http://www.w3.org/1999/xlink" ><g id="svgg"><path id="path0" d="M0.000 355.536 L 0.000 360.036 4.680 360.036 C 9.536 360.036,10.624 359.624,8.551 358.569 C 8.105 358.342,7.218 357.648,6.580 357.026 C 3.268 353.800,2.291 352.733,1.833 351.845 C 0.635 349.522,0.000 350.800,0.000 355.536 M398.413 351.931 C 398.290 352.423,397.771 353.100,397.261 353.434 C 396.751 353.768,396.190 354.421,396.013 354.885 C 395.837 355.349,395.313 355.873,394.849 356.049 C 394.385 356.226,393.732 356.787,393.398 357.297 C 393.064 357.807,392.387 358.326,391.895 358.449 C 391.335 358.590,390.999 358.930,390.999 359.355 C 390.999 359.987,391.325 360.036,395.500 360.036 L 400.000 360.036 400.000 355.536 C 400.000 351.361,399.951 351.035,399.319 351.035 C 398.894 351.035,398.553 351.371,398.413 351.931 " stroke="none" fill="#ffffff" fill-rule="evenodd"></path><path id="path1" d="M246.537 75.715 C 246.629 94.495,246.739 96.180,247.899 96.625 C 248.167 96.728,248.564 97.471,248.781 98.276 C 248.998 99.081,249.627 100.264,250.179 100.905 C 250.732 101.546,251.283 102.344,251.405 102.679 C 251.527 103.014,252.081 103.570,252.636 103.915 C 253.191 104.260,254.050 104.908,254.545 105.355 C 255.041 105.802,256.254 106.380,257.242 106.639 C 258.230 106.899,259.297 107.368,259.614 107.682 C 261.189 109.247,268.537 109.269,270.257 107.713 C 270.625 107.380,271.737 106.896,272.727 106.638 C 273.818 106.353,274.894 105.768,275.458 105.152 C 275.969 104.594,276.722 104.031,277.129 103.902 C 277.537 103.772,278.061 103.207,278.293 102.645 C 278.526 102.083,279.079 101.459,279.521 101.257 C 280.018 101.031,280.515 100.289,280.818 99.320 C 281.089 98.456,281.520 97.575,281.775 97.360 C 283.092 96.257,283.162 95.252,283.274 75.845 C 283.350 62.631,283.269 56.893,283.006 57.055 C 282.750 57.213,282.628 63.189,282.627 75.539 L 282.626 93.789 281.548 95.950 C 280.956 97.138,280.470 98.296,280.469 98.524 C 280.467 99.219,276.818 103.303,275.451 104.141 C 274.745 104.574,273.853 105.216,273.469 105.569 C 273.086 105.922,272.575 106.211,272.334 106.211 C 272.094 106.211,270.410 106.713,268.593 107.327 C 264.964 108.553,264.766 108.548,260.486 107.117 C 255.835 105.561,251.305 102.544,251.305 101.002 C 251.305 100.768,250.905 100.199,250.415 99.740 C 249.926 99.280,249.341 98.320,249.116 97.607 C 248.890 96.893,248.359 95.743,247.935 95.050 C 247.179 93.812,247.163 93.456,247.054 75.608 C 246.994 65.608,246.832 57.312,246.694 57.174 C 246.557 57.035,246.486 65.379,246.537 75.715 " stroke="none" fill="#4322d4" fill-rule="evenodd"></path><path id="path2" d="M201.509 55.896 C 201.669 56.143,201.881 77.585,201.980 103.545 C 202.130 142.825,202.243 150.845,202.654 151.340 C 203.112 151.891,210.466 151.935,301.574 151.935 L 400.000 151.935 400.000 110.603 L 400.000 69.272 398.759 68.823 C 396.902 68.151,396.519 65.520,398.201 64.986 C 399.605 64.541,399.167 62.646,397.660 62.646 C 396.460 62.646,396.400 62.586,396.400 61.386 C 396.400 60.226,396.314 60.126,395.320 60.126 C 394.359 60.126,394.239 60.006,394.239 59.046 C 394.239 58.052,394.139 57.966,392.979 57.966 C 392.090 57.966,391.719 58.127,391.719 58.515 C 391.719 59.215,390.124 59.831,389.025 59.555 C 388.008 59.300,387.228 57.614,387.545 56.353 L 387.772 55.446 336.859 55.446 C 293.299 55.446,285.917 55.519,285.750 55.955 C 285.643 56.235,285.099 56.683,284.542 56.950 L 283.528 57.435 283.348 76.709 C 283.162 96.711,283.062 97.930,281.615 97.930 C 281.462 97.930,281.141 98.662,280.902 99.558 C 280.600 100.686,280.198 101.309,279.592 101.585 C 279.110 101.804,278.528 102.438,278.298 102.994 C 278.055 103.581,277.440 104.157,276.829 104.370 C 276.251 104.571,275.680 104.993,275.559 105.307 C 275.291 106.004,273.575 106.931,272.550 106.931 C 272.136 106.931,271.466 107.239,271.062 107.616 C 268.972 109.562,261.215 109.591,259.046 107.661 C 258.650 107.308,257.694 106.907,256.922 106.769 C 256.132 106.628,255.092 106.093,254.547 105.547 C 254.013 105.013,253.141 104.378,252.610 104.137 C 252.079 103.895,251.541 103.412,251.415 103.063 C 251.289 102.715,250.649 101.827,249.994 101.089 C 249.339 100.352,248.699 99.298,248.571 98.749 C 248.443 98.199,248.141 97.588,247.900 97.390 C 246.474 96.217,246.448 95.873,246.337 76.393 L 246.229 57.556 245.181 57.191 C 244.605 56.990,244.035 56.515,243.915 56.136 C 243.702 55.466,243.071 55.446,222.457 55.446 C 205.550 55.446,201.277 55.537,201.509 55.896 " stroke="none" fill="#010eff" fill-rule="evenodd"></path><path id="path3" d="M12.590 56.796 C 12.573 58.776,11.937 59.406,9.951 59.406 C 9.033 59.406,8.300 59.284,8.323 59.136 C 8.460 58.272,8.166 57.966,7.201 57.966 C 6.241 57.966,6.121 58.086,6.121 59.046 C 6.121 59.997,5.996 60.126,5.079 60.126 C 4.020 60.126,3.600 60.645,3.600 61.956 C 3.600 62.483,3.345 62.646,2.520 62.646 C 1.174 62.646,0.876 64.579,2.160 64.986 C 3.833 65.517,2.727 68.767,0.874 68.767 L 0.000 68.767 0.000 110.353 L 0.000 151.939 99.938 151.933 C 154.904 151.930,199.985 151.995,200.118 152.077 C 200.251 152.159,200.318 130.451,200.267 103.836 L 200.175 55.446 178.398 55.446 C 157.012 55.446,156.614 55.458,156.172 56.166 C 155.925 56.562,155.470 56.886,155.161 56.886 C 153.768 56.886,153.736 57.253,153.707 73.969 C 153.674 92.744,153.512 95.710,152.455 96.915 C 152.052 97.374,151.508 98.398,151.247 99.190 C 150.739 100.727,150.210 101.364,146.175 105.294 C 145.680 105.776,144.464 106.382,143.474 106.640 C 142.484 106.899,141.431 107.401,141.134 107.755 C 139.956 109.159,130.515 109.158,128.574 107.752 C 128.056 107.378,127.066 106.845,126.373 106.568 C 125.680 106.291,124.673 105.652,124.135 105.148 C 123.597 104.643,122.575 103.744,121.863 103.150 C 119.776 101.409,119.532 101.145,119.532 100.627 C 119.532 100.356,119.058 99.615,118.478 98.980 C 117.075 97.444,117.028 96.732,116.920 75.068 L 116.832 57.426 116.013 57.310 C 115.562 57.246,114.936 56.800,114.621 56.319 L 114.049 55.446 63.325 55.446 L 12.601 55.446 12.590 56.796 " stroke="none" fill="#1158b3" fill-rule="evenodd"></path><path id="path4" d="M200.442 102.511 C 200.532 154.447,200.446 151.754,202.033 152.072 C 202.648 152.195,247.482 152.255,301.665 152.206 L 400.180 152.117 301.541 151.936 L 202.902 151.755 202.446 150.855 C 202.087 150.145,201.981 140.234,201.943 103.870 C 201.894 57.270,201.861 55.716,200.897 55.531 C 200.423 55.439,200.370 60.931,200.442 102.511 M285.149 55.822 C 284.851 55.982,284.325 56.201,283.978 56.308 C 283.632 56.415,283.348 56.739,283.348 57.027 C 283.348 57.603,285.250 56.875,285.717 56.119 C 286.032 55.609,285.783 55.479,285.149 55.822 M387.603 56.263 C 387.220 57.599,387.948 59.285,389.025 59.555 C 390.130 59.833,391.719 59.214,391.719 58.506 C 391.719 58.009,391.624 58.011,390.837 58.527 C 390.318 58.867,389.651 59.009,389.217 58.872 C 388.512 58.648,388.293 58.154,388.015 56.166 L 387.889 55.266 387.603 56.263 M243.975 56.347 C 244.078 56.616,244.635 57.000,245.213 57.202 L 246.265 57.568 246.351 75.679 L 246.438 93.789 246.535 75.852 C 246.588 65.986,246.490 57.661,246.317 57.352 C 245.888 56.585,243.707 55.650,243.975 56.347 M397.685 65.372 C 396.651 66.406,397.004 67.954,398.446 68.713 C 399.510 69.273,400.000 69.233,400.000 68.587 C 400.000 68.290,399.745 68.047,399.434 68.047 C 398.288 68.047,397.875 67.208,398.403 65.953 C 398.922 64.720,398.599 64.459,397.685 65.372 M246.636 95.163 C 246.619 95.603,247.401 96.980,247.900 97.390 C 248.141 97.588,248.444 98.203,248.573 98.757 C 248.702 99.312,249.390 100.365,250.102 101.098 L 251.397 102.430 250.286 101.085 C 249.675 100.345,249.002 99.095,248.789 98.306 C 248.577 97.518,248.191 96.747,247.932 96.592 C 247.673 96.437,247.278 95.986,247.054 95.590 C 246.830 95.194,246.642 95.002,246.636 95.163 M282.657 95.846 C 282.641 96.184,282.274 96.792,281.840 97.196 C 281.407 97.599,281.241 97.930,281.472 97.930 C 282.052 97.930,283.097 96.256,282.871 95.691 C 282.752 95.396,282.675 95.452,282.657 95.846 M259.046 107.651 C 259.404 108.047,259.834 108.371,260.002 108.371 C 260.169 108.371,259.982 108.047,259.586 107.651 C 259.190 107.255,258.760 106.931,258.630 106.931 C 258.500 106.931,258.687 107.255,259.046 107.651 M270.234 107.672 C 269.853 108.056,269.691 108.366,269.874 108.359 C 270.298 108.345,271.467 107.465,271.467 107.161 C 271.467 106.743,270.938 106.963,270.234 107.672 " stroke="none" fill="#1f2cf7" fill-rule="evenodd"></path><path id="path5" d="M282.628 56.547 C 282.628 56.955,282.790 57.188,282.988 57.066 C 283.186 56.943,283.348 56.610,283.348 56.324 C 283.348 56.039,283.186 55.806,282.988 55.806 C 282.790 55.806,282.628 56.139,282.628 56.547 M246.265 56.504 C 246.265 56.691,246.427 56.943,246.625 57.066 C 246.855 57.208,247.016 63.555,247.071 74.639 L 247.157 91.989 247.261 74.887 C 247.318 65.482,247.276 57.421,247.168 56.976 C 246.977 56.191,246.265 55.819,246.265 56.504 M282.355 75.529 C 282.283 90.613,282.178 93.856,281.730 94.971 C 281.258 96.144,281.258 96.224,281.725 95.617 C 282.614 94.464,282.658 93.353,282.548 75.068 L 282.441 57.426 282.355 75.529 M247.369 93.609 C 247.368 93.906,247.606 94.464,247.896 94.848 C 248.569 95.738,248.561 95.153,247.885 93.969 C 247.586 93.447,247.370 93.296,247.369 93.609 M249.002 97.334 C 249.299 98.206,249.971 99.304,250.496 99.774 L 251.451 100.630 250.508 99.469 C 249.990 98.830,249.459 97.819,249.328 97.222 C 249.197 96.626,248.948 96.051,248.776 95.944 C 248.603 95.837,248.705 96.463,249.002 97.334 M279.069 100.053 C 277.993 101.517,277.965 101.605,278.832 100.810 C 279.372 100.315,279.974 99.613,280.170 99.249 C 280.849 97.989,280.282 98.403,279.069 100.053 M251.317 101.012 C 251.302 101.507,253.375 103.626,254.339 104.101 C 254.750 104.303,254.570 104.048,253.941 103.534 C 253.312 103.019,252.466 102.155,252.062 101.614 C 251.658 101.073,251.323 100.802,251.317 101.012 M256.258 105.401 C 256.724 105.846,257.299 106.206,257.536 106.200 C 257.772 106.194,257.642 106.009,257.246 105.789 C 256.850 105.570,256.275 105.210,255.968 104.990 C 255.661 104.770,255.792 104.955,256.258 105.401 M259.046 106.571 C 259.442 106.741,260.009 106.880,260.306 106.880 C 260.646 106.880,260.580 106.766,260.126 106.571 C 259.730 106.400,259.163 106.261,258.866 106.261 C 258.525 106.261,258.592 106.376,259.046 106.571 M269.847 106.571 C 269.393 106.766,269.327 106.880,269.667 106.880 C 269.964 106.880,270.531 106.741,270.927 106.571 C 271.381 106.376,271.448 106.261,271.107 106.261 C 270.810 106.261,270.243 106.400,269.847 106.571 M262.286 107.651 C 264.172 108.523,269.784 108.008,268.826 107.050 C 268.738 106.962,267.810 107.170,266.763 107.513 C 264.977 108.097,264.756 108.098,263.165 107.533 C 260.944 106.744,260.467 106.808,262.286 107.651 " stroke="none" fill="#5e39d0" fill-rule="evenodd"></path><path id="path6" d="M243.865 55.709 C 244.174 56.209,246.265 56.941,246.265 56.549 C 246.265 56.384,245.981 56.168,245.635 56.068 C 245.288 55.969,244.694 55.760,244.315 55.605 C 243.858 55.418,243.707 55.453,243.865 55.709 M283.798 55.684 C 283.551 55.784,283.348 55.992,283.348 56.146 C 283.348 56.510,285.100 56.176,285.355 55.763 C 285.562 55.428,284.559 55.377,283.798 55.684 M388.119 56.680 C 388.119 58.682,389.425 59.571,390.840 58.534 C 391.490 58.057,391.451 58.026,390.279 58.084 C 389.070 58.143,389.014 58.091,388.907 56.796 C 388.767 55.105,388.119 55.010,388.119 56.680 M200.267 104.308 C 200.182 151.048,200.193 151.917,200.876 152.283 C 201.353 152.538,232.949 152.627,300.876 152.567 L 400.180 152.479 300.750 152.297 C 246.064 152.197,201.185 151.980,201.020 151.815 C 200.855 151.650,200.638 130.183,200.537 104.110 L 200.353 56.706 200.267 104.308 M398.403 65.953 C 398.005 66.901,398.003 67.182,398.395 67.573 C 399.392 68.571,400.000 68.137,400.000 66.427 C 400.000 64.449,399.142 64.195,398.403 65.953 " stroke="none" fill="#3440f1" fill-rule="evenodd"></path><path id="path7" d="M282.191 55.896 C 282.148 55.945,282.024 64.491,281.914 74.887 L 281.715 93.789 280.641 96.214 C 278.594 100.839,273.635 105.460,270.087 106.048 C 269.361 106.169,267.840 106.566,266.706 106.932 C 264.709 107.577,264.593 107.577,262.926 106.940 C 261.980 106.578,260.396 106.095,259.406 105.866 C 258.416 105.637,257.220 105.175,256.748 104.840 C 256.276 104.505,255.605 104.062,255.256 103.856 C 253.264 102.681,250.384 98.865,249.459 96.176 C 249.079 95.072,248.610 94.011,248.417 93.817 C 248.197 93.598,248.060 86.744,248.052 75.626 C 248.043 62.324,247.928 57.586,247.602 56.999 C 247.255 56.375,247.185 60.014,247.264 74.546 L 247.364 92.880 248.384 95.135 C 248.945 96.375,249.492 97.646,249.599 97.958 C 250.431 100.372,255.929 105.594,258.146 106.075 C 258.641 106.183,260.360 106.683,261.967 107.188 L 264.888 108.106 267.907 107.193 C 269.568 106.690,271.335 106.189,271.834 106.079 C 272.333 105.969,273.062 105.581,273.455 105.217 C 273.847 104.852,274.815 104.182,275.608 103.727 C 277.389 102.703,279.659 99.642,281.123 96.290 L 282.232 93.751 282.340 74.778 C 282.400 64.343,282.408 55.805,282.358 55.805 C 282.309 55.806,282.233 55.846,282.191 55.896 " stroke="none" fill="#8636a9" fill-rule="evenodd"></path><path id="path8" d="M11.521 56.662 C 11.521 58.243,10.844 58.821,9.561 58.334 C 8.300 57.854,8.317 57.849,8.380 58.686 C 8.454 59.665,11.371 59.736,12.100 58.776 C 12.783 57.876,12.755 55.446,12.061 55.446 C 11.688 55.446,11.521 55.821,11.521 56.662 M114.576 56.248 C 115.063 56.981,117.015 57.829,117.009 57.305 C 117.007 57.173,116.342 56.705,115.531 56.265 L 114.056 55.464 114.576 56.248 M154.933 56.005 C 153.654 56.565,153.193 57.091,153.705 57.407 C 153.892 57.523,154.147 57.453,154.272 57.252 C 154.396 57.050,154.773 56.886,155.110 56.886 C 155.447 56.886,155.925 56.562,156.172 56.166 C 156.690 55.337,156.511 55.313,154.933 56.005 M116.760 60.486 C 116.760 61.575,116.827 62.021,116.910 61.476 C 116.992 60.932,116.992 60.041,116.910 59.496 C 116.827 58.951,116.760 59.397,116.760 60.486 M1.440 66.067 C 1.440 67.087,1.303 67.327,0.720 67.327 C 0.240 67.327,0.000 67.567,0.000 68.047 C 0.000 68.942,1.475 69.041,2.315 68.201 C 3.064 67.452,3.061 65.313,2.311 65.025 C 1.453 64.696,1.440 64.712,1.440 66.067 M151.935 96.850 C 151.539 97.246,151.234 97.934,151.257 98.380 C 151.295 99.112,151.315 99.121,151.473 98.470 C 151.569 98.074,151.983 97.385,152.394 96.940 C 153.318 95.937,152.925 95.860,151.935 96.850 M119.892 101.527 C 119.892 101.727,120.048 101.890,120.238 101.890 C 120.428 101.890,120.914 102.245,121.318 102.678 C 122.005 103.415,122.360 103.224,121.777 102.430 C 121.329 101.821,119.892 101.132,119.892 101.527 M99.280 151.846 C 33.171 151.906,-0.000 152.057,-0.000 152.298 C -0.000 152.539,33.375 152.657,100.090 152.653 C 165.866 152.650,200.180 152.526,200.180 152.291 C 200.180 152.096,200.031 151.935,199.849 151.935 C 199.668 151.935,199.303 151.895,199.039 151.845 C 198.776 151.796,153.884 151.796,99.280 151.846 " stroke="none" fill="#3670ba" fill-rule="evenodd"></path><path id="path9" d="M152.655 74.368 C 152.655 91.772,152.519 94.076,151.379 95.950 C 151.138 96.346,150.846 97.079,150.731 97.580 C 150.616 98.080,149.806 99.412,148.931 100.539 C 143.587 107.421,134.211 109.493,126.672 105.458 C 124.665 104.384,120.749 100.303,119.438 97.919 L 118.146 95.569 118.029 76.527 C 117.953 64.257,117.784 57.443,117.552 57.365 C 117.313 57.286,117.252 63.845,117.372 76.804 L 117.552 96.363 118.542 97.859 C 119.086 98.681,119.532 99.515,119.532 99.711 C 119.532 100.192,122.946 103.690,123.415 103.690 C 123.621 103.690,124.194 104.172,124.689 104.761 C 125.185 105.350,126.293 106.099,127.151 106.425 C 128.010 106.752,129.409 107.341,130.260 107.735 C 132.608 108.822,138.409 108.517,141.006 107.171 C 142.025 106.643,143.104 106.211,143.403 106.211 C 143.915 106.211,146.202 104.543,147.795 103.008 C 149.285 101.572,150.746 99.513,151.000 98.492 C 151.145 97.910,151.593 96.970,151.996 96.404 C 152.429 95.797,152.857 94.385,153.041 92.962 C 153.490 89.480,153.467 56.886,153.015 56.886 C 152.780 56.886,152.655 62.953,152.655 74.368 " stroke="none" fill="#766398" fill-rule="evenodd"></path><path id="path10" d="M283.816 53.359 C 282.919 54.495,282.897 55.914,283.780 55.677 C 284.236 55.555,284.895 55.453,285.244 55.450 C 285.728 55.447,285.860 55.187,285.798 54.365 C 285.752 53.771,285.601 53.285,285.461 53.285 C 285.322 53.285,284.977 53.197,284.696 53.089 C 284.414 52.981,284.018 53.102,283.816 53.359 M244.824 55.806 C 245.532 56.263,246.625 56.263,246.625 55.806 C 246.625 55.608,246.098 55.448,245.455 55.451 C 244.567 55.455,244.415 55.541,244.824 55.806 M388.907 56.796 C 389.002 57.938,389.158 58.159,389.919 58.232 C 390.752 58.312,390.763 58.294,390.067 57.995 C 389.474 57.740,389.349 57.435,389.477 56.559 C 389.581 55.854,389.486 55.446,389.218 55.446 C 388.950 55.446,388.836 55.939,388.907 56.796 M153.542 74.167 C 153.542 83.573,153.588 87.421,153.645 82.718 C 153.702 78.015,153.702 70.320,153.645 65.617 C 153.588 60.914,153.542 64.761,153.542 74.167 M117.179 76.508 C 117.179 87.003,117.225 91.244,117.282 85.933 C 117.338 80.622,117.338 72.035,117.281 66.851 C 117.225 61.667,117.179 66.013,117.179 76.508 M153.081 92.889 C 153.042 93.780,152.778 94.955,152.494 95.500 C 151.951 96.541,152.269 96.849,152.990 95.980 C 153.246 95.672,153.361 94.638,153.282 93.370 C 153.167 91.524,153.143 91.466,153.081 92.889 M117.395 96.456 C 117.382 96.932,117.793 97.874,118.308 98.550 C 119.440 100.033,119.925 99.854,118.854 98.348 C 118.437 97.764,117.944 96.904,117.757 96.437 L 117.417 95.590 117.395 96.456 M149.520 101.033 C 147.798 103.265,144.878 105.747,143.394 106.239 C 142.481 106.543,142.504 106.555,143.654 106.385 C 144.408 106.273,145.310 105.777,145.898 105.150 C 146.439 104.574,147.201 104.002,147.590 103.878 C 147.979 103.755,148.391 103.362,148.504 103.005 C 148.617 102.648,149.193 101.926,149.782 101.400 C 150.372 100.875,150.855 100.284,150.855 100.087 C 150.855 99.476,150.561 99.684,149.520 101.033 M119.532 100.556 C 119.532 100.959,120.946 102.092,121.115 101.825 C 121.156 101.762,120.816 101.351,120.360 100.913 C 119.901 100.471,119.532 100.312,119.532 100.556 M122.052 103.291 C 122.052 103.437,122.619 103.827,123.312 104.158 C 124.005 104.488,124.572 105.002,124.572 105.300 C 124.572 105.816,126.732 106.963,127.587 106.901 C 127.810 106.885,127.440 106.631,126.765 106.337 C 126.090 106.042,125.236 105.417,124.866 104.948 C 124.174 104.068,122.052 102.819,122.052 103.291 M128.533 107.248 C 128.533 108.821,138.870 109.442,140.637 107.976 C 141.528 107.236,141.160 106.897,140.170 107.546 C 138.062 108.927,131.969 108.639,128.803 107.010 C 128.654 106.933,128.533 107.041,128.533 107.248 M251.244 152.925 C 278.636 152.976,323.353 152.976,350.614 152.925 C 377.875 152.874,355.464 152.833,300.810 152.833 C 246.157 152.833,223.852 152.874,251.244 152.925 " stroke="none" fill="#535de7" fill-rule="evenodd"></path><path id="path11" d="M281.767 55.295 C 281.646 55.608,281.548 64.223,281.548 74.439 C 281.548 90.881,281.483 93.085,280.978 93.643 C 280.664 93.989,280.129 95.173,279.789 96.274 C 279.061 98.626,275.842 102.521,273.841 103.470 C 273.142 103.802,272.444 104.285,272.289 104.543 C 272.134 104.801,270.549 105.298,268.767 105.646 C 266.985 105.994,265.338 106.433,265.109 106.622 C 264.858 106.828,264.609 106.834,264.487 106.636 C 264.375 106.454,262.861 106.013,261.124 105.655 C 259.081 105.234,257.607 104.709,256.948 104.167 C 256.388 103.707,255.781 103.330,255.598 103.330 C 255.186 103.330,252.385 100.478,252.385 100.059 C 252.385 99.892,251.912 99.216,251.333 98.556 C 249.058 95.966,248.785 93.360,248.785 74.280 C 248.785 61.524,248.675 57.152,248.335 56.420 C 247.746 55.153,247.178 55.164,247.552 56.436 C 247.711 56.980,247.895 65.514,247.960 75.399 C 248.033 86.511,248.214 93.535,248.433 93.800 C 248.629 94.035,249.095 95.117,249.469 96.205 C 250.385 98.869,253.273 102.686,255.256 103.856 C 255.605 104.062,256.276 104.505,256.748 104.840 C 257.220 105.175,258.416 105.637,259.406 105.866 C 260.396 106.095,261.980 106.578,262.926 106.940 C 264.593 107.577,264.709 107.577,266.706 106.932 C 267.840 106.566,269.361 106.169,270.087 106.048 C 273.636 105.459,278.598 100.835,280.639 96.214 L 281.709 93.789 281.899 74.707 C 282.003 64.212,282.219 55.423,282.379 55.176 C 282.541 54.927,282.518 54.725,282.328 54.725 C 282.139 54.725,281.887 54.982,281.767 55.295 " stroke="none" fill="#ae428f" fill-rule="evenodd"></path><path id="path12" d="M244.075 53.216 C 244.059 53.353,243.972 53.911,243.882 54.455 C 243.730 55.384,243.801 55.446,245.031 55.446 C 246.234 55.446,246.640 54.261,245.744 53.365 C 245.495 53.116,244.101 52.992,244.075 53.216 M389.482 56.528 C 389.289 57.839,389.396 57.966,390.699 57.966 C 391.913 57.966,392.098 56.980,391.061 56.041 C 390.100 55.172,389.661 55.307,389.482 56.528 M200.823 153.080 C 201.163 153.215,246.157 153.297,300.810 153.263 C 355.464 153.229,391.269 153.160,380.378 153.109 C 331.549 152.880,200.267 152.859,200.823 153.080 " stroke="none" fill="#6770e1" fill-rule="evenodd"></path><path id="path13" d="M152.567 56.226 C 152.662 56.589,152.882 56.886,153.057 56.886 C 153.232 56.886,153.375 56.589,153.375 56.226 C 153.375 55.863,153.155 55.566,152.885 55.566 C 152.586 55.566,152.462 55.824,152.567 56.226 M117.372 56.684 C 117.372 56.970,117.534 57.303,117.732 57.426 C 117.930 57.548,118.092 57.315,118.092 56.907 C 118.092 56.499,117.930 56.166,117.732 56.166 C 117.534 56.166,117.372 56.399,117.372 56.684 M117.815 60.486 C 117.815 61.179,117.889 61.463,117.980 61.116 C 118.071 60.770,118.071 60.203,117.980 59.856 C 117.889 59.509,117.815 59.793,117.815 60.486 M150.315 97.570 C 150.180 97.996,150.150 98.425,150.249 98.524 C 150.348 98.623,150.540 98.356,150.675 97.930 C 150.810 97.504,150.840 97.074,150.741 96.975 C 150.642 96.876,150.450 97.144,150.315 97.570 " stroke="none" fill="#96779f" fill-rule="evenodd"></path><path id="path14" d="M246.069 54.275 C 246.341 55.384,247.345 56.635,247.345 55.865 C 247.345 55.301,246.323 53.285,246.036 53.285 C 245.921 53.285,245.936 53.731,246.069 54.275 M283.076 53.735 C 282.599 54.332,282.077 56.105,282.519 55.626 C 282.898 55.216,283.760 53.285,283.565 53.285 C 283.494 53.285,283.274 53.488,283.076 53.735 " stroke="none" fill="#9266d6" fill-rule="evenodd"></path><path id="path15" d="M11.252 56.706 C 11.256 57.498,11.330 57.779,11.416 57.332 C 11.502 56.884,11.499 56.236,11.408 55.891 C 11.318 55.547,11.248 55.914,11.252 56.706 M114.491 55.604 C 114.491 55.849,116.515 56.886,116.994 56.886 C 117.202 56.886,117.372 56.724,117.372 56.526 C 117.372 56.328,117.037 56.166,116.628 56.166 C 116.219 56.166,115.571 55.998,115.188 55.793 C 114.805 55.588,114.491 55.503,114.491 55.604 M0.000 66.067 C 0.000 67.087,0.137 67.327,0.720 67.327 C 1.303 67.327,1.440 67.087,1.440 66.067 C 1.440 65.047,1.303 64.806,0.720 64.806 C 0.137 64.806,0.000 65.047,0.000 66.067 M199.100 152.835 C 199.595 153.118,200.324 153.343,200.720 153.335 C 201.192 153.326,201.005 153.153,200.180 152.835 C 198.514 152.194,197.978 152.194,199.100 152.835 M49.055 152.925 C 76.134 152.976,120.446 152.976,147.525 152.925 C 174.604 152.874,152.448 152.833,98.290 152.833 C 44.131 152.833,21.976 152.874,49.055 152.925 " stroke="none" fill="#7783b7" fill-rule="evenodd"></path><path id="path16" d="M246.694 54.221 C 247.101 54.912,247.499 55.411,247.579 55.331 C 247.866 55.045,247.029 53.379,246.497 53.175 C 246.080 53.015,246.125 53.258,246.694 54.221 M151.665 56.780 C 151.327 57.508,151.210 61.789,151.194 73.969 C 151.182 82.890,151.022 90.999,150.837 91.989 C 150.191 95.464,150.057 97.874,150.567 96.850 C 150.814 96.355,151.115 95.869,151.236 95.770 C 152.323 94.884,152.453 92.816,152.574 74.437 C 152.693 56.330,152.611 54.743,151.665 56.780 M118.097 75.735 L 118.092 95.124 119.442 97.696 C 123.082 104.631,132.573 109.432,138.085 107.129 C 138.772 106.842,139.334 106.713,139.334 106.841 C 139.334 106.970,139.528 106.880,139.766 106.643 C 140.004 106.405,140.534 106.211,140.944 106.211 C 142.419 106.211,146.242 103.570,148.213 101.190 C 151.051 97.764,150.540 97.316,147.471 100.540 C 146.010 102.075,144.634 103.330,144.414 103.330 C 144.194 103.330,143.651 103.694,143.207 104.138 C 140.568 106.777,129.313 106.678,126.600 103.993 C 126.032 103.430,125.439 102.970,125.282 102.970 C 124.640 102.970,120.983 98.995,120.755 98.049 C 120.620 97.489,120.127 96.335,119.661 95.487 L 118.812 93.944 118.806 75.685 C 118.803 64.518,118.665 57.216,118.452 56.886 C 118.224 56.533,118.101 63.084,118.097 75.735 " stroke="none" fill="#b06a89" fill-rule="evenodd"></path><path id="path17" d="M281.647 53.681 C 279.810 54.858,279.752 55.496,279.750 74.783 C 279.748 94.382,279.516 97.729,278.134 98.076 C 277.587 98.213,277.248 98.639,277.101 99.371 C 276.957 100.095,276.576 100.579,275.969 100.810 C 275.466 101.001,274.899 101.565,274.710 102.064 C 274.465 102.708,274.097 102.970,273.439 102.970 C 272.881 102.970,272.183 103.354,271.682 103.936 C 270.111 105.763,260.137 105.781,258.317 103.960 C 257.773 103.416,256.985 102.968,256.567 102.965 C 255.547 102.957,255.053 102.592,254.750 101.621 C 254.611 101.176,254.119 100.717,253.656 100.600 C 253.057 100.450,252.750 100.048,252.593 99.209 C 252.471 98.560,252.032 97.723,251.617 97.349 C 250.108 95.990,250.074 95.549,249.876 74.926 L 249.685 54.983 248.336 54.130 L 246.987 53.276 247.580 54.811 C 247.906 55.655,248.311 56.500,248.479 56.688 C 248.647 56.876,248.785 64.711,248.785 74.100 C 248.785 93.379,249.054 95.961,251.333 98.556 C 251.912 99.216,252.385 99.892,252.385 100.059 C 252.385 100.478,255.186 103.330,255.598 103.330 C 255.781 103.330,256.388 103.707,256.948 104.167 C 257.607 104.709,259.081 105.234,261.124 105.655 C 262.861 106.013,264.375 106.454,264.487 106.636 C 264.609 106.834,264.858 106.828,265.109 106.622 C 265.338 106.433,266.985 105.994,268.767 105.646 C 270.549 105.298,272.134 104.801,272.289 104.543 C 272.444 104.285,273.142 103.802,273.841 103.470 C 275.842 102.521,279.061 98.626,279.789 96.274 C 280.129 95.173,280.660 93.994,280.969 93.653 C 281.459 93.111,281.542 90.627,281.629 73.908 L 281.728 54.783 282.601 53.854 C 283.650 52.738,283.237 52.663,281.647 53.681 " stroke="none" fill="#e1536d" fill-rule="evenodd"></path><path id="path18" d="M154.095 54.520 L 154.095 56.115 155.224 55.792 C 156.639 55.386,156.851 55.176,156.350 54.676 C 156.131 54.457,156.031 54.071,156.128 53.818 C 156.225 53.565,156.132 53.251,155.920 53.120 C 155.709 52.990,155.536 53.054,155.536 53.264 C 155.536 53.474,155.364 53.645,155.154 53.645 C 154.945 53.645,154.873 53.483,154.995 53.285 C 155.118 53.087,154.965 52.925,154.657 52.925 C 154.233 52.925,154.095 53.316,154.095 54.520 M9.453 56.120 C 9.594 56.659,9.476 56.757,8.865 56.607 C 8.445 56.504,8.227 56.556,8.381 56.723 C 8.649 57.012,9.393 57.242,10.335 57.327 C 10.574 57.348,10.703 57.474,10.621 57.606 C 10.539 57.738,9.939 57.791,9.287 57.723 C 8.327 57.624,8.238 57.665,8.821 57.938 C 10.505 58.727,11.161 58.432,11.161 56.886 C 11.161 55.572,11.078 55.446,10.219 55.446 C 9.475 55.446,9.314 55.588,9.453 56.120 " stroke="none" fill="#5599dd" fill-rule="evenodd"></path><path id="path19" d="" stroke="none" fill="#ff3333" fill-rule="evenodd"></path><path id="path20" d="M152.907 54.341 C 152.301 55.368,152.486 56.008,153.247 55.512 C 153.719 55.204,154.213 53.285,153.820 53.285 C 153.661 53.285,153.250 53.760,152.907 54.341 " stroke="none" fill="#ab8fad" fill-rule="evenodd"></path><path id="path21" d="M8.670 55.951 C 8.272 56.430,8.275 56.530,8.687 56.553 C 8.959 56.568,9.464 56.635,9.810 56.701 C 10.515 56.836,10.997 56.329,10.472 56.005 C 10.284 55.889,10.011 55.988,9.864 56.226 C 9.675 56.531,9.531 56.470,9.372 56.017 C 9.167 55.434,9.104 55.428,8.670 55.951 M115.212 55.806 C 115.921 56.264,116.755 56.264,116.472 55.806 C 116.349 55.608,115.894 55.448,115.460 55.451 C 114.819 55.456,114.772 55.522,115.212 55.806 M8.281 57.226 C 8.281 57.592,10.415 57.939,10.621 57.606 C 10.703 57.474,10.574 57.352,10.335 57.335 C 10.096 57.318,9.536 57.219,9.091 57.115 C 8.645 57.012,8.281 57.061,8.281 57.226 M100.090 153.430 C 296.805 154.015,400.000 154.122,400.000 153.741 C 400.000 153.495,383.563 153.375,349.865 153.375 C 322.291 153.375,232.331 153.321,149.955 153.254 C 5.797 153.138,3.927 153.144,100.090 153.430 " stroke="none" fill="#7e9ec7" fill-rule="evenodd"></path><path id="path22" d="M256.995 3.142 C 256.906 4.528,256.723 4.924,256.007 5.279 C 254.715 5.920,252.385 8.014,252.385 8.534 C 252.385 9.298,250.667 10.175,249.506 10.004 C 248.246 9.819,248.140 10.157,249.145 11.161 C 250.673 12.689,249.603 16.805,247.539 17.342 C 246.825 17.528,246.382 17.475,246.195 17.181 C 246.041 16.939,245.916 24.842,245.916 34.743 L 245.917 52.745 247.801 53.841 L 249.685 54.936 249.876 74.903 C 250.074 95.550,250.108 95.990,251.617 97.349 C 252.032 97.723,252.471 98.560,252.593 99.209 C 252.750 100.048,253.057 100.450,253.656 100.600 C 254.119 100.717,254.611 101.176,254.750 101.621 C 255.053 102.592,255.547 102.957,256.567 102.965 C 256.985 102.968,257.773 103.416,258.317 103.960 C 260.137 105.781,270.111 105.763,271.682 103.936 C 272.183 103.354,272.881 102.970,273.439 102.970 C 274.097 102.970,274.465 102.708,274.710 102.064 C 274.899 101.565,275.466 101.001,275.969 100.810 C 276.576 100.579,276.957 100.095,277.101 99.371 C 277.248 98.639,277.587 98.213,278.134 98.076 C 279.513 97.730,279.746 94.379,279.768 74.603 C 279.791 54.445,279.767 54.660,282.161 53.487 L 283.675 52.745 283.686 33.483 C 283.692 22.889,283.578 14.383,283.433 14.581 C 282.314 16.105,279.444 13.604,279.404 11.071 C 279.395 10.527,279.092 9.785,278.730 9.423 C 278.369 9.062,277.967 8.491,277.838 8.155 C 277.710 7.819,277.317 7.434,276.967 7.300 C 276.616 7.165,275.985 6.724,275.564 6.318 C 275.143 5.912,274.292 5.305,273.673 4.967 C 272.744 4.461,272.547 4.134,272.547 3.098 C 272.547 1.757,271.961 1.034,271.611 1.944 C 271.061 3.379,259.610 3.657,258.221 2.268 C 257.126 1.173,257.122 1.175,256.995 3.142 " stroke="none" fill="#ff5e5b" fill-rule="evenodd"></path><path id="path23" d="M114.851 53.585 C 113.966 54.569,114.209 55.215,115.569 55.493 C 117.103 55.807,117.036 55.876,116.773 54.257 C 116.536 52.796,115.795 52.537,114.851 53.585 M10.261 153.639 C 34.480 153.858,203.071 153.895,201.260 153.681 C 200.171 153.552,154.401 153.468,99.550 153.495 C 44.698 153.522,4.518 153.587,10.261 153.639 M289.491 187.148 C 288.911 187.551,287.504 187.841,285.351 188.002 C 281.480 188.290,278.983 188.798,277.863 189.525 C 277.415 189.816,276.257 190.321,275.290 190.647 C 274.323 190.973,273.196 191.553,272.785 191.936 C 272.374 192.319,271.394 192.805,270.607 193.017 C 269.820 193.229,268.664 193.793,268.038 194.271 C 267.411 194.749,266.646 195.140,266.337 195.140 C 266.028 195.140,265.096 195.707,264.266 196.400 C 263.437 197.093,262.593 197.660,262.391 197.660 C 261.935 197.660,255.974 203.634,255.103 204.963 C 254.476 205.920,254.483 205.955,255.496 207.179 C 256.062 207.863,257.012 209.067,257.606 209.854 C 258.200 210.641,259.044 211.483,259.481 211.726 C 259.919 211.969,260.606 212.868,261.009 213.726 C 261.412 214.583,262.443 216.017,263.301 216.912 L 264.860 218.539 266.454 217.196 C 267.330 216.457,268.259 215.567,268.517 215.217 C 268.776 214.867,269.202 214.581,269.465 214.581 C 269.727 214.581,270.346 214.055,270.839 213.411 C 271.408 212.670,272.314 212.066,273.312 211.763 C 274.179 211.500,275.133 211.064,275.433 210.794 C 277.554 208.885,281.933 207.309,286.583 206.781 C 287.669 206.658,288.981 206.244,289.499 205.862 C 290.821 204.884,300.496 205.019,301.612 206.031 C 302.107 206.480,302.912 206.661,304.413 206.661 C 306.488 206.661,308.399 207.087,309.811 207.866 C 310.207 208.085,311.405 208.713,312.472 209.262 C 314.625 210.370,317.334 212.946,317.734 214.266 C 317.876 214.737,318.364 215.527,318.819 216.022 C 321.093 218.500,320.989 225.509,318.632 228.571 C 314.805 233.544,312.766 234.915,308.371 235.470 C 306.589 235.696,304.531 236.191,303.799 236.572 C 302.584 237.203,301.637 237.264,292.971 237.264 L 283.474 237.264 282.666 238.124 C 281.502 239.363,281.609 254.975,282.787 255.835 C 283.349 256.246,285.391 256.346,293.228 256.348 C 303.622 256.351,307.044 256.678,308.474 257.802 C 308.966 258.189,309.803 258.506,310.334 258.506 C 313.944 258.506,319.688 262.787,320.238 265.887 C 320.378 266.679,320.884 267.842,321.362 268.473 C 322.651 270.170,322.665 275.933,321.384 277.470 C 320.918 278.030,320.339 279.093,320.098 279.832 C 319.603 281.350,314.332 286.949,313.398 286.949 C 312.666 286.949,311.460 287.569,310.506 288.436 C 309.561 289.294,305.941 289.835,299.550 290.074 C 295.306 290.232,292.559 290.068,285.187 289.212 C 284.318 289.111,282.868 288.560,281.967 287.988 C 281.065 287.417,280.010 286.949,279.621 286.949 C 279.233 286.949,278.415 286.570,277.802 286.107 C 277.189 285.644,275.931 284.979,275.007 284.629 C 274.083 284.279,272.463 283.231,271.407 282.300 C 270.351 281.369,268.935 280.383,268.260 280.110 C 267.585 279.837,266.529 279.063,265.913 278.391 C 264.295 276.626,260.221 279.078,258.692 282.737 C 258.418 283.394,257.777 284.244,257.269 284.626 C 256.761 285.007,256.346 285.524,256.346 285.774 C 256.346 286.024,256.224 286.229,256.076 286.229 C 255.927 286.229,255.360 286.613,254.815 287.081 C 252.269 289.271,254.711 294.725,259.111 296.675 C 259.938 297.042,260.775 297.641,260.970 298.005 C 261.436 298.876,265.043 301.350,265.847 301.350 C 266.594 301.350,267.904 302.009,268.407 302.639 C 268.605 302.887,269.503 303.333,270.402 303.630 C 271.301 303.928,272.824 304.589,273.786 305.101 C 274.748 305.612,276.046 306.031,276.671 306.031 C 277.295 306.031,278.608 306.421,279.587 306.897 C 284.597 309.336,312.089 309.445,315.487 307.039 C 316.034 306.652,317.453 306.197,318.641 306.029 C 319.829 305.861,321.325 305.401,321.966 305.007 C 322.608 304.613,323.861 304.002,324.752 303.650 C 326.662 302.894,329.436 300.968,330.038 299.979 C 330.271 299.595,330.919 299.169,331.478 299.032 C 332.936 298.674,335.842 295.713,336.797 293.609 C 337.247 292.619,338.287 291.053,339.108 290.130 C 340.240 288.857,340.687 287.986,340.955 286.529 C 341.352 284.380,342.343 281.908,342.809 281.908 C 343.558 281.908,343.154 269.332,342.371 268.273 C 341.963 267.720,341.504 266.349,341.351 265.226 C 341.160 263.813,340.723 262.694,339.934 261.596 C 339.307 260.723,338.794 259.898,338.794 259.764 C 338.794 259.384,330.978 251.665,330.594 251.665 C 330.406 251.665,329.636 251.175,328.883 250.577 C 328.129 249.978,327.095 249.388,326.583 249.264 C 326.071 249.141,325.213 248.732,324.675 248.357 C 324.137 247.981,322.888 247.433,321.900 247.140 C 319.087 246.304,319.437 244.464,322.408 244.464 C 323.055 244.464,323.796 244.210,324.054 243.898 C 324.313 243.587,325.134 243.021,325.879 242.640 C 326.624 242.260,327.364 241.717,327.523 241.432 C 327.683 241.148,328.542 240.602,329.433 240.219 C 331.307 239.412,338.394 232.179,338.931 230.525 C 339.110 229.974,339.544 229.112,339.896 228.609 C 341.963 225.652,341.976 212.133,339.914 209.237 C 339.522 208.687,339.086 207.761,338.945 207.179 C 338.804 206.597,338.391 205.694,338.026 205.172 C 337.662 204.650,337.048 203.516,336.663 202.652 C 336.278 201.787,335.251 200.351,334.380 199.460 C 330.670 195.663,327.618 192.979,327.011 192.979 C 326.653 192.979,325.796 192.601,325.106 192.138 C 323.616 191.138,321.752 190.459,320.497 190.459 C 319.997 190.459,318.551 189.953,317.282 189.335 C 315.516 188.475,314.279 188.157,312.010 187.981 C 310.136 187.835,308.695 187.520,308.091 187.124 C 306.673 186.195,290.831 186.215,289.491 187.148 M58.667 189.702 L 57.606 190.764 57.606 197.749 C 57.606 204.586,57.624 204.752,58.439 205.518 L 59.272 206.301 88.232 206.306 C 118.355 206.311,118.367 206.312,119.291 207.792 C 119.564 208.231,119.506 208.539,119.065 208.979 C 118.738 209.306,118.307 210.174,118.106 210.907 C 117.905 211.641,117.439 212.731,117.071 213.330 C 116.703 213.929,116.190 215.063,115.931 215.850 C 115.673 216.638,114.527 219.145,113.385 221.422 C 112.242 223.699,111.194 226.211,111.055 227.003 C 110.916 227.795,110.447 228.929,110.014 229.523 C 109.581 230.117,109.016 231.170,108.758 231.863 C 108.500 232.556,107.989 233.771,107.624 234.563 C 107.259 235.356,106.552 236.895,106.054 237.984 C 105.556 239.073,104.997 240.207,104.810 240.504 C 104.624 240.801,104.113 241.935,103.676 243.024 C 103.238 244.113,102.721 245.106,102.527 245.229 C 102.333 245.353,102.030 246.226,101.854 247.169 C 101.678 248.112,101.314 249.307,101.046 249.825 C 100.778 250.342,100.304 251.251,99.994 251.845 C 99.071 253.609,97.324 257.490,96.684 259.196 C 96.356 260.071,95.773 261.186,95.388 261.675 C 95.004 262.163,94.689 262.781,94.689 263.047 C 94.689 263.313,94.203 264.429,93.609 265.527 C 93.015 266.625,92.528 267.722,92.527 267.965 C 92.523 268.979,91.742 271.106,90.941 272.286 C 90.469 272.981,89.976 274.037,89.846 274.632 C 89.715 275.227,89.136 276.339,88.558 277.101 C 87.981 277.864,87.504 278.687,87.499 278.930 C 87.493 279.173,86.922 280.583,86.229 282.064 C 85.536 283.544,84.968 284.827,84.968 284.915 C 84.968 285.281,81.653 291.993,81.394 292.153 C 81.238 292.250,80.901 293.320,80.643 294.531 C 80.386 295.743,79.788 297.305,79.315 298.003 C 78.841 298.701,78.155 300.057,77.791 301.017 C 77.426 301.977,76.867 303.022,76.548 303.341 C 75.725 304.165,75.450 305.578,75.914 306.597 L 76.312 307.471 85.976 307.471 L 95.640 307.471 96.730 306.481 C 97.330 305.936,98.115 304.709,98.474 303.754 C 98.834 302.799,99.396 301.665,99.724 301.234 C 100.053 300.803,100.529 299.478,100.784 298.290 C 101.038 297.102,101.609 295.644,102.054 295.050 C 102.498 294.455,103.070 293.321,103.326 292.529 C 103.581 291.737,104.092 290.659,104.460 290.133 C 104.829 289.608,105.131 288.933,105.131 288.633 C 105.131 288.334,105.668 287.063,106.324 285.808 C 106.981 284.554,107.738 282.961,108.007 282.268 C 108.276 281.575,108.794 280.576,109.158 280.047 C 109.521 279.519,109.982 278.226,110.181 277.175 C 110.380 276.124,110.923 274.691,111.386 273.991 C 111.849 273.291,112.355 272.315,112.509 271.822 C 112.663 271.330,113.253 270.054,113.820 268.986 C 114.387 267.919,114.851 266.849,114.851 266.608 C 114.851 266.367,115.833 264.255,117.033 261.914 C 118.233 259.572,119.365 256.869,119.547 255.905 C 119.730 254.942,120.337 253.472,120.897 252.639 C 121.456 251.806,122.134 250.434,122.403 249.590 C 122.671 248.745,123.107 247.875,123.372 247.656 C 123.636 247.436,123.852 247.021,123.852 246.732 C 123.852 246.101,126.567 240.118,127.665 238.328 C 128.096 237.627,128.659 236.111,128.916 234.961 C 129.174 233.810,129.828 232.197,130.371 231.376 C 130.913 230.555,131.464 229.397,131.595 228.803 C 131.965 227.118,132.550 225.743,132.897 225.743 C 133.071 225.743,133.213 225.571,133.213 225.360 C 133.213 225.150,133.776 223.813,134.464 222.390 C 135.152 220.967,135.961 218.842,136.261 217.668 C 136.562 216.495,137.114 215.199,137.489 214.788 C 137.864 214.377,138.290 213.636,138.436 213.141 C 138.763 212.027,140.428 208.311,141.961 205.275 L 143.114 202.989 143.114 196.382 C 143.114 191.441,142.996 189.657,142.646 189.307 C 142.269 188.930,134.188 188.820,100.953 188.740 L 59.728 188.641 58.667 189.702 " stroke="none" fill="#a7a9ac" fill-rule="evenodd"></path><path id="path24" d="M127.628 2.558 C 127.803 3.935,126.488 5.451,125.315 5.225 C 124.837 5.133,124.392 5.339,124.117 5.780 C 123.876 6.165,123.478 6.481,123.233 6.481 C 122.987 6.481,122.677 6.926,122.544 7.471 C 122.411 8.015,121.922 8.919,121.457 9.479 C 120.992 10.038,120.612 10.802,120.612 11.175 C 120.612 12.347,119.151 13.403,117.822 13.192 L 116.652 13.007 116.652 32.853 C 116.652 52.302,116.666 52.714,117.383 53.477 C 118.491 54.657,118.551 55.666,118.693 75.516 L 118.825 93.967 119.667 95.498 C 120.130 96.341,120.620 97.489,120.755 98.049 C 120.983 98.995,124.640 102.970,125.282 102.970 C 125.439 102.970,126.032 103.430,126.600 103.993 C 129.313 106.678,140.568 106.777,143.207 104.138 C 143.651 103.694,144.194 103.330,144.414 103.330 C 145.743 103.330,150.047 97.799,150.270 95.805 C 150.394 94.697,150.648 92.979,150.834 91.989 C 151.020 90.999,151.182 82.876,151.194 73.939 C 151.212 60.254,151.300 57.525,151.753 56.657 C 152.370 55.475,152.459 53.953,151.942 53.436 C 151.723 53.217,151.550 46.299,151.487 35.272 C 151.396 19.351,151.317 17.226,150.736 15.241 C 150.074 12.981,150.490 10.801,151.584 10.801 C 151.777 10.801,151.935 10.481,151.935 10.089 C 151.935 9.460,151.830 9.424,151.035 9.786 C 149.875 10.315,148.487 9.728,147.912 8.466 C 147.685 7.968,147.387 7.561,147.250 7.561 C 147.113 7.561,146.493 7.075,145.871 6.481 C 145.250 5.887,144.506 5.401,144.218 5.401 C 143.425 5.401,142.579 3.954,142.538 2.530 C 142.507 1.407,142.473 1.365,142.252 2.160 L 142.001 3.060 135.722 2.995 C 129.851 2.934,129.405 2.881,128.841 2.185 C 127.970 1.109,127.465 1.265,127.628 2.558 M256.346 2.628 C 256.346 4.484,253.832 5.696,253.231 4.130 C 252.844 3.121,250.585 4.337,250.585 5.555 C 250.585 5.866,250.747 6.121,250.945 6.121 C 251.508 6.121,251.367 8.141,250.770 8.637 C 250.455 8.898,249.849 8.985,249.300 8.847 C 248.533 8.654,248.388 8.727,248.489 9.257 C 248.741 10.585,252.385 9.909,252.385 8.534 C 252.385 8.014,254.715 5.920,256.007 5.279 C 256.940 4.816,257.572 1.440,256.725 1.440 C 256.517 1.440,256.346 1.975,256.346 2.628 M257.786 1.784 C 257.786 3.563,270.938 3.699,271.618 1.926 C 271.787 1.486,271.694 1.428,271.201 1.664 C 270.852 1.832,268.901 1.917,266.864 1.854 C 264.683 1.787,262.439 1.925,261.403 2.191 C 259.865 2.585,259.528 2.565,258.715 2.032 C 258.204 1.698,257.786 1.586,257.786 1.784 M272.489 2.921 C 272.604 4.126,272.833 4.512,273.715 4.991 C 274.311 5.315,275.143 5.912,275.564 6.318 C 275.985 6.724,276.616 7.165,276.967 7.300 C 277.317 7.434,277.710 7.819,277.838 8.155 C 277.967 8.491,278.369 9.062,278.730 9.423 C 279.092 9.785,279.395 10.527,279.404 11.071 C 279.431 12.821,280.922 14.941,282.124 14.941 C 283.414 14.941,283.704 14.571,283.674 12.961 C 283.662 12.268,283.570 11.904,283.470 12.151 C 283.161 12.916,281.285 12.682,280.668 11.801 C 279.957 10.786,279.947 9.222,280.648 8.641 C 281.756 7.722,281.038 6.121,279.519 6.121 C 278.873 6.121,278.691 5.888,278.601 4.950 L 278.488 3.780 276.148 3.780 L 273.807 3.780 273.695 2.610 C 273.615 1.789,273.398 1.440,272.965 1.440 C 272.460 1.440,272.374 1.708,272.489 2.921 M121.816 4.156 C 121.699 4.462,121.704 4.813,121.828 4.936 C 121.951 5.059,122.052 4.971,122.052 4.740 C 122.052 4.509,122.224 4.320,122.433 4.320 C 122.643 4.320,122.699 4.507,122.558 4.736 C 122.402 4.988,122.459 5.054,122.701 4.905 C 123.148 4.628,122.881 3.600,122.362 3.600 C 122.179 3.600,121.934 3.850,121.816 4.156 M248.637 11.701 C 249.019 13.225,248.537 14.418,247.609 14.245 C 247.166 14.162,246.695 14.083,246.561 14.068 C 246.427 14.053,246.243 13.758,246.153 13.411 C 246.062 13.065,245.972 13.672,245.952 14.761 C 245.906 17.277,246.166 17.700,247.539 17.342 C 249.362 16.868,250.517 13.412,249.492 11.497 C 248.956 10.496,248.370 10.635,248.637 11.701 M153.375 35.284 C 153.375 46.805,153.500 52.925,153.735 52.925 C 153.970 52.925,154.095 46.805,154.095 35.284 C 154.095 23.762,153.970 17.642,153.735 17.642 C 153.500 17.642,153.375 23.762,153.375 35.284 " stroke="none" fill="#ff7876" fill-rule="evenodd"></path><path id="path25" d="M116.652 53.777 C 116.652 54.596,117.299 55.806,117.737 55.806 C 117.930 55.806,117.895 55.379,117.656 54.815 C 117.075 53.448,116.652 53.011,116.652 53.777 " stroke="none" fill="#cd9cb0" fill-rule="evenodd"></path><path id="path26" d="M132.853 0.691 C 132.853 1.518,131.245 1.979,129.613 1.620 C 129.000 1.486,128.533 1.532,128.533 1.727 C 128.533 3.236,141.933 3.773,142.146 2.273 C 142.250 1.544,142.181 1.515,141.201 1.885 C 139.844 2.397,137.894 1.685,137.894 0.676 C 137.894 0.079,137.600 0.000,135.374 0.000 C 133.128 0.000,132.853 0.075,132.853 0.691 M261.026 0.720 C 261.026 1.472,260.825 1.548,259.046 1.468 C 257.998 1.421,257.987 1.436,258.686 1.995 C 259.225 2.427,259.723 2.500,260.666 2.286 C 261.359 2.128,263.870 1.995,266.247 1.990 C 270.817 1.980,271.467 1.819,271.467 0.699 C 271.467 0.039,271.174 0.000,266.247 0.000 C 261.266 0.000,261.026 0.033,261.026 0.720 M123.824 3.027 C 123.808 3.838,123.714 4.298,123.614 4.050 C 123.514 3.803,123.266 3.600,123.064 3.600 C 122.861 3.600,122.787 3.838,122.898 4.129 C 123.010 4.420,122.921 4.769,122.701 4.905 C 122.459 5.054,122.402 4.988,122.558 4.736 C 122.699 4.507,122.657 4.320,122.463 4.320 C 122.270 4.320,122.016 4.523,121.898 4.770 C 121.780 5.018,121.752 4.856,121.835 4.410 C 121.917 3.964,121.838 3.690,121.659 3.801 C 121.194 4.088,121.255 5.179,121.764 5.689 C 122.100 6.025,121.869 6.121,120.723 6.121 C 118.984 6.121,118.481 7.135,119.214 9.162 C 119.824 10.848,119.455 11.521,117.923 11.521 C 116.324 11.521,116.060 12.799,117.579 13.180 C 118.953 13.525,120.200 12.693,120.613 11.156 C 120.809 10.430,121.275 9.558,121.649 9.220 C 122.023 8.881,122.425 8.126,122.542 7.542 C 122.659 6.958,122.962 6.481,123.217 6.481 C 123.471 6.481,123.876 6.165,124.117 5.780 C 124.380 5.358,124.841 5.134,125.272 5.217 C 126.683 5.488,128.139 3.428,127.575 1.959 C 127.430 1.580,126.871 1.448,125.612 1.492 L 123.852 1.554 123.824 3.027 M142.574 2.620 C 142.574 3.951,143.431 5.401,144.218 5.401 C 144.506 5.401,145.250 5.887,145.871 6.481 C 146.493 7.075,147.113 7.561,147.250 7.561 C 147.387 7.561,147.685 7.968,147.912 8.466 C 148.494 9.744,149.875 10.315,151.068 9.772 C 151.995 9.349,152.051 8.969,151.593 6.189 C 151.583 6.128,151.410 6.180,151.209 6.304 C 151.008 6.429,150.947 6.698,151.074 6.903 C 151.200 7.108,150.888 7.003,150.380 6.670 C 149.773 6.272,149.418 5.674,149.346 4.923 C 149.217 3.600,148.222 3.262,146.527 3.964 C 144.939 4.621,144.014 4.147,144.014 2.676 C 144.014 1.680,143.875 1.440,143.294 1.440 C 142.721 1.440,142.574 1.680,142.574 2.620 M254.418 1.974 C 254.305 2.268,254.004 2.456,253.749 2.393 C 253.494 2.330,253.414 2.348,253.570 2.434 C 253.727 2.520,253.669 2.815,253.440 3.091 C 252.437 4.299,254.771 5.391,255.914 4.248 C 256.755 3.407,256.455 1.440,255.484 1.440 C 255.010 1.440,254.530 1.680,254.418 1.974 M273.695 2.610 C 273.790 3.599,273.968 3.799,274.841 3.899 C 276.162 4.049,276.609 3.591,276.309 2.392 C 275.905 0.786,273.538 0.983,273.695 2.610 M250.956 3.946 C 250.664 4.131,250.552 4.407,250.705 4.560 C 250.859 4.714,251.097 4.666,251.235 4.454 C 251.372 4.242,251.728 3.976,252.025 3.863 C 252.505 3.680,252.505 3.655,252.025 3.634 C 251.728 3.622,251.247 3.762,250.956 3.946 M248.425 7.374 C 248.425 8.784,249.740 9.492,250.770 8.637 C 251.984 7.629,251.442 6.121,249.865 6.121 C 248.461 6.121,248.425 6.152,248.425 7.374 M280.540 8.713 C 279.937 9.315,280.001 10.848,280.668 11.801 C 281.306 12.711,283.154 12.906,283.465 12.096 C 283.742 11.376,283.401 11.161,281.982 11.161 L 280.736 11.161 280.966 9.721 C 281.217 8.151,281.183 8.070,280.540 8.713 M150.660 11.911 C 150.129 12.936,150.135 13.191,150.734 15.241 C 151.307 17.201,151.405 19.552,151.577 35.284 C 151.775 53.344,151.921 55.420,152.894 54.031 C 153.315 53.430,153.398 50.254,153.382 35.474 C 153.369 23.606,153.485 17.642,153.729 17.642 C 153.942 17.642,154.095 16.613,154.095 15.189 C 154.095 11.567,151.914 9.486,150.660 11.911 M246.140 11.600 C 245.916 12.455,246.192 14.024,246.574 14.068 C 246.701 14.083,247.166 14.162,247.609 14.245 C 248.537 14.418,249.019 13.225,248.637 11.701 C 248.329 10.474,246.454 10.398,246.140 11.600 M117.298 54.158 C 117.919 55.528,118.506 55.912,118.202 54.749 C 118.102 54.366,117.726 53.786,117.367 53.461 C 116.739 52.893,116.737 52.919,117.298 54.158 " stroke="none" fill="#ff918e" fill-rule="evenodd"></path><path id="path27" d="M99.550 153.978 L 198.920 154.101 199.550 155.207 C 200.146 156.254,200.180 161.826,200.180 258.175 L 200.180 360.036 293.249 360.036 C 370.299 360.036,386.319 359.954,386.319 359.559 C 386.319 358.814,387.790 357.688,389.442 357.170 C 390.269 356.910,391.454 356.234,392.075 355.667 C 392.696 355.100,393.441 354.635,393.731 354.635 C 394.020 354.635,394.422 354.201,394.624 353.671 C 394.826 353.140,395.361 352.335,395.813 351.883 C 396.266 351.431,396.854 350.366,397.121 349.518 C 397.651 347.831,398.772 346.355,399.523 346.355 C 399.918 346.355,400.000 329.816,400.000 250.225 L 400.000 154.095 349.655 154.095 C 321.965 154.095,232.006 154.041,149.745 153.975 C 67.484 153.909,44.896 153.910,99.550 153.978 M308.091 187.124 C 308.695 187.520,310.136 187.835,312.010 187.981 C 314.279 188.157,315.516 188.475,317.282 189.335 C 318.551 189.953,319.997 190.459,320.497 190.459 C 321.752 190.459,323.616 191.138,325.106 192.138 C 325.796 192.601,326.653 192.979,327.011 192.979 C 327.618 192.979,330.670 195.663,334.380 199.460 C 335.251 200.351,336.278 201.787,336.663 202.652 C 337.048 203.516,337.662 204.650,338.026 205.172 C 338.391 205.694,338.804 206.597,338.945 207.179 C 339.086 207.761,339.522 208.687,339.914 209.237 C 341.976 212.133,341.963 225.652,339.896 228.609 C 339.544 229.112,339.110 229.974,338.931 230.525 C 338.394 232.179,331.307 239.412,329.433 240.219 C 328.542 240.602,327.683 241.148,327.523 241.432 C 327.364 241.717,326.624 242.260,325.879 242.640 C 325.134 243.021,324.313 243.587,324.054 243.898 C 323.796 244.210,323.055 244.464,322.408 244.464 C 319.437 244.464,319.087 246.304,321.900 247.140 C 322.888 247.433,324.137 247.981,324.675 248.357 C 325.213 248.732,326.071 249.141,326.583 249.264 C 327.095 249.388,328.129 249.978,328.883 250.577 C 329.636 251.175,330.406 251.665,330.594 251.665 C 330.978 251.665,338.794 259.384,338.794 259.764 C 338.794 259.898,339.307 260.723,339.934 261.596 C 340.723 262.694,341.160 263.813,341.351 265.226 C 341.504 266.349,341.963 267.720,342.371 268.273 C 343.154 269.332,343.558 281.908,342.809 281.908 C 342.343 281.908,341.352 284.380,340.955 286.529 C 340.687 287.986,340.240 288.857,339.108 290.130 C 338.287 291.053,337.247 292.619,336.797 293.609 C 335.842 295.713,332.936 298.674,331.478 299.032 C 330.919 299.169,330.271 299.595,330.038 299.979 C 329.436 300.968,326.662 302.894,324.752 303.650 C 323.861 304.002,322.608 304.613,321.966 305.007 C 321.325 305.401,319.829 305.861,318.641 306.029 C 317.453 306.197,316.034 306.652,315.487 307.039 C 312.089 309.445,284.597 309.336,279.587 306.897 C 278.608 306.421,277.295 306.031,276.671 306.031 C 276.046 306.031,274.748 305.612,273.786 305.101 C 272.824 304.589,271.301 303.928,270.402 303.630 C 269.503 303.333,268.605 302.887,268.407 302.639 C 267.904 302.009,266.594 301.350,265.847 301.350 C 265.043 301.350,261.436 298.876,260.970 298.005 C 260.775 297.641,259.938 297.042,259.111 296.675 C 254.711 294.725,252.269 289.271,254.815 287.081 C 255.360 286.613,255.927 286.229,256.076 286.229 C 256.224 286.229,256.346 286.024,256.346 285.774 C 256.346 285.524,256.761 285.007,257.269 284.626 C 257.777 284.244,258.418 283.394,258.692 282.737 C 260.221 279.078,264.295 276.626,265.913 278.391 C 266.529 279.063,267.585 279.837,268.260 280.110 C 268.935 280.383,270.351 281.369,271.407 282.300 C 272.463 283.231,274.083 284.279,275.007 284.629 C 275.931 284.979,277.189 285.644,277.802 286.107 C 278.415 286.570,279.233 286.949,279.621 286.949 C 280.010 286.949,281.065 287.417,281.967 287.988 C 282.868 288.560,284.318 289.111,285.187 289.212 C 292.559 290.068,295.306 290.232,299.550 290.074 C 305.941 289.835,309.561 289.294,310.506 288.436 C 311.460 287.569,312.666 286.949,313.398 286.949 C 314.332 286.949,319.603 281.350,320.098 279.832 C 320.339 279.093,320.918 278.030,321.384 277.470 C 322.665 275.933,322.651 270.170,321.362 268.473 C 320.884 267.842,320.378 266.679,320.238 265.887 C 319.688 262.787,313.944 258.506,310.334 258.506 C 309.803 258.506,308.966 258.189,308.474 257.802 C 307.044 256.678,303.622 256.351,293.228 256.348 C 285.391 256.346,283.349 256.246,282.787 255.835 C 281.609 254.975,281.502 239.363,282.666 238.124 L 283.474 237.264 292.971 237.264 C 301.637 237.264,302.584 237.203,303.799 236.572 C 304.531 236.191,306.589 235.696,308.371 235.470 C 312.766 234.915,314.805 233.544,318.632 228.571 C 320.989 225.509,321.093 218.500,318.819 216.022 C 318.364 215.527,317.876 214.737,317.734 214.266 C 317.334 212.946,314.625 210.370,312.472 209.262 C 311.405 208.713,310.207 208.085,309.811 207.866 C 308.399 207.087,306.488 206.661,304.413 206.661 C 302.912 206.661,302.107 206.480,301.612 206.031 C 300.496 205.019,290.821 204.884,289.499 205.862 C 288.981 206.244,287.669 206.658,286.583 206.781 C 281.933 207.309,277.554 208.885,275.433 210.794 C 275.133 211.064,274.179 211.500,273.312 211.763 C 272.314 212.066,271.408 212.670,270.839 213.411 C 270.346 214.055,269.727 214.581,269.465 214.581 C 269.202 214.581,268.776 214.867,268.517 215.217 C 268.259 215.567,267.330 216.457,266.454 217.196 L 264.860 218.539 263.301 216.912 C 262.443 216.017,261.412 214.583,261.009 213.726 C 260.606 212.868,259.919 211.969,259.481 211.726 C 259.044 211.483,258.200 210.641,257.606 209.854 C 257.012 209.067,256.062 207.863,255.496 207.179 C 254.483 205.955,254.476 205.920,255.103 204.963 C 255.974 203.634,261.935 197.660,262.391 197.660 C 262.593 197.660,263.437 197.093,264.266 196.400 C 265.096 195.707,266.028 195.140,266.337 195.140 C 266.646 195.140,267.411 194.749,268.038 194.271 C 268.664 193.793,269.820 193.229,270.607 193.017 C 271.394 192.805,272.374 192.319,272.785 191.936 C 273.196 191.553,274.323 190.973,275.290 190.647 C 276.257 190.321,277.415 189.816,277.863 189.525 C 278.983 188.798,281.480 188.290,285.351 188.002 C 287.504 187.841,288.911 187.551,289.491 187.148 C 290.831 186.215,306.673 186.195,308.091 187.124 M58.343 187.581 C 56.203 188.091,56.166 188.270,56.166 197.865 C 56.166 205.524,56.237 206.632,56.761 207.067 C 57.251 207.473,62.625 207.593,87.154 207.741 C 103.543 207.840,117.038 208.006,117.142 208.111 C 117.561 208.530,116.701 210.899,115.805 211.795 C 115.106 212.494,114.851 213.116,114.851 214.125 C 114.851 215.147,114.577 215.801,113.787 216.667 C 113.201 217.308,112.611 218.438,112.475 219.177 C 112.340 219.917,111.791 221.025,111.257 221.640 C 110.511 222.498,110.229 223.291,110.045 225.048 C 109.893 226.503,109.610 227.447,109.268 227.638 C 108.571 228.028,107.651 229.817,107.651 230.782 C 107.651 231.196,107.239 231.948,106.735 232.451 C 106.168 233.019,105.690 234.052,105.478 235.170 C 105.290 236.162,104.736 237.448,104.247 238.029 C 103.759 238.610,103.256 239.688,103.130 240.425 C 102.997 241.198,102.524 242.083,102.011 242.518 C 101.337 243.088,101.017 243.877,100.695 245.769 C 100.447 247.224,99.954 248.668,99.511 249.229 C 99.094 249.758,98.545 250.934,98.291 251.843 C 98.036 252.751,97.550 253.643,97.210 253.825 C 96.871 254.007,96.325 255.111,95.997 256.278 C 95.670 257.446,95.086 258.687,94.701 259.035 C 94.316 259.384,93.895 260.374,93.766 261.235 C 93.617 262.228,93.165 263.184,92.531 263.848 C 91.757 264.657,91.473 265.391,91.276 267.084 C 91.103 268.576,90.761 269.577,90.201 270.228 C 89.749 270.754,89.181 271.847,88.939 272.657 C 88.696 273.466,88.123 274.624,87.666 275.228 C 87.209 275.833,86.653 277.011,86.431 277.846 C 86.209 278.681,85.813 279.491,85.550 279.646 C 84.831 280.071,84.248 281.374,84.248 282.555 C 84.248 283.184,83.813 284.157,83.168 284.968 C 82.565 285.728,82.088 286.761,82.088 287.309 C 82.088 287.856,81.713 288.671,81.241 289.150 C 80.012 290.397,79.569 291.402,79.563 292.956 C 79.557 294.325,79.390 294.728,77.859 297.059 C 77.414 297.736,77.050 298.631,77.049 299.047 C 77.048 299.464,76.630 300.255,76.121 300.805 C 75.077 301.931,74.527 303.164,74.527 304.378 C 74.527 304.830,74.203 305.492,73.807 305.851 C 72.932 306.643,72.883 307.573,73.683 308.237 C 74.160 308.633,76.587 308.731,85.955 308.731 L 97.632 308.731 98.448 307.782 C 98.897 307.260,99.369 306.184,99.495 305.391 C 99.624 304.588,99.973 303.854,100.284 303.735 C 101.067 303.434,101.890 301.288,101.890 299.545 C 101.890 298.503,102.125 297.842,102.700 297.266 C 103.705 296.260,104.410 294.751,104.410 293.605 C 104.410 293.110,104.714 292.572,105.113 292.359 C 105.522 292.139,106.084 291.119,106.458 289.916 C 106.812 288.779,107.390 287.531,107.744 287.142 C 108.097 286.754,108.488 285.800,108.613 285.023 C 108.737 284.246,109.290 283.096,109.842 282.467 C 110.576 281.632,110.962 280.650,111.274 278.826 C 111.523 277.367,111.967 276.073,112.341 275.716 C 112.693 275.380,113.247 274.306,113.571 273.328 C 113.896 272.351,114.476 271.267,114.861 270.919 C 115.276 270.543,115.654 269.577,115.792 268.542 C 115.954 267.319,116.332 266.474,117.057 265.715 C 117.681 265.062,118.093 264.239,118.095 263.640 C 118.097 263.059,118.599 262.017,119.304 261.131 C 120.231 259.965,120.556 259.155,120.715 257.613 C 120.857 256.232,121.193 255.286,121.796 254.570 C 122.277 253.999,122.855 252.795,123.082 251.896 C 123.309 250.996,123.713 250.131,123.981 249.972 C 124.709 249.542,125.293 248.246,125.293 247.058 C 125.293 246.439,125.720 245.466,126.328 244.700 C 126.898 243.983,127.548 242.665,127.774 241.770 C 127.999 240.876,128.339 240.144,128.529 240.144 C 129.112 240.144,129.861 238.264,130.092 236.218 C 130.223 235.065,130.592 233.964,130.998 233.518 C 131.924 232.499,132.493 231.340,132.493 230.474 C 132.493 230.080,132.875 229.300,133.341 228.740 C 133.807 228.181,134.394 226.860,134.644 225.805 C 134.894 224.750,135.327 223.800,135.606 223.692 C 136.385 223.394,136.778 222.414,137.137 219.881 C 137.382 218.149,137.699 217.329,138.391 216.637 C 138.940 216.088,139.415 215.103,139.556 214.217 C 139.698 213.332,140.073 212.553,140.478 212.303 C 140.854 212.071,141.417 210.990,141.729 209.901 C 142.041 208.812,142.606 207.582,142.984 207.168 C 144.900 205.072,145.498 189.982,143.734 188.219 L 142.914 187.399 101.250 187.342 C 78.335 187.311,59.027 187.418,58.343 187.581 M142.646 189.307 C 142.996 189.657,143.114 191.441,143.114 196.382 L 143.114 202.989 141.961 205.275 C 140.428 208.311,138.763 212.027,138.436 213.141 C 138.290 213.636,137.864 214.377,137.489 214.788 C 137.114 215.199,136.562 216.495,136.261 217.668 C 135.961 218.842,135.152 220.967,134.464 222.390 C 133.776 223.813,133.213 225.150,133.213 225.360 C 133.213 225.571,133.071 225.743,132.897 225.743 C 132.550 225.743,131.965 227.118,131.595 228.803 C 131.464 229.397,130.913 230.555,130.371 231.376 C 129.828 232.197,129.174 233.810,128.916 234.961 C 128.659 236.111,128.096 237.627,127.665 238.328 C 126.567 240.118,123.852 246.101,123.852 246.732 C 123.852 247.021,123.636 247.436,123.372 247.656 C 123.107 247.875,122.671 248.745,122.403 249.590 C 122.134 250.434,121.456 251.806,120.897 252.639 C 120.337 253.472,119.730 254.942,119.547 255.905 C 119.365 256.869,118.233 259.572,117.033 261.914 C 115.833 264.255,114.851 266.367,114.851 266.608 C 114.851 266.849,114.387 267.919,113.820 268.986 C 113.253 270.054,112.663 271.330,112.509 271.822 C 112.355 272.315,111.849 273.291,111.386 273.991 C 110.923 274.691,110.380 276.124,110.181 277.175 C 109.982 278.226,109.521 279.519,109.158 280.047 C 108.794 280.576,108.276 281.575,108.007 282.268 C 107.738 282.961,106.981 284.554,106.324 285.808 C 105.668 287.063,105.131 288.334,105.131 288.633 C 105.131 288.933,104.829 289.608,104.460 290.133 C 104.092 290.659,103.581 291.737,103.326 292.529 C 103.070 293.321,102.498 294.455,102.054 295.050 C 101.609 295.644,101.038 297.102,100.784 298.290 C 100.529 299.478,100.053 300.803,99.724 301.234 C 99.396 301.665,98.834 302.799,98.474 303.754 C 98.115 304.709,97.330 305.936,96.730 306.481 L 95.640 307.471 85.976 307.471 L 76.312 307.471 75.914 306.597 C 75.450 305.578,75.725 304.165,76.548 303.341 C 76.867 303.022,77.426 301.977,77.791 301.017 C 78.155 300.057,78.841 298.701,79.315 298.003 C 79.788 297.305,80.386 295.743,80.643 294.531 C 80.901 293.320,81.238 292.250,81.394 292.153 C 81.653 291.993,84.968 285.281,84.968 284.915 C 84.968 284.827,85.536 283.544,86.229 282.064 C 86.922 280.583,87.493 279.173,87.499 278.930 C 87.504 278.687,87.981 277.864,88.558 277.101 C 89.136 276.339,89.715 275.227,89.846 274.632 C 89.976 274.037,90.469 272.981,90.941 272.286 C 91.742 271.106,92.523 268.979,92.527 267.965 C 92.528 267.722,93.015 266.625,93.609 265.527 C 94.203 264.429,94.689 263.313,94.689 263.047 C 94.689 262.781,95.004 262.163,95.388 261.675 C 95.773 261.186,96.356 260.071,96.684 259.196 C 97.324 257.490,99.071 253.609,99.994 251.845 C 100.304 251.251,100.778 250.342,101.046 249.825 C 101.314 249.307,101.678 248.112,101.854 247.169 C 102.030 246.226,102.333 245.353,102.527 245.229 C 102.721 245.106,103.238 244.113,103.676 243.024 C 104.113 241.935,104.624 240.801,104.810 240.504 C 104.997 240.207,105.556 239.073,106.054 237.984 C 106.552 236.895,107.259 235.356,107.624 234.563 C 107.989 233.771,108.500 232.556,108.758 231.863 C 109.016 231.170,109.581 230.117,110.014 229.523 C 110.447 228.929,110.916 227.795,111.055 227.003 C 111.194 226.211,112.242 223.699,113.385 221.422 C 114.527 219.145,115.673 216.638,115.931 215.850 C 116.190 215.063,116.703 213.929,117.071 213.330 C 117.439 212.731,117.905 211.641,118.106 210.907 C 118.307 210.174,118.738 209.306,119.065 208.979 C 119.506 208.539,119.564 208.231,119.291 207.792 C 118.367 206.312,118.355 206.311,88.232 206.306 L 59.272 206.301 58.439 205.518 C 57.624 204.752,57.606 204.586,57.606 197.749 L 57.606 190.764 58.667 189.702 L 59.728 188.641 100.953 188.740 C 134.188 188.820,142.269 188.930,142.646 189.307 " stroke="none" fill="#bfc1c2" fill-rule="evenodd"></path><path id="path28" d="M128.533 0.691 C 128.533 1.518,130.141 1.979,131.773 1.620 C 133.947 1.143,133.186 0.000,130.693 0.000 C 128.803 0.000,128.533 0.086,128.533 0.691 M137.894 0.676 C 137.894 2.399,141.903 2.518,142.149 0.803 C 142.257 0.048,142.134 -0.000,140.079 -0.000 C 138.181 -0.000,137.894 0.089,137.894 0.676 M257.786 0.681 C 257.786 1.344,259.568 1.866,260.627 1.513 C 261.863 1.101,260.974 0.000,259.406 0.000 C 258.057 0.000,257.786 0.114,257.786 0.681 M144.014 2.676 C 144.014 4.022,144.822 4.570,146.175 4.140 C 147.730 3.647,147.142 1.440,145.455 1.440 C 144.054 1.440,144.014 1.474,144.014 2.676 M253.645 1.820 C 253.170 2.011,253.109 2.120,253.465 2.140 C 253.938 2.167,253.939 2.213,253.476 2.506 C 253.184 2.690,253.037 2.932,253.148 3.043 C 253.259 3.154,253.645 2.919,254.005 2.520 C 254.777 1.668,254.648 1.417,253.645 1.820 M149.805 6.222 C 149.887 6.279,150.212 6.519,150.525 6.757 C 150.983 7.104,151.095 7.084,151.095 6.655 C 151.095 6.361,150.772 6.121,150.375 6.121 C 149.979 6.121,149.722 6.166,149.805 6.222 M117.282 8.525 C 115.887 8.898,116.449 11.521,117.923 11.521 C 119.386 11.521,119.819 10.862,119.309 9.412 C 118.973 8.457,118.429 8.219,117.282 8.525 M281.055 9.091 C 280.599 10.791,280.764 11.079,282.268 11.223 C 283.666 11.356,283.708 11.328,283.708 10.253 C 283.708 8.320,281.519 7.361,281.055 9.091 M153.006 11.691 C 153.475 12.190,153.947 12.509,154.056 12.400 C 154.165 12.291,154.016 12.051,153.725 11.867 C 153.282 11.587,153.279 11.531,153.705 11.527 C 154.443 11.519,153.857 11.044,152.935 10.903 C 152.158 10.785,152.159 10.789,153.006 11.691 " stroke="none" fill="#ffb5b4" fill-rule="evenodd"></path><path id="path29" d="M0.000 251.305 C 0.000 345.553,0.020 348.515,0.664 348.515 C 1.505 348.515,2.337 349.430,3.051 351.138 C 3.359 351.874,3.768 352.475,3.962 352.475 C 4.155 352.475,4.680 353.040,5.127 353.731 C 5.575 354.422,6.138 354.989,6.380 354.991 C 6.621 354.993,7.178 355.482,7.618 356.076 C 8.057 356.670,8.697 357.156,9.041 357.156 C 9.840 357.156,11.881 358.861,11.881 359.528 C 11.881 359.964,25.218 360.036,106.031 360.036 L 200.180 360.036 200.180 258.175 C 200.180 161.826,200.146 156.254,199.550 155.207 L 198.920 154.100 99.460 154.098 L 0.000 154.095 0.000 251.305 M143.734 188.219 C 145.498 189.982,144.900 205.072,142.984 207.168 C 142.606 207.582,142.041 208.812,141.729 209.901 C 141.417 210.990,140.854 212.071,140.478 212.303 C 140.073 212.553,139.698 213.332,139.556 214.217 C 139.415 215.103,138.940 216.088,138.391 216.637 C 137.699 217.329,137.382 218.149,137.137 219.881 C 136.778 222.414,136.385 223.394,135.606 223.692 C 135.327 223.800,134.894 224.750,134.644 225.805 C 134.394 226.860,133.807 228.181,133.341 228.740 C 132.875 229.300,132.493 230.080,132.493 230.474 C 132.493 231.340,131.924 232.499,130.998 233.518 C 130.592 233.964,130.223 235.065,130.092 236.218 C 129.861 238.264,129.112 240.144,128.529 240.144 C 128.339 240.144,127.999 240.876,127.774 241.770 C 127.548 242.665,126.898 243.983,126.328 244.700 C 125.720 245.466,125.293 246.439,125.293 247.058 C 125.293 248.246,124.709 249.542,123.981 249.972 C 123.713 250.131,123.309 250.996,123.082 251.896 C 122.855 252.795,122.277 253.999,121.796 254.570 C 121.193 255.286,120.857 256.232,120.715 257.613 C 120.556 259.155,120.231 259.965,119.304 261.131 C 118.599 262.017,118.097 263.059,118.095 263.640 C 118.093 264.239,117.681 265.062,117.057 265.715 C 116.332 266.474,115.954 267.319,115.792 268.542 C 115.654 269.577,115.276 270.543,114.861 270.919 C 114.476 271.267,113.896 272.351,113.571 273.328 C 113.247 274.306,112.693 275.380,112.341 275.716 C 111.967 276.073,111.523 277.367,111.274 278.826 C 110.962 280.650,110.576 281.632,109.842 282.467 C 109.290 283.096,108.737 284.246,108.613 285.023 C 108.488 285.800,108.097 286.754,107.744 287.142 C 107.390 287.531,106.812 288.779,106.458 289.916 C 106.084 291.119,105.522 292.139,105.113 292.359 C 104.714 292.572,104.410 293.110,104.410 293.605 C 104.410 294.751,103.705 296.260,102.700 297.266 C 102.125 297.842,101.890 298.503,101.890 299.545 C 101.890 301.288,101.067 303.434,100.284 303.735 C 99.973 303.854,99.624 304.588,99.495 305.391 C 99.369 306.184,98.897 307.260,98.448 307.782 L 97.632 308.731 85.955 308.731 C 76.587 308.731,74.160 308.633,73.683 308.237 C 72.883 307.573,72.932 306.643,73.807 305.851 C 74.203 305.492,74.527 304.830,74.527 304.378 C 74.527 303.164,75.077 301.931,76.121 300.805 C 76.630 300.255,77.048 299.464,77.049 299.047 C 77.050 298.631,77.414 297.736,77.859 297.059 C 79.390 294.728,79.557 294.325,79.563 292.956 C 79.569 291.402,80.012 290.397,81.241 289.150 C 81.713 288.671,82.088 287.856,82.088 287.309 C 82.088 286.761,82.565 285.728,83.168 284.968 C 83.813 284.157,84.248 283.184,84.248 282.555 C 84.248 281.374,84.831 280.071,85.550 279.646 C 85.813 279.491,86.209 278.681,86.431 277.846 C 86.653 277.011,87.209 275.833,87.666 275.228 C 88.123 274.624,88.696 273.466,88.939 272.657 C 89.181 271.847,89.749 270.754,90.201 270.228 C 90.761 269.577,91.103 268.576,91.276 267.084 C 91.473 265.391,91.757 264.657,92.531 263.848 C 93.165 263.184,93.617 262.228,93.766 261.235 C 93.895 260.374,94.316 259.384,94.701 259.035 C 95.086 258.687,95.670 257.446,95.997 256.278 C 96.325 255.111,96.871 254.007,97.210 253.825 C 97.550 253.643,98.036 252.751,98.291 251.843 C 98.545 250.934,99.094 249.758,99.511 249.229 C 99.954 248.668,100.447 247.224,100.695 245.769 C 101.017 243.877,101.337 243.088,102.011 242.518 C 102.524 242.083,102.997 241.198,103.130 240.425 C 103.256 239.688,103.759 238.610,104.247 238.029 C 104.736 237.448,105.290 236.162,105.478 235.170 C 105.690 234.052,106.168 233.019,106.735 232.451 C 107.239 231.948,107.651 231.196,107.651 230.782 C 107.651 229.817,108.571 228.028,109.268 227.638 C 109.610 227.447,109.893 226.503,110.045 225.048 C 110.229 223.291,110.511 222.498,111.257 221.640 C 111.791 221.025,112.340 219.917,112.475 219.177 C 112.611 218.438,113.201 217.308,113.787 216.667 C 114.577 215.801,114.851 215.147,114.851 214.125 C 114.851 213.116,115.106 212.494,115.805 211.795 C 116.701 210.899,117.561 208.530,117.142 208.111 C 117.038 208.006,103.543 207.840,87.154 207.741 C 62.625 207.593,57.251 207.473,56.761 207.067 C 55.969 206.409,55.853 189.584,56.633 188.517 C 57.497 187.336,59.446 187.285,101.250 187.342 L 142.914 187.399 143.734 188.219 M398.326 347.165 C 397.930 347.610,397.388 348.669,397.121 349.518 C 396.854 350.366,396.266 351.431,395.813 351.883 C 395.361 352.335,394.826 353.140,394.624 353.671 C 394.422 354.201,394.020 354.635,393.731 354.635 C 393.441 354.635,392.696 355.100,392.075 355.667 C 391.454 356.234,390.269 356.910,389.442 357.170 C 386.541 358.081,385.269 360.036,387.579 360.036 C 388.558 360.036,388.839 359.890,388.839 359.380 C 388.839 358.966,389.413 358.437,390.394 357.947 C 393.431 356.430,396.394 353.467,397.911 350.430 C 398.401 349.449,398.930 348.875,399.344 348.875 C 399.854 348.875,400.000 348.594,400.000 347.615 C 400.000 346.134,399.388 345.970,398.326 347.165 " stroke="none" fill="#d1d3d4" fill-rule="evenodd"></path><path id="path30" d="" stroke="none" fill="#00ffff" fill-rule="evenodd"></path><path id="path31" d="M0.000 349.775 C 0.000 350.788,0.139 351.035,0.707 351.035 C 1.096 351.035,1.603 351.400,1.833 351.845 C 2.291 352.733,3.268 353.800,6.580 357.026 C 7.218 357.648,8.105 358.342,8.551 358.569 C 8.996 358.796,9.361 359.219,9.361 359.509 C 9.361 359.871,9.754 360.036,10.621 360.036 C 11.466 360.036,11.881 359.869,11.881 359.528 C 11.881 358.861,9.840 357.156,9.041 357.156 C 8.697 357.156,8.057 356.670,7.618 356.076 C 7.178 355.482,6.621 354.993,6.380 354.991 C 6.138 354.989,5.575 354.422,5.127 353.731 C 4.680 353.040,4.155 352.475,3.962 352.475 C 3.768 352.475,3.359 351.874,3.051 351.138 C 1.871 348.314,0.000 347.478,0.000 349.775 M397.911 350.430 C 396.860 352.533,395.287 354.406,392.936 356.353 C 392.394 356.802,391.250 357.519,390.394 357.947 C 388.499 358.893,388.239 360.036,389.919 360.036 C 390.738 360.036,390.999 359.872,390.999 359.355 C 390.999 358.930,391.335 358.590,391.895 358.449 C 392.387 358.326,393.064 357.807,393.398 357.297 C 393.732 356.787,394.385 356.226,394.849 356.049 C 395.313 355.873,395.837 355.349,396.013 354.885 C 396.190 354.421,396.751 353.768,397.261 353.434 C 397.771 353.100,398.290 352.423,398.413 351.931 C 398.553 351.371,398.894 351.035,399.319 351.035 C 399.836 351.035,400.000 350.774,400.000 349.955 C 400.000 348.275,398.857 348.535,397.911 350.430 " stroke="none" fill="#e6e7e8" fill-rule="evenodd"></path></g></svg>