<svg id="svg" version="1.1" width="400" height="360" viewBox="0 0 400 360" xmlns="http://www.w3.org/2000/svg" xmlns:xlink="http://www.w3.org/1999/xlink" ><g id="svgg"><path id="path0" d="M199.759 53.915 C 199.465 54.262,199.205 54.940,199.180 55.422 C 199.137 56.244,199.178 56.228,199.832 55.152 C 200.216 54.521,200.703 54.005,200.916 54.005 C 201.129 54.005,201.202 53.843,201.080 53.645 C 200.756 53.121,200.362 53.202,199.759 53.915 M389.559 53.559 C 389.559 53.927,391.022 54.823,391.250 54.594 C 391.549 54.296,390.976 53.617,390.614 53.841 C 390.430 53.955,390.279 53.876,390.279 53.667 C 390.279 53.457,390.117 53.285,389.919 53.285 C 389.721 53.285,389.559 53.408,389.559 53.559 M394.824 56.093 C 394.677 56.331,394.718 56.526,394.914 56.526 C 395.110 56.526,395.374 56.850,395.500 57.246 C 395.625 57.642,395.885 57.966,396.077 57.966 C 396.297 57.966,396.293 57.719,396.065 57.293 C 395.867 56.923,395.821 56.492,395.962 56.335 C 396.104 56.178,396.031 56.158,395.800 56.290 C 395.570 56.422,395.316 56.335,395.236 56.096 C 395.124 55.758,395.032 55.757,394.824 56.093 M396.542 58.387 C 396.367 58.670,396.478 58.733,396.881 58.578 C 397.257 58.434,397.480 58.529,397.480 58.833 C 397.480 59.100,397.701 59.501,397.971 59.725 C 398.359 60.048,398.453 59.979,398.421 59.396 C 398.358 58.274,397.047 57.570,396.542 58.387 M398.920 60.486 C 398.920 60.684,399.163 60.846,399.460 60.846 C 399.757 60.846,400.000 60.684,400.000 60.486 C 400.000 60.288,399.757 60.126,399.460 60.126 C 399.163 60.126,398.920 60.288,398.920 60.486 " stroke="none" fill="#000000" fill-rule="evenodd"></path><path id="path1" d="" stroke="none" fill="#555555" fill-rule="evenodd"></path><path id="path2" d="M153.415 54.405 C 153.194 55.042,153.075 55.625,153.152 55.702 C 153.229 55.779,153.474 55.322,153.695 54.685 C 153.917 54.049,154.036 53.466,153.959 53.389 C 153.882 53.312,153.637 53.769,153.415 54.405 " stroke="none" fill="#999999" fill-rule="evenodd"></path><path id="path3" d="M74.051 206.210 C 81.808 206.265,94.607 206.265,102.493 206.211 C 110.379 206.156,104.032 206.112,88.389 206.112 C 72.745 206.112,66.293 206.156,74.051 206.210 M81.120 307.380 C 83.854 307.441,88.229 307.441,90.841 307.380 C 93.453 307.318,91.215 307.268,85.869 307.268 C 80.522 307.268,78.385 307.319,81.120 307.380 M0.000 350.135 C 0.000 351.877,0.835 352.378,1.800 351.215 C 2.047 350.918,2.128 350.675,1.980 350.675 C 1.833 350.675,1.899 350.449,2.129 350.173 C 2.646 349.549,1.752 348.515,0.694 348.515 C 0.111 348.515,0.000 348.775,0.000 350.135 M398.554 352.447 C 398.425 353.092,398.099 353.355,397.300 353.459 C 396.706 353.536,396.155 353.783,396.076 354.007 C 395.891 354.534,394.498 355.927,393.971 356.112 C 393.747 356.191,393.500 356.737,393.422 357.326 C 393.322 358.088,393.030 358.467,392.410 358.641 C 391.775 358.818,392.009 358.894,393.273 358.920 C 395.441 358.965,396.400 358.476,396.400 357.323 C 396.400 356.620,396.584 356.436,397.287 356.436 C 398.465 356.436,398.986 355.376,398.843 353.273 C 398.767 352.158,398.668 351.875,398.554 352.447 M9.081 358.436 C 7.681 359.417,8.068 360.036,10.081 360.036 C 11.979 360.036,12.276 359.686,11.380 358.506 C 10.789 357.728,10.122 357.707,9.081 358.436 " stroke="none" fill="#e5e5e5" fill-rule="evenodd"></path><path id="path4" d="M306.391 191.539 C 306.391 191.737,306.755 191.897,307.201 191.894 C 307.856 191.889,307.907 191.821,307.471 191.539 C 306.773 191.088,306.391 191.088,306.391 191.539 M328.443 200.270 C 328.525 200.518,328.898 200.779,329.271 200.852 C 329.859 200.965,329.885 200.905,329.467 200.402 C 328.896 199.713,328.229 199.628,328.443 200.270 M263.546 208.708 C 263.546 209.375,264.602 210.508,264.615 209.855 C 264.621 209.533,264.383 209.067,264.086 208.821 C 263.789 208.574,263.546 208.524,263.546 208.708 M267.021 210.295 C 266.383 211.041,266.419 211.611,267.079 211.203 C 267.361 211.028,267.947 209.541,267.733 209.541 C 267.697 209.541,267.376 209.880,267.021 210.295 M322.978 214.470 C 323.059 215.405,323.622 216.198,323.647 215.413 C 323.661 214.979,323.510 214.524,323.312 214.401 C 323.114 214.279,322.964 214.310,322.978 214.470 M306.056 240.293 C 305.788 240.617,305.675 240.988,305.805 241.119 C 306.142 241.455,306.861 240.654,306.688 240.136 C 306.589 239.838,306.394 239.887,306.056 240.293 M316.472 247.984 C 316.472 248.599,316.631 249.201,316.826 249.322 C 317.048 249.459,317.096 249.095,316.955 248.353 C 316.651 246.761,316.472 246.624,316.472 247.984 M310.351 253.465 C 310.351 253.663,310.604 253.825,310.912 253.825 C 311.221 253.825,311.374 253.987,311.251 254.185 C 311.129 254.383,311.200 254.545,311.410 254.545 C 311.917 254.545,311.893 254.071,311.359 253.537 C 310.833 253.012,310.351 252.977,310.351 253.465 M326.290 254.168 C 326.320 254.563,326.535 254.960,326.768 255.049 C 327.036 255.152,327.124 254.955,327.008 254.513 C 326.756 253.546,326.224 253.291,326.290 254.168 M328.353 256.704 C 328.353 257.141,329.363 257.616,329.659 257.319 C 329.767 257.212,329.517 256.943,329.104 256.722 C 328.583 256.444,328.353 256.438,328.353 256.704 M318.441 257.442 C 318.323 257.634,318.520 257.896,318.879 258.024 C 319.238 258.152,319.653 258.322,319.802 258.403 C 320.303 258.673,320.077 258.310,319.364 257.700 C 318.953 257.348,318.567 257.240,318.441 257.442 M322.958 262.016 C 322.974 262.805,323.662 263.329,323.667 262.556 C 323.670 262.111,323.510 261.746,323.312 261.746 C 323.114 261.746,322.955 261.868,322.958 262.016 M324.551 265.538 C 325.461 266.226,326.047 266.219,325.473 265.527 C 325.226 265.230,324.761 264.992,324.438 264.998 C 323.946 265.008,323.964 265.094,324.551 265.538 M338.074 270.927 C 338.074 271.224,338.337 271.467,338.658 271.467 C 339.136 271.467,339.161 271.369,338.794 270.927 C 338.547 270.630,338.285 270.387,338.210 270.387 C 338.135 270.387,338.074 270.630,338.074 270.927 M323.354 283.229 C 323.331 283.460,323.207 283.946,323.079 284.309 C 322.899 284.821,322.946 284.876,323.293 284.557 C 323.539 284.330,323.662 283.844,323.568 283.477 C 323.473 283.109,323.377 282.998,323.354 283.229 M263.276 283.606 C 263.821 283.689,264.712 283.689,265.257 283.606 C 265.801 283.524,265.356 283.456,264.266 283.456 C 263.177 283.456,262.732 283.524,263.276 283.606 M271.107 288.029 C 271.107 288.227,271.472 288.386,271.917 288.383 C 272.572 288.379,272.624 288.311,272.187 288.029 C 271.489 287.578,271.107 287.578,271.107 288.029 M318.820 288.252 C 317.938 289.134,318.465 289.293,319.396 288.425 C 319.842 288.009,320.027 287.669,319.806 287.669 C 319.584 287.669,319.141 287.931,318.820 288.252 M333.633 288.629 C 333.094 289.168,333.369 289.937,333.933 289.469 C 334.230 289.222,334.473 288.879,334.473 288.705 C 334.473 288.332,333.975 288.287,333.633 288.629 M258.665 289.998 C 258.078 290.442,258.059 290.528,258.552 290.538 C 258.874 290.544,259.339 290.306,259.586 290.009 C 260.160 289.317,259.574 289.310,258.665 289.998 M258.312 291.247 C 258.618 291.741,259.911 291.957,259.730 291.484 C 259.640 291.251,259.244 291.037,258.849 291.007 C 258.454 290.977,258.212 291.085,258.312 291.247 M280.288 292.709 C 280.410 292.907,280.866 293.058,281.299 293.044 C 282.060 293.020,282.062 293.008,281.368 292.709 C 280.377 292.283,280.025 292.283,280.288 292.709 M270.387 298.246 C 270.387 298.321,270.630 298.583,270.927 298.830 C 271.369 299.197,271.467 299.172,271.467 298.694 C 271.467 298.373,271.224 298.110,270.927 298.110 C 270.630 298.110,270.387 298.171,270.387 298.246 " stroke="none" fill="#ffffff" fill-rule="evenodd"></path><path id="path5" d="M201.175 53.849 C 198.974 55.043,199.099 52.014,199.105 103.762 C 199.108 129.762,199.230 151.213,199.375 151.431 C 199.860 152.155,200.890 151.909,200.434 151.178 C 200.215 150.828,199.906 150.622,199.748 150.720 C 199.590 150.817,199.460 150.726,199.460 150.516 C 199.460 150.307,199.642 150.135,199.864 150.135 C 200.161 150.135,200.160 150.005,199.860 149.643 C 199.245 148.902,199.302 56.532,199.918 56.509 C 200.161 56.500,200.846 55.865,201.440 55.098 L 202.520 53.703 223.021 53.666 C 234.296 53.646,243.598 53.552,243.693 53.457 C 244.204 52.946,202.125 53.334,201.175 53.849 M285.924 53.461 C 286.020 53.557,309.072 53.642,337.149 53.650 L 388.199 53.665 388.822 54.434 C 389.480 55.246,390.999 55.695,390.999 55.078 C 390.999 54.878,390.473 54.394,389.829 54.001 C 388.718 53.324,285.249 52.786,285.924 53.461 M391.626 55.827 C 391.871 56.089,392.296 56.335,392.569 56.375 C 393.115 56.455,394.959 57.592,394.959 57.848 C 394.959 57.936,394.757 57.892,394.509 57.749 C 394.262 57.607,394.167 57.611,394.299 57.758 C 394.431 57.905,394.609 57.972,394.694 57.906 C 394.779 57.840,395.121 58.011,395.453 58.287 C 396.259 58.956,396.644 58.519,395.902 57.777 C 395.582 57.457,395.320 57.064,395.320 56.904 C 395.320 56.573,393.854 55.944,392.259 55.591 C 391.374 55.396,391.260 55.438,391.626 55.827 M396.265 58.973 C 396.063 59.299,396.541 60.204,396.890 60.157 C 397.656 60.054,397.895 60.182,397.733 60.606 C 397.631 60.870,397.735 61.101,397.964 61.120 C 398.193 61.139,398.744 61.266,399.190 61.402 C 399.694 61.557,400.000 61.499,400.000 61.248 C 400.000 61.027,399.771 60.846,399.492 60.846 C 399.213 60.846,398.575 60.360,398.075 59.766 C 397.165 58.684,396.597 58.435,396.265 58.973 " stroke="none" fill="#001c8e" fill-rule="evenodd"></path><path id="path6" d="" stroke="none" fill="#333399" fill-rule="evenodd"></path><path id="path7" d="" stroke="none" fill="#005555" fill-rule="evenodd"></path><path id="path8" d="M212.871 53.195 C 218.564 53.251,227.880 53.251,233.573 53.195 C 239.266 53.139,234.608 53.094,223.222 53.094 C 211.836 53.094,207.178 53.139,212.871 53.195 M311.341 53.195 C 325.450 53.247,348.537 53.247,362.646 53.195 C 376.755 53.143,365.212 53.100,336.994 53.100 C 308.776 53.100,297.232 53.143,311.341 53.195 " stroke="none" fill="#0000ff" fill-rule="evenodd"></path><path id="path9" d="M203.060 53.905 C 202.763 54.016,201.872 54.761,201.080 55.560 L 199.640 57.013 199.546 102.944 C 199.494 128.205,199.559 149.117,199.690 149.415 C 199.821 149.712,199.972 150.166,200.025 150.423 C 200.354 152.018,194.827 151.935,300.494 151.935 L 400.000 151.935 400.000 107.111 C 400.000 67.985,399.933 62.286,399.473 62.286 C 399.183 62.286,398.769 61.958,398.554 61.556 C 398.340 61.154,397.985 60.936,397.766 61.072 C 397.518 61.225,397.471 61.152,397.640 60.877 C 397.810 60.603,397.659 60.371,397.241 60.262 C 396.872 60.166,396.295 59.607,395.959 59.022 C 395.623 58.436,395.220 57.996,395.064 58.045 C 394.907 58.094,394.333 57.682,393.786 57.130 C 393.240 56.578,392.651 56.215,392.477 56.322 C 392.303 56.430,391.961 56.276,391.716 55.982 C 391.471 55.687,390.937 55.446,390.528 55.446 C 390.120 55.446,389.397 55.081,388.923 54.635 L 388.061 53.825 336.973 53.731 L 285.885 53.636 285.658 54.540 C 285.533 55.037,285.003 55.648,284.480 55.899 L 283.528 56.355 283.345 75.612 C 283.158 95.283,283.063 96.567,281.751 97.071 C 281.461 97.182,281.049 97.801,280.836 98.446 C 280.623 99.091,280.081 99.816,279.630 100.057 C 279.132 100.323,278.627 101.121,278.340 102.094 C 277.766 104.037,274.291 106.931,272.531 106.931 C 272.304 106.931,271.639 107.272,271.053 107.689 C 268.964 109.177,260.612 109.150,258.503 107.649 C 257.949 107.254,257.267 106.931,256.989 106.931 C 256.711 106.931,255.586 106.391,254.490 105.731 C 253.394 105.071,252.270 104.443,251.991 104.336 C 251.472 104.136,250.896 103.178,248.188 98.005 L 246.625 95.020 246.625 76.316 L 246.625 57.612 245.369 56.799 C 244.678 56.352,244.111 55.715,244.109 55.385 C 244.095 53.550,245.205 53.643,223.634 53.674 C 212.615 53.689,203.357 53.793,203.060 53.905 M12.664 56.796 C 12.525 59.013,12.299 59.365,10.871 59.593 C 10.139 59.710,9.270 59.952,8.940 60.131 C 8.609 60.310,7.961 60.366,7.500 60.257 C 4.507 59.548,3.469 60.323,3.783 63.033 C 3.938 64.368,3.885 65.171,3.631 65.328 C 3.416 65.460,3.240 66.046,3.240 66.628 C 3.240 67.923,2.113 69.127,0.900 69.127 L 0.000 69.127 0.000 110.531 L 0.000 151.935 98.674 151.935 C 166.003 151.935,197.568 151.817,198.043 151.562 C 198.737 151.191,199.205 57.795,198.521 56.015 C 198.192 55.157,156.809 55.144,156.479 56.002 C 156.362 56.308,155.708 56.791,155.026 57.076 L 153.786 57.594 153.671 76.859 L 153.555 96.123 152.565 97.041 C 152.021 97.546,151.575 98.252,151.575 98.609 C 151.575 99.575,150.533 101.484,149.789 101.883 C 149.431 102.074,149.039 102.624,148.918 103.105 C 148.784 103.641,148.294 104.120,147.651 104.344 C 147.074 104.545,146.508 105.007,146.393 105.371 C 146.198 105.985,144.008 106.931,142.780 106.931 C 142.491 106.931,142.015 107.274,141.721 107.693 C 140.477 109.469,128.619 109.316,127.555 107.511 C 127.400 107.248,126.690 106.843,125.978 106.612 C 125.258 106.378,124.473 105.797,124.207 105.301 C 123.945 104.811,123.467 104.410,123.144 104.410 C 122.374 104.410,119.659 101.788,119.339 100.734 C 119.201 100.281,118.724 99.586,118.279 99.190 C 116.959 98.014,116.652 93.738,116.652 76.533 C 116.652 66.944,116.516 60.905,116.291 60.484 C 116.049 60.033,116.049 59.736,116.291 59.587 C 117.093 59.091,116.669 57.682,115.606 57.312 C 115.030 57.111,114.452 56.609,114.321 56.196 L 114.083 55.446 63.416 55.446 L 12.748 55.446 12.664 56.796 M390.628 56.719 C 390.421 56.969,390.455 57.278,390.720 57.542 C 391.044 57.867,390.865 57.966,389.952 57.966 C 389.015 57.966,388.808 57.845,388.980 57.396 C 389.101 57.083,389.199 56.680,389.199 56.500 C 389.199 56.321,389.595 56.206,390.079 56.247 C 390.679 56.296,390.854 56.447,390.628 56.719 " stroke="none" fill="#1158b3" fill-rule="evenodd"></path><path id="path10" d="M243.961 54.494 C 244.223 55.335,244.748 55.791,245.463 55.800 C 246.500 55.813,246.625 58.019,246.625 76.369 C 246.625 95.455,246.742 97.210,248.017 97.210 C 248.179 97.210,248.512 97.881,248.758 98.702 C 249.334 100.626,251.328 103.518,252.829 104.608 C 254.546 105.854,256.593 106.931,257.246 106.931 C 257.560 106.931,258.146 107.238,258.550 107.614 C 260.288 109.234,269.323 109.236,271.061 107.617 C 271.466 107.239,272.055 106.931,272.370 106.931 C 274.896 106.931,278.668 103.131,278.668 100.586 C 278.668 99.922,278.862 99.730,279.533 99.730 C 280.174 99.730,280.497 99.445,280.782 98.626 C 280.994 98.019,281.537 97.223,281.988 96.858 L 282.808 96.194 282.989 76.450 C 283.169 56.760,283.256 55.446,284.380 55.446 C 284.956 55.446,286.078 54.095,285.763 53.780 C 285.404 53.421,283.697 54.409,283.097 55.323 C 282.498 56.237,282.434 57.813,282.268 75.874 C 282.132 90.638,281.981 95.502,281.652 95.706 C 281.412 95.854,280.966 96.574,280.660 97.305 C 280.354 98.037,279.732 98.879,279.278 99.177 C 278.823 99.475,278.148 100.410,277.777 101.255 C 277.050 102.912,276.881 103.083,274.167 104.927 C 268.940 108.480,258.929 108.582,255.791 105.115 C 255.441 104.727,254.950 104.410,254.700 104.410 C 254.183 104.410,251.305 101.828,251.305 101.363 C 251.305 101.195,250.900 100.527,250.405 99.878 C 249.910 99.229,249.505 98.581,249.505 98.439 C 249.505 98.296,249.059 97.273,248.515 96.164 L 247.525 94.149 247.345 75.608 C 247.147 55.197,247.156 55.279,244.982 54.294 C 243.742 53.732,243.724 53.736,243.961 54.494 M153.285 57.092 C 153.137 57.243,153.012 64.913,153.008 74.137 C 153.001 91.038,152.784 94.990,151.805 96.077 C 151.512 96.403,151.156 97.156,151.016 97.750 C 149.497 104.175,134.807 110.919,130.165 107.321 C 129.961 107.163,129.007 106.771,128.047 106.451 C 125.003 105.438,120.689 101.343,118.812 97.685 L 117.552 95.230 117.450 76.346 C 117.394 65.960,117.272 57.387,117.180 57.294 C 116.862 56.976,117.029 95.230,117.351 96.620 C 117.529 97.385,118.092 98.447,118.603 98.980 C 119.114 99.513,119.532 100.220,119.532 100.551 C 119.532 100.881,120.007 101.397,120.587 101.697 C 121.167 101.997,121.741 102.558,121.864 102.944 C 121.986 103.330,122.555 103.852,123.127 104.106 C 123.700 104.359,124.322 104.905,124.510 105.318 C 124.710 105.756,125.507 106.275,126.423 106.563 C 127.286 106.835,128.332 107.357,128.746 107.723 C 129.762 108.622,134.526 109.158,137.578 108.717 C 138.841 108.535,139.955 108.382,140.054 108.378 C 140.153 108.373,140.681 107.986,141.227 107.516 C 141.773 107.046,142.888 106.555,143.705 106.424 C 144.666 106.271,145.438 105.871,145.894 105.291 C 146.281 104.799,147.070 104.152,147.647 103.854 C 148.223 103.556,148.693 103.113,148.692 102.871 C 148.690 102.629,149.180 102.025,149.781 101.530 C 150.543 100.902,150.939 100.194,151.090 99.190 C 151.228 98.279,151.720 97.313,152.431 96.560 L 153.555 95.370 153.673 77.838 C 153.795 59.626,153.739 56.633,153.285 57.092 " stroke="none" fill="#5e5f9d" fill-rule="evenodd"></path><path id="path11" d="M285.149 55.086 C 285.149 55.284,284.842 55.446,284.467 55.446 C 284.092 55.446,283.699 55.670,283.594 55.944 C 283.435 56.359,283.580 56.355,284.456 55.918 C 285.355 55.470,285.899 54.725,285.329 54.725 C 285.230 54.725,285.149 54.887,285.149 55.086 M11.813 56.916 C 11.673 58.821,10.919 59.393,9.479 58.689 C 7.704 57.821,6.274 58.089,6.294 59.286 C 6.308 60.177,7.910 60.688,8.940 60.131 C 9.270 59.952,10.139 59.710,10.871 59.593 C 12.269 59.370,12.476 59.062,12.670 56.916 C 12.735 56.196,12.604 55.627,12.353 55.543 C 12.078 55.451,11.885 55.941,11.813 56.916 M155.086 56.272 C 153.485 57.070,153.279 57.727,154.795 57.199 C 155.779 56.856,156.899 55.910,156.577 55.693 C 156.499 55.641,155.828 55.901,155.086 56.272 M244.109 55.716 C 244.111 55.864,244.661 56.340,245.329 56.773 C 246.517 57.542,246.541 57.543,246.356 56.835 C 246.140 56.010,244.097 54.992,244.109 55.716 M114.498 56.537 C 114.682 56.881,115.242 57.266,115.742 57.391 C 116.687 57.628,117.054 59.115,116.286 59.590 C 116.085 59.714,116.044 60.007,116.196 60.241 C 116.347 60.475,116.556 68.038,116.659 77.048 L 116.846 93.429 116.929 75.375 L 117.012 57.321 115.587 56.616 C 114.298 55.978,114.194 55.971,114.498 56.537 M389.199 56.500 C 389.199 56.680,389.101 57.083,388.980 57.396 C 388.808 57.845,389.015 57.966,389.952 57.966 C 390.865 57.966,391.044 57.867,390.720 57.542 C 390.455 57.278,390.421 56.969,390.628 56.719 C 390.854 56.447,390.679 56.296,390.079 56.247 C 389.595 56.206,389.199 56.321,389.199 56.500 M283.155 75.428 C 283.155 85.329,283.202 89.327,283.258 84.313 C 283.315 79.300,283.315 71.199,283.258 66.312 C 283.201 61.424,283.155 65.527,283.155 75.428 M1.959 63.162 C 1.454 63.735,1.412 64.862,1.854 65.977 C 2.312 67.128,1.789 68.047,0.676 68.047 C 0.304 68.047,0.000 68.290,0.000 68.587 C 0.000 69.381,1.665 69.262,2.520 68.407 C 2.916 68.011,3.240 67.233,3.240 66.679 C 3.240 66.124,3.415 65.496,3.629 65.282 C 4.294 64.617,3.879 62.889,3.040 62.829 C 2.632 62.800,2.146 62.950,1.959 63.162 M152.221 96.763 C 151.382 97.660,150.583 100.301,151.280 99.870 C 151.442 99.769,151.575 99.299,151.575 98.823 C 151.575 98.347,152.012 97.554,152.548 97.057 C 153.083 96.561,153.436 96.070,153.332 95.966 C 153.228 95.862,152.728 96.221,152.221 96.763 M117.372 98.089 C 117.372 98.388,117.777 98.899,118.272 99.223 C 118.767 99.547,119.185 100.078,119.200 100.401 C 119.219 100.784,119.293 100.830,119.412 100.534 C 119.513 100.283,119.096 99.508,118.484 98.811 C 117.810 98.044,117.372 97.759,117.372 98.089 M149.685 101.572 C 149.140 101.978,148.695 102.534,148.695 102.808 C 148.695 103.081,148.330 103.493,147.885 103.723 C 146.866 104.248,145.455 105.520,145.455 105.913 C 145.455 106.522,146.135 106.183,146.364 105.460 C 146.495 105.047,147.067 104.548,147.634 104.350 C 148.201 104.152,148.772 103.639,148.902 103.210 C 149.033 102.781,149.566 102.072,150.087 101.633 C 151.280 100.630,151.004 100.588,149.685 101.572 M119.532 101.328 C 119.532 101.654,122.554 104.410,122.913 104.410 C 123.108 104.410,122.914 104.080,122.480 103.676 C 122.047 103.273,121.692 102.791,121.692 102.605 C 121.692 102.420,121.206 102.017,120.612 101.710 C 120.018 101.403,119.532 101.231,119.532 101.328 M143.099 106.547 C 142.497 106.691,141.643 107.120,141.201 107.500 C 140.759 107.880,140.037 108.310,139.596 108.456 C 139.066 108.631,139.211 108.661,140.022 108.543 C 140.697 108.446,141.476 108.043,141.753 107.648 C 142.029 107.254,142.610 106.928,143.045 106.925 C 143.479 106.922,144.077 106.763,144.374 106.571 C 144.987 106.175,144.676 106.169,143.099 106.547 M127.453 107.278 C 127.453 107.618,128.591 108.371,129.105 108.371 C 129.248 108.371,129.071 108.047,128.713 107.651 C 128.015 106.879,127.453 106.713,127.453 107.278 " stroke="none" fill="#2868ba" fill-rule="evenodd"></path><path id="path12" d="M244.104 53.607 C 244.104 53.826,244.513 54.005,245.012 54.005 C 245.666 54.005,246.031 54.282,246.317 54.995 C 246.536 55.540,246.856 56.310,247.030 56.706 C 247.203 57.102,247.385 65.689,247.435 75.788 L 247.525 94.149 248.515 96.164 C 249.059 97.273,249.505 98.296,249.505 98.439 C 249.505 98.581,249.910 99.229,250.405 99.878 C 250.900 100.527,251.305 101.195,251.305 101.363 C 251.305 101.828,254.183 104.410,254.700 104.410 C 254.950 104.410,255.441 104.727,255.791 105.115 C 258.929 108.582,268.940 108.480,274.167 104.927 C 276.881 103.083,277.050 102.912,277.777 101.255 C 278.148 100.410,278.823 99.475,279.278 99.177 C 279.732 98.879,280.354 98.037,280.660 97.305 C 280.966 96.574,281.412 95.854,281.652 95.706 C 281.981 95.502,282.132 90.642,282.268 75.891 C 282.468 54.148,282.424 54.534,284.788 53.876 C 285.504 53.677,285.803 53.468,285.480 53.391 C 285.168 53.317,284.471 53.424,283.933 53.629 C 281.948 54.383,281.908 54.801,281.908 74.686 L 281.908 92.869 281.008 94.904 C 280.513 96.023,280.108 97.087,280.108 97.269 C 280.108 97.450,279.460 98.252,278.668 99.052 C 277.876 99.853,277.228 100.698,277.228 100.932 C 277.228 101.522,275.665 103.149,274.357 103.922 C 273.758 104.276,273.267 104.679,273.267 104.818 C 273.267 105.742,265.045 107.532,263.270 106.995 C 262.531 106.772,261.035 106.418,259.946 106.209 C 255.598 105.375,251.028 100.964,249.132 95.770 C 248.287 93.453,248.276 93.244,248.081 75.248 C 247.871 55.786,247.642 53.645,245.774 53.645 C 245.482 53.645,244.987 53.547,244.674 53.427 C 244.361 53.307,244.104 53.388,244.104 53.607 M152.565 57.005 C 152.417 57.368,152.288 65.469,152.279 75.007 L 152.262 92.349 151.109 95.627 C 149.128 101.253,145.538 104.574,139.297 106.554 C 134.664 108.024,133.474 107.921,127.694 105.559 C 124.899 104.416,121.176 100.662,119.470 97.266 L 118.092 94.523 118.092 75.906 C 118.092 65.666,117.970 57.213,117.822 57.121 C 117.265 56.777,117.703 95.446,118.268 96.460 C 118.553 96.971,119.050 97.957,119.372 98.650 C 120.106 100.230,125.883 105.796,127.093 106.089 C 127.588 106.209,128.964 106.709,130.151 107.201 C 133.198 108.462,136.563 108.448,139.593 107.162 C 140.825 106.639,142.059 106.211,142.335 106.211 C 144.168 106.211,149.671 100.990,150.496 98.470 C 150.756 97.678,151.388 96.394,151.901 95.616 L 152.835 94.203 152.948 77.615 C 153.068 59.773,152.997 55.950,152.565 57.005 " stroke="none" fill="#876292" fill-rule="evenodd"></path><path id="path13" d="" stroke="none" fill="#5555ff" fill-rule="evenodd"></path><path id="path14" d="M245.005 54.365 C 245.995 54.791,246.348 54.791,246.085 54.365 C 245.962 54.167,245.507 54.017,245.073 54.031 C 244.313 54.055,244.310 54.067,245.005 54.365 M117.538 75.248 C 117.538 84.851,117.585 88.780,117.641 83.978 C 117.698 79.176,117.698 71.319,117.641 66.517 C 117.585 61.715,117.538 65.644,117.538 75.248 M122.052 102.250 C 122.475 102.844,122.902 103.330,123.001 103.330 C 123.100 103.330,122.835 102.844,122.412 102.250 C 121.989 101.656,121.562 101.170,121.463 101.170 C 121.364 101.170,121.629 101.656,122.052 102.250 " stroke="none" fill="#6d6db6" fill-rule="evenodd"></path><path id="path15" d="M11.093 56.796 C 10.985 58.100,10.938 58.142,9.721 58.046 C 8.532 57.952,8.500 57.978,9.160 58.496 C 10.662 59.678,11.881 58.924,11.881 56.814 C 11.881 55.045,11.239 55.030,11.093 56.796 M114.974 56.256 C 115.693 56.925,116.847 57.133,116.472 56.526 C 116.349 56.328,115.967 56.166,115.622 56.166 C 115.278 56.166,114.838 56.044,114.646 55.896 C 114.454 55.747,114.601 55.909,114.974 56.256 M154.545 55.817 C 154.100 55.996,153.735 56.301,153.735 56.495 C 153.735 56.908,155.783 56.279,156.098 55.770 C 156.348 55.365,155.614 55.387,154.545 55.817 M0.000 66.427 C 0.000 67.772,0.115 68.047,0.676 68.047 C 1.841 68.047,2.317 67.133,1.800 65.887 C 1.065 64.112,0.000 64.432,0.000 66.427 M250.315 152.205 C 277.790 152.256,322.750 152.256,350.225 152.205 C 377.700 152.154,355.221 152.113,300.270 152.113 C 245.320 152.113,222.840 152.154,250.315 152.205 " stroke="none" fill="#4b7cbc" fill-rule="evenodd"></path><path id="path16" d="" stroke="none" fill="#b65586" fill-rule="evenodd"></path><path id="path17" d="" stroke="none" fill="#339999" fill-rule="evenodd"></path><path id="path18" d="M244.104 53.067 C 244.104 53.416,245.119 53.548,245.577 53.258 C 245.946 53.024,245.815 52.935,245.095 52.931 C 244.550 52.928,244.104 52.989,244.104 53.067 M283.098 53.289 C 282.650 53.470,281.909 54.450,281.388 55.552 L 280.468 57.495 280.468 75.148 C 280.468 90.025,280.383 93.005,279.928 94.094 C 279.631 94.805,279.388 95.939,279.388 96.614 C 279.388 97.639,279.209 97.916,278.308 98.290 C 277.714 98.536,277.228 98.960,277.228 99.233 C 277.228 99.505,276.661 100.329,275.968 101.064 C 275.275 101.799,274.707 102.511,274.707 102.646 C 274.707 102.782,274.307 102.993,273.818 103.115 C 273.329 103.238,272.559 103.722,272.108 104.191 C 270.194 106.179,259.281 106.004,257.229 103.952 C 256.689 103.412,256.027 102.970,255.757 102.970 C 254.974 102.970,252.524 100.369,252.246 99.242 C 252.107 98.676,251.706 98.139,251.357 98.048 C 249.886 97.663,249.719 95.530,249.611 75.788 C 249.514 58.115,249.471 57.035,248.846 56.516 C 248.481 56.213,248.074 55.530,247.940 54.996 C 247.806 54.463,247.334 53.833,246.890 53.597 C 246.160 53.208,246.131 53.224,246.579 53.766 C 246.851 54.096,246.980 54.365,246.867 54.365 C 246.754 54.365,246.937 54.973,247.273 55.716 C 247.814 56.909,247.908 59.182,248.081 75.248 C 248.325 97.797,248.777 99.554,255.509 104.134 C 260.412 107.470,270.902 107.857,273.267 104.789 C 273.366 104.661,274.014 104.162,274.707 103.681 C 276.163 102.670,277.199 101.534,277.216 100.929 C 277.222 100.697,277.876 99.853,278.668 99.052 C 279.460 98.252,280.108 97.450,280.108 97.269 C 280.108 97.087,280.513 96.023,281.008 94.904 L 281.908 92.869 281.909 74.607 C 281.909 54.083,281.880 54.327,284.428 53.426 C 285.506 53.045,285.558 52.979,284.788 52.976 C 284.293 52.973,283.533 53.114,283.098 53.289 M151.286 56.980 C 151.002 57.322,150.837 62.849,150.735 75.449 C 150.654 85.338,150.468 94.039,150.322 94.783 C 149.915 96.850,150.973 96.182,151.707 93.908 C 152.218 92.325,152.295 89.819,152.290 74.756 C 152.284 57.939,152.170 55.915,151.286 56.980 M118.391 57.288 C 118.259 57.608,118.134 66.114,118.113 76.190 L 118.074 94.509 119.461 97.259 C 121.178 100.664,124.902 104.417,127.694 105.559 C 133.553 107.954,134.721 108.042,139.562 106.451 C 144.275 104.903,148.595 101.713,148.913 99.544 C 149.044 98.652,148.414 98.945,147.738 100.090 C 147.387 100.684,146.902 101.170,146.661 101.170 C 146.420 101.170,146.119 101.497,145.993 101.896 C 145.866 102.296,145.195 102.859,144.502 103.149 C 143.809 103.439,142.970 103.984,142.638 104.360 C 141.393 105.772,135.063 106.360,130.513 105.487 C 126.960 104.805,121.392 100.339,120.746 97.653 C 120.616 97.112,120.129 95.978,119.664 95.133 L 118.818 93.596 118.725 75.151 C 118.674 65.006,118.524 56.968,118.391 57.288 " stroke="none" fill="#c36782" fill-rule="evenodd"></path><path id="path19" d="M248.596 4.708 C 248.256 5.780,248.539 5.864,249.025 4.834 C 249.252 4.354,249.301 3.960,249.135 3.960 C 248.969 3.960,248.727 4.297,248.596 4.708 M280.588 4.834 C 280.815 5.315,281.058 5.651,281.127 5.581 C 281.351 5.358,280.791 3.960,280.478 3.960 C 280.312 3.960,280.361 4.354,280.588 4.834 M282.268 6.606 C 282.763 6.866,283.245 7.017,283.338 6.941 C 283.591 6.733,282.529 6.132,281.908 6.131 C 281.611 6.131,281.772 6.344,282.268 6.606 M284.316 11.052 C 284.762 11.139,285.257 11.625,285.457 12.173 C 285.750 12.971,285.817 13.012,285.840 12.403 C 285.877 11.453,285.203 10.788,284.266 10.850 C 283.576 10.896,283.579 10.909,284.316 11.052 " stroke="none" fill="#ff0000" fill-rule="evenodd"></path><path id="path20" d="M153.767 54.400 C 153.224 56.213,153.215 56.204,155.089 55.704 C 156.655 55.286,156.898 54.847,156.243 53.622 C 155.555 52.337,154.264 52.743,153.767 54.400 M8.499 56.015 C 8.001 57.313,8.266 57.882,9.451 58.062 C 10.987 58.296,11.161 58.155,11.161 56.684 C 11.161 55.294,8.986 54.747,8.499 56.015 M114.671 55.719 C 114.869 55.913,115.518 56.177,116.112 56.304 C 117.351 56.570,116.665 56.055,115.212 55.629 C 114.620 55.455,114.435 55.486,114.671 55.719 M249.926 152.565 C 277.385 152.616,322.426 152.616,350.016 152.565 C 377.606 152.514,355.140 152.473,300.090 152.473 C 245.041 152.473,222.467 152.514,249.926 152.565 " stroke="none" fill="#7092c1" fill-rule="evenodd"></path><path id="path21" d="M251.824 1.969 C 251.440 2.259,251.287 2.497,251.485 2.497 C 251.683 2.497,252.160 2.259,252.544 1.969 C 252.928 1.678,253.081 1.440,252.883 1.440 C 252.685 1.440,252.208 1.678,251.824 1.969 M276.538 1.534 C 276.620 1.586,277.052 1.935,277.498 2.310 C 277.943 2.685,278.308 2.897,278.308 2.782 C 278.308 2.419,277.195 1.440,276.782 1.440 C 276.565 1.440,276.455 1.482,276.538 1.534 M250.045 3.985 C 249.451 4.365,249.149 4.678,249.375 4.679 C 249.601 4.680,250.168 4.362,250.635 3.972 C 251.706 3.081,251.448 3.086,250.045 3.985 " stroke="none" fill="#ff3333" fill-rule="evenodd"></path><path id="path22" d="M152.385 54.990 C 151.908 55.155,151.744 57.246,152.209 57.246 C 152.359 57.246,152.659 56.962,152.875 56.616 C 153.346 55.861,153.018 54.772,152.385 54.990 M117.372 56.482 C 117.372 56.655,117.615 56.999,117.912 57.246 C 118.363 57.620,118.452 57.568,118.452 56.930 C 118.452 56.491,118.222 56.166,117.912 56.166 C 117.615 56.166,117.372 56.308,117.372 56.482 M149.919 97.064 C 149.597 97.837,149.231 98.551,149.104 98.650 C 148.735 98.940,148.666 99.730,149.011 99.730 C 149.500 99.730,150.000 98.959,150.484 97.456 C 151.081 95.603,150.652 95.306,149.919 97.064 " stroke="none" fill="#ba7b94" fill-rule="evenodd"></path><path id="path23" d="M253.105 0.720 C 253.105 1.120,253.345 1.440,253.645 1.440 C 253.945 1.440,254.185 1.120,254.185 0.720 C 254.185 0.320,253.945 0.000,253.645 0.000 C 253.345 0.000,253.105 0.320,253.105 0.720 M275.428 0.720 C 275.428 1.116,275.597 1.440,275.805 1.440 C 276.013 1.440,276.411 1.967,276.691 2.610 C 276.971 3.254,277.206 3.537,277.214 3.240 C 277.224 2.879,277.571 3.057,278.263 3.780 C 278.832 4.374,279.225 4.986,279.136 5.139 C 279.047 5.293,279.129 5.374,279.318 5.319 C 279.808 5.178,281.543 7.121,281.577 7.849 C 281.595 8.248,281.670 8.299,281.792 7.996 C 281.929 7.654,282.104 7.635,282.451 7.923 C 282.793 8.207,282.993 8.205,283.172 7.914 C 283.420 7.513,283.149 7.021,282.679 7.021 C 282.101 7.021,280.428 5.397,280.645 5.046 C 280.775 4.835,280.667 4.707,280.405 4.762 C 280.143 4.816,279.967 4.664,280.014 4.423 C 280.061 4.183,279.875 4.073,279.600 4.178 C 279.059 4.386,278.513 3.743,278.497 2.881 C 278.492 2.585,278.245 2.334,277.948 2.325 C 277.651 2.315,277.442 2.131,277.484 1.916 C 277.525 1.701,277.282 1.546,276.944 1.573 C 276.560 1.602,276.284 1.314,276.213 0.810 C 276.070 -0.193,275.428 -0.266,275.428 0.720 M252.183 1.764 C 252.417 2.143,251.511 2.967,251.201 2.656 C 251.082 2.537,251.009 2.776,251.040 3.187 C 251.092 3.883,251.142 3.894,251.741 3.352 C 252.261 2.881,252.390 2.866,252.411 3.275 C 252.425 3.568,252.566 3.477,252.745 3.060 C 253.188 2.030,253.170 1.902,252.547 1.663 C 252.239 1.545,252.075 1.590,252.183 1.764 M249.599 4.423 C 249.646 4.664,249.470 4.816,249.208 4.762 C 248.946 4.707,248.835 4.830,248.962 5.035 C 249.212 5.440,247.038 7.444,246.525 7.282 C 246.352 7.227,246.310 7.497,246.432 7.881 C 246.554 8.266,246.485 8.684,246.279 8.812 C 245.792 9.113,245.796 9.721,246.286 9.721 C 246.496 9.721,246.567 9.559,246.445 9.361 C 246.322 9.163,246.394 9.001,246.603 9.001 C 246.813 9.001,246.985 8.776,246.985 8.501 C 246.985 8.226,247.262 8.023,247.601 8.051 C 247.954 8.079,248.278 7.793,248.360 7.381 C 248.526 6.543,249.865 5.142,249.865 5.807 C 249.865 6.446,250.225 5.974,250.390 5.118 C 250.470 4.702,250.309 4.292,250.023 4.182 C 249.739 4.073,249.551 4.180,249.599 4.423 M283.708 11.953 C 283.708 12.966,285.038 13.936,285.623 13.351 C 285.902 13.071,285.890 12.961,285.581 12.961 C 285.343 12.961,285.149 12.718,285.149 12.421 C 285.149 12.124,284.969 11.881,284.750 11.881 C 284.531 11.881,284.448 12.133,284.566 12.440 C 284.696 12.780,284.631 12.907,284.400 12.764 C 284.191 12.634,284.104 12.307,284.208 12.036 C 284.312 11.766,284.242 11.448,284.053 11.331 C 283.863 11.214,283.708 11.494,283.708 11.953 M244.975 13.633 C 245.081 13.805,244.851 14.231,244.464 14.581 C 243.634 15.333,243.813 15.850,244.813 15.589 C 245.946 15.292,246.232 13.321,245.142 13.321 C 244.944 13.321,244.869 13.462,244.975 13.633 M285.676 33.843 C 285.676 44.437,285.722 48.771,285.778 43.474 C 285.834 38.177,285.834 29.509,285.778 24.212 C 285.722 18.915,285.676 23.249,285.676 33.843 M243.911 35.104 C 243.911 45.005,243.958 49.003,244.014 43.989 C 244.071 38.976,244.071 30.875,244.014 25.988 C 243.957 21.100,243.911 25.203,243.911 35.104 " stroke="none" fill="#ff5555" fill-rule="evenodd"></path><path id="path24" d="M116.815 53.645 C 116.955 54.140,117.157 54.910,117.263 55.356 C 117.369 55.801,117.697 56.166,117.993 56.166 C 118.734 56.166,118.288 54.420,117.303 53.465 L 116.559 52.745 116.815 53.645 M152.531 53.584 C 151.744 54.453,151.775 55.053,152.604 54.990 C 153.384 54.932,154.332 52.925,153.580 52.925 C 153.331 52.925,152.859 53.222,152.531 53.584 " stroke="none" fill="#d08c9f" fill-rule="evenodd"></path><path id="path25" d="M199.848 153.285 C 199.864 153.632,199.945 153.753,200.028 153.555 C 200.129 153.316,233.737 153.226,300.090 153.287 C 366.869 153.349,400.000 153.259,400.000 153.017 C 400.000 152.776,366.748 152.655,299.910 152.655 C 204.815 152.655,199.821 152.687,199.848 153.285 " stroke="none" fill="#95adce" fill-rule="evenodd"></path><path id="path26" d="M254.221 0.630 C 254.202 1.076,253.955 1.440,253.674 1.440 C 253.393 1.440,253.051 1.948,252.915 2.568 C 252.778 3.189,252.563 3.527,252.435 3.321 C 252.106 2.789,250.587 4.094,250.399 5.071 C 250.227 5.964,249.865 6.463,249.865 5.807 C 249.865 5.142,248.526 6.543,248.360 7.381 C 248.278 7.793,247.954 8.079,247.601 8.051 C 247.262 8.023,246.985 8.226,246.985 8.501 C 246.985 8.776,246.852 9.001,246.690 9.001 C 246.528 9.001,246.367 9.446,246.332 9.991 C 246.257 11.168,245.937 13.538,245.700 14.671 C 245.607 15.117,245.311 15.482,245.042 15.482 C 244.773 15.482,244.330 15.756,244.058 16.091 C 243.633 16.616,243.639 16.658,244.104 16.398 C 244.486 16.185,244.539 16.212,244.284 16.491 C 243.469 17.384,244.020 52.925,244.849 52.925 C 246.122 52.925,247.682 53.969,247.939 54.992 C 248.073 55.528,248.481 56.213,248.846 56.516 C 249.471 57.035,249.514 58.115,249.611 75.788 C 249.719 95.530,249.886 97.663,251.357 98.048 C 251.706 98.139,252.107 98.676,252.246 99.242 C 252.524 100.369,254.974 102.970,255.757 102.970 C 256.027 102.970,256.689 103.412,257.229 103.952 C 259.281 106.004,270.194 106.179,272.108 104.191 C 272.559 103.722,273.329 103.238,273.818 103.115 C 274.307 102.993,274.707 102.782,274.707 102.646 C 274.707 102.511,275.275 101.799,275.968 101.064 C 276.661 100.329,277.228 99.505,277.228 99.233 C 277.228 98.960,277.714 98.536,278.308 98.290 C 279.209 97.916,279.388 97.639,279.388 96.614 C 279.388 95.939,279.631 94.805,279.928 94.094 C 280.383 93.004,280.468 90.020,280.468 75.098 L 280.468 57.394 281.458 55.430 C 282.349 53.662,282.602 53.431,283.978 53.126 L 285.509 52.787 285.554 33.774 C 285.578 23.317,285.621 14.559,285.649 14.311 C 285.676 14.064,285.251 13.639,284.704 13.366 C 283.965 12.999,283.708 12.607,283.708 11.844 C 283.708 10.883,283.622 10.823,282.358 10.899 C 281.186 10.970,281.025 10.886,281.134 10.261 C 281.298 9.327,281.942 8.940,282.526 9.426 C 282.864 9.706,282.998 9.676,283.024 9.315 C 283.044 9.043,283.190 9.226,283.348 9.721 L 283.637 10.621 283.672 9.620 C 283.693 9.037,283.483 8.532,283.170 8.412 C 282.874 8.298,282.725 8.056,282.837 7.874 C 283.112 7.430,282.160 7.643,281.824 8.101 C 281.673 8.306,281.557 8.197,281.554 7.849 C 281.547 7.083,279.802 5.179,279.255 5.341 C 279.031 5.407,278.960 5.349,279.096 5.212 C 279.233 5.076,279.036 4.633,278.659 4.228 C 278.281 3.823,278.041 3.381,278.124 3.246 C 278.208 3.111,278.040 3.000,277.752 3.000 C 277.464 3.000,277.221 3.176,277.214 3.390 C 277.206 3.605,276.971 3.254,276.691 2.610 C 276.411 1.967,276.013 1.440,275.805 1.440 C 275.597 1.440,275.428 1.116,275.428 0.720 C 275.428 0.023,275.188 0.000,268.047 0.000 C 260.906 0.000,260.666 0.023,260.666 0.720 C 260.666 1.200,260.426 1.440,259.946 1.440 C 259.466 1.440,259.226 1.200,259.226 0.720 C 259.226 -0.452,254.922 -0.363,254.870 0.810 C 254.835 1.587,254.822 1.584,254.545 0.720 C 254.269 -0.143,254.256 -0.147,254.221 0.630 M127.093 2.628 C 127.093 4.551,125.364 5.420,124.084 4.140 C 122.567 2.624,121.164 3.736,121.457 6.223 C 121.636 7.746,121.566 8.298,121.150 8.642 C 120.854 8.888,120.612 9.409,120.612 9.800 C 120.612 11.713,118.982 12.969,116.922 12.644 C 116.203 12.530,116.625 52.789,117.350 53.445 C 118.654 54.626,118.812 57.013,118.812 75.613 L 118.812 93.584 119.661 95.127 C 120.127 95.975,120.616 97.112,120.746 97.653 C 121.392 100.339,126.960 104.805,130.513 105.487 C 135.063 106.360,141.393 105.772,142.638 104.360 C 142.970 103.984,143.809 103.439,144.502 103.149 C 145.195 102.859,145.866 102.296,145.993 101.896 C 146.119 101.497,146.455 101.170,146.739 101.170 C 147.023 101.170,147.255 101.028,147.255 100.855 C 147.255 100.682,147.820 99.923,148.511 99.169 C 149.269 98.342,149.843 97.288,149.959 96.514 C 150.065 95.807,150.310 94.448,150.503 93.492 C 150.703 92.505,150.855 84.318,150.855 74.544 C 150.855 59.685,150.929 57.273,151.395 56.886 C 151.692 56.639,151.935 55.915,151.935 55.277 C 151.935 54.132,152.827 52.925,153.674 52.925 C 153.991 52.925,154.085 48.272,154.054 34.113 C 154.031 23.767,153.943 15.556,153.860 15.867 C 153.754 16.259,153.399 16.388,152.702 16.285 C 151.094 16.049,150.240 12.832,151.384 11.320 C 152.312 10.093,152.074 9.522,150.664 9.588 C 149.677 9.635,149.255 9.448,148.774 8.751 C 148.434 8.258,147.848 7.586,147.474 7.258 C 147.099 6.929,146.462 6.296,146.058 5.851 C 145.655 5.405,145.055 5.041,144.725 5.041 C 143.803 5.041,142.934 3.848,142.934 2.582 C 142.934 1.954,142.772 1.440,142.574 1.440 C 142.376 1.440,142.214 1.683,142.214 1.980 C 142.214 2.626,142.402 2.610,135.245 2.583 C 130.602 2.566,129.420 2.457,128.916 2.001 C 127.846 1.033,127.093 1.292,127.093 2.628 M284.167 11.882 C 284.140 12.251,284.389 12.767,284.723 13.027 C 285.263 13.450,285.277 13.435,284.847 12.887 C 284.583 12.549,284.464 12.115,284.583 11.922 C 284.703 11.729,284.669 11.490,284.509 11.391 C 284.349 11.292,284.195 11.513,284.167 11.882 " stroke="none" fill="#ff7876" fill-rule="evenodd"></path><path id="path27" d="M114.670 53.380 C 113.461 54.057,114.029 55.360,115.598 55.510 C 117.344 55.676,117.478 55.533,116.932 54.086 C 116.511 52.971,115.798 52.748,114.670 53.380 M199.100 153.735 C 199.100 153.933,199.464 154.093,199.910 154.090 C 200.565 154.085,200.617 154.018,200.180 153.735 C 199.482 153.284,199.100 153.284,199.100 153.735 M57.251 189.649 C 57.267 191.718,58.252 192.409,59.406 191.163 C 60.578 189.896,60.107 189.035,58.236 189.024 C 57.529 189.020,57.247 189.199,57.251 189.649 M57.411 204.929 C 57.124 206.235,57.394 206.601,58.486 206.392 C 59.479 206.203,60.551 205.221,59.766 205.221 C 59.411 205.221,59.413 205.106,59.773 204.672 C 60.157 204.209,60.127 204.163,59.578 204.373 C 59.132 204.544,59.009 204.491,59.187 204.204 C 59.361 203.922,59.148 203.810,58.537 203.860 C 57.866 203.916,57.572 204.195,57.411 204.929 M118.452 207.715 C 118.452 209.513,119.071 210.621,120.076 210.621 C 121.243 210.621,121.597 207.579,120.547 206.571 C 120.117 206.157,119.890 206.095,119.886 206.391 C 119.883 206.669,119.780 206.704,119.616 206.481 C 118.908 205.516,118.452 205.999,118.452 207.715 M138.454 209.261 C 137.488 210.640,137.724 211.341,139.154 211.341 C 140.294 211.341,140.414 211.245,140.414 210.333 C 140.414 208.549,139.358 207.971,138.454 209.261 M116.292 213.858 C 116.292 215.257,116.322 215.292,117.427 215.171 C 119.292 214.967,119.417 212.421,117.562 212.421 C 116.320 212.421,116.292 212.454,116.292 213.858 M135.693 213.646 C 135.670 213.864,135.599 214.487,135.534 215.032 C 135.426 215.940,135.518 216.022,136.634 216.022 C 138.080 216.022,138.386 215.643,138.077 214.237 C 137.843 213.171,135.795 212.663,135.693 213.646 M134.023 221.670 C 134.370 221.761,134.653 221.985,134.653 222.169 C 134.653 222.352,134.835 222.502,135.058 222.502 C 135.337 222.502,135.323 222.335,135.014 221.962 C 134.767 221.665,134.302 221.441,133.979 221.464 C 133.485 221.499,133.492 221.531,134.023 221.670 M111.611 223.102 C 111.611 223.366,111.756 223.582,111.933 223.582 C 112.110 223.582,112.337 223.366,112.438 223.102 C 112.540 222.838,112.395 222.622,112.117 222.622 C 111.839 222.622,111.611 222.838,111.611 223.102 M113.035 222.952 C 112.994 223.101,112.934 223.425,112.900 223.672 C 112.866 223.920,112.631 224.078,112.378 224.023 C 112.118 223.968,112.026 224.100,112.167 224.328 C 112.511 224.885,113.559 223.814,113.302 223.168 C 113.195 222.901,113.075 222.804,113.035 222.952 M132.045 225.287 C 131.803 225.769,131.941 226.464,132.273 226.432 C 132.449 226.415,132.730 226.618,132.898 226.882 C 133.131 227.251,133.204 227.216,133.208 226.733 C 133.211 226.386,133.042 226.103,132.832 226.103 C 132.622 226.103,132.544 225.952,132.658 225.767 C 132.772 225.583,132.712 225.337,132.524 225.222 C 132.336 225.106,132.121 225.135,132.045 225.287 M109.091 230.243 C 109.091 230.936,109.212 231.516,109.361 231.531 C 109.509 231.546,109.946 231.617,110.330 231.689 C 111.261 231.863,111.812 231.492,111.200 231.104 C 110.840 230.876,110.830 230.793,111.161 230.789 C 111.409 230.786,111.611 230.378,111.611 229.883 C 111.611 229.094,111.455 228.983,110.351 228.983 C 109.151 228.983,109.091 229.043,109.091 230.243 M129.057 230.213 C 128.292 231.080,128.476 232.131,129.434 232.371 C 130.608 232.666,131.055 232.395,131.048 231.392 C 131.037 229.943,129.894 229.265,129.057 230.213 M106.882 233.832 C 106.255 234.459,107.053 236.431,107.896 236.339 C 109.754 236.135,110.067 233.663,108.234 233.663 C 107.583 233.663,106.975 233.739,106.882 233.832 M127.237 238.224 C 127.237 238.686,127.438 239.064,127.684 239.064 C 128.302 239.064,128.757 238.239,128.234 238.064 C 128.000 237.986,127.883 237.801,127.975 237.653 C 128.066 237.505,127.938 237.384,127.689 237.384 C 127.440 237.384,127.237 237.762,127.237 238.224 M102.490 243.624 C 102.060 244.054,102.237 244.704,102.785 244.704 C 103.181 244.704,103.219 244.584,102.933 244.239 C 102.633 243.879,102.718 243.807,103.308 243.920 C 103.728 244.001,103.975 243.914,103.859 243.726 C 103.615 243.331,102.841 243.274,102.490 243.624 M122.029 246.279 C 121.021 246.903,121.363 248.734,122.535 248.992 C 123.792 249.268,124.119 248.859,123.930 247.244 C 123.786 246.007,123.062 245.640,122.029 246.279 M99.970 250.105 C 99.527 250.548,99.725 252.293,100.270 252.745 C 100.701 253.103,100.810 253.103,100.810 252.745 C 100.810 252.391,100.925 252.392,101.358 252.752 C 101.822 253.137,101.868 253.107,101.657 252.557 C 101.481 252.097,101.536 251.987,101.848 252.179 C 102.163 252.374,102.257 252.160,102.179 251.428 C 102.051 250.220,100.677 249.398,99.970 250.105 M119.898 251.035 C 119.894 251.382,119.720 251.665,119.511 251.665 C 119.301 251.665,119.244 251.463,119.384 251.215 C 119.573 250.879,119.511 250.883,119.138 251.230 C 118.712 251.626,118.718 251.746,119.175 252.035 C 119.470 252.221,119.536 252.377,119.322 252.380 C 118.452 252.392,119.006 253.414,119.989 253.611 C 121.305 253.874,121.692 253.647,121.692 252.613 C 121.692 251.673,120.646 250.049,120.618 250.945 C 120.603 251.425,120.562 251.425,120.252 250.945 C 119.954 250.484,119.902 250.497,119.898 251.035 M97.215 255.896 C 97.218 256.440,97.340 257.064,97.485 257.281 C 97.801 257.753,99.010 257.803,99.010 257.344 C 99.010 257.168,99.172 257.123,99.370 257.246 C 99.568 257.368,99.743 257.337,99.760 257.177 C 99.776 257.017,99.862 256.440,99.952 255.896 C 100.107 254.952,100.046 254.905,98.662 254.905 C 97.316 254.905,97.210 254.978,97.215 255.896 M117.852 259.826 C 117.852 260.090,118.041 260.306,118.272 260.306 C 118.503 260.306,118.692 260.090,118.692 259.826 C 118.692 259.562,118.503 259.346,118.272 259.346 C 118.041 259.346,117.852 259.562,117.852 259.826 M114.552 264.160 C 114.762 264.412,115.063 264.538,115.222 264.440 C 115.380 264.342,115.574 264.454,115.652 264.688 C 115.825 265.208,116.652 264.757,116.652 264.142 C 116.652 263.879,116.151 263.701,115.411 263.701 C 114.447 263.701,114.256 263.803,114.552 264.160 M93.129 264.866 C 92.545 265.450,92.987 265.912,94.129 265.912 C 95.094 265.912,95.285 265.810,94.989 265.453 C 94.779 265.201,94.464 265.083,94.289 265.192 C 94.113 265.300,93.969 265.217,93.969 265.008 C 93.969 264.580,93.495 264.501,93.129 264.866 M112.175 267.469 C 111.445 268.650,112.126 270.060,113.377 269.955 C 114.575 269.855,115.121 268.413,114.288 267.549 C 114.028 267.279,112.332 267.215,112.175 267.469 M90.474 271.507 C 89.938 272.042,90.610 273.987,91.330 273.987 C 92.642 273.987,93.313 271.921,92.169 271.402 C 91.361 271.036,90.917 271.063,90.474 271.507 M110.171 272.542 C 109.035 273.722,109.276 274.707,110.700 274.707 C 112.130 274.707,112.544 274.163,112.189 272.749 C 111.940 271.757,111.018 271.662,110.171 272.542 M87.978 276.329 C 87.639 277.214,88.273 278.764,89.019 278.873 C 89.365 278.923,89.649 278.735,89.649 278.456 C 89.649 278.176,89.821 277.948,90.030 277.948 C 90.240 277.948,90.297 278.150,90.157 278.398 C 89.968 278.734,90.030 278.730,90.403 278.383 C 90.829 277.987,90.823 277.867,90.366 277.578 C 90.071 277.392,90.005 277.236,90.219 277.233 C 90.729 277.226,90.729 276.149,90.219 276.143 C 90.005 276.140,89.466 276.041,89.023 275.922 C 88.456 275.770,88.147 275.890,87.978 276.329 M107.983 279.838 C 107.630 280.993,108.716 281.727,109.323 280.744 C 109.481 280.488,109.359 280.426,108.981 280.571 C 108.658 280.695,108.283 280.617,108.147 280.397 C 108.003 280.164,108.063 280.098,108.290 280.238 C 108.505 280.371,108.783 280.315,108.907 280.114 C 109.032 279.913,108.881 279.748,108.572 279.748 C 108.263 279.748,107.998 279.788,107.983 279.838 M85.814 280.847 C 85.345 281.316,85.604 282.830,86.245 283.362 C 87.047 284.027,88.250 283.144,88.130 281.980 C 87.997 280.697,86.631 280.029,85.814 280.847 M106.608 285.374 C 106.909 285.736,106.814 285.805,106.179 285.682 C 105.582 285.567,105.470 285.632,105.763 285.925 C 106.258 286.420,107.291 286.065,107.291 285.400 C 107.291 285.130,107.050 284.908,106.756 284.908 C 106.360 284.908,106.322 285.029,106.608 285.374 M103.240 288.637 C 102.894 288.728,102.610 288.961,102.610 289.157 C 102.610 289.352,102.813 289.397,103.060 289.257 C 103.420 289.054,103.420 289.100,103.060 289.488 C 102.152 290.467,102.516 291.269,103.870 291.269 C 105.063 291.269,105.131 291.204,105.131 290.048 C 105.131 289.061,104.415 288.097,103.931 288.431 C 103.898 288.454,103.587 288.546,103.240 288.637 M81.248 290.789 C 80.804 291.233,81.003 291.585,81.668 291.535 C 82.031 291.507,82.328 291.274,82.328 291.017 C 82.328 290.524,81.655 290.382,81.248 290.789 M100.778 293.449 C 100.576 293.574,100.347 294.187,100.268 294.812 C 100.107 296.089,102.377 296.615,102.840 295.409 C 103.413 293.917,102.076 292.647,100.778 293.449 M265.020 295.770 C 265.008 295.968,265.155 296.373,265.347 296.670 C 265.621 297.094,265.697 297.104,265.701 296.716 C 265.706 296.297,265.803 296.297,266.337 296.716 C 266.907 297.163,266.920 297.150,266.476 296.584 C 266.206 296.239,265.855 296.038,265.697 296.136 C 265.538 296.234,265.326 296.111,265.226 295.862 C 265.125 295.613,265.033 295.572,265.020 295.770 M78.662 297.399 C 78.230 298.098,78.870 299.934,79.508 299.829 C 81.020 299.580,81.541 297.617,80.191 297.255 C 79.088 296.959,78.924 296.975,78.662 297.399 M99.015 301.140 C 99.025 301.826,99.681 302.600,99.980 302.281 C 100.140 302.111,100.061 301.897,99.805 301.806 C 99.479 301.690,99.450 301.507,99.709 301.195 C 99.974 300.876,99.928 300.750,99.544 300.750 C 99.250 300.750,99.012 300.926,99.015 301.140 M76.248 302.128 C 75.918 303.119,76.420 304.590,77.089 304.590 C 77.462 304.590,77.770 304.388,77.773 304.140 C 77.777 303.840,77.895 303.870,78.128 304.230 C 78.505 304.815,78.542 304.723,78.631 302.970 C 78.685 301.921,76.567 301.172,76.248 302.128 M97.103 306.511 C 97.001 306.775,97.146 306.991,97.424 306.991 C 97.702 306.991,97.930 306.775,97.930 306.511 C 97.930 306.247,97.785 306.031,97.608 306.031 C 97.431 306.031,97.204 306.247,97.103 306.511 " stroke="none" fill="#bca6d3" fill-rule="evenodd"></path><path id="path28" d="M128.533 0.856 C 128.533 2.391,129.193 2.561,135.256 2.584 C 142.866 2.612,142.214 2.736,142.214 1.260 L 142.214 0.000 135.374 0.000 L 128.533 0.000 128.533 0.856 M259.226 0.720 C 259.226 1.200,259.466 1.440,259.946 1.440 C 260.426 1.440,260.666 1.200,260.666 0.720 C 260.666 0.240,260.426 0.000,259.946 0.000 C 259.466 0.000,259.226 0.240,259.226 0.720 M123.852 2.873 C 123.852 5.468,126.803 5.356,127.024 2.754 L 127.136 1.440 125.494 1.440 L 123.852 1.440 123.852 2.873 M142.934 2.644 C 142.934 3.895,143.820 5.041,144.788 5.041 C 145.083 5.041,145.655 5.405,146.058 5.851 C 146.462 6.296,147.099 6.929,147.474 7.258 C 147.848 7.586,148.428 8.250,148.761 8.734 C 149.921 10.416,151.755 9.918,151.755 7.921 C 151.755 6.356,151.715 6.297,150.585 6.188 C 149.726 6.105,149.415 5.897,149.415 5.407 C 149.415 4.120,148.990 3.600,147.936 3.600 C 147.019 3.600,146.895 3.471,146.895 2.520 C 146.895 1.451,146.875 1.440,144.914 1.440 L 142.934 1.440 142.934 2.644 M119.099 7.186 C 119.021 7.851,118.746 8.135,118.092 8.227 C 116.859 8.400,115.902 11.731,116.821 12.650 C 117.824 13.654,120.612 11.612,120.612 9.874 C 120.612 9.524,120.874 8.948,121.195 8.594 C 122.146 7.543,121.581 6.090,120.261 6.191 C 119.425 6.255,119.183 6.461,119.099 7.186 M281.662 9.292 C 280.844 9.799,280.955 10.948,281.818 10.913 C 283.588 10.843,283.613 10.825,283.419 9.811 C 283.315 9.266,283.159 9.030,283.074 9.286 C 282.968 9.601,282.781 9.637,282.491 9.397 C 282.256 9.202,281.883 9.154,281.662 9.292 M151.228 11.497 C 150.319 13.196,151.196 16.064,152.691 16.284 C 153.876 16.458,154.083 15.953,154.090 12.871 L 154.095 10.801 152.848 10.801 C 151.983 10.801,151.486 11.015,151.228 11.497 " stroke="none" fill="#ffa19f" fill-rule="evenodd"></path><path id="path29" d="M200.362 153.739 C 200.560 154.059,200.086 154.250,199.372 154.139 C 199.225 154.116,199.103 200.433,199.101 257.067 L 199.097 360.036 295.408 360.036 C 390.323 360.036,391.719 360.026,391.719 359.341 C 391.719 358.903,392.008 358.603,392.501 358.531 C 393.063 358.448,393.322 358.113,393.423 357.336 C 393.500 356.742,393.747 356.191,393.971 356.112 C 394.498 355.927,395.891 354.534,396.076 354.007 C 396.155 353.783,396.706 353.536,397.300 353.459 C 398.077 353.358,398.412 353.099,398.495 352.537 C 398.567 352.044,398.867 351.755,399.305 351.755 C 399.990 351.755,400.000 350.324,400.000 252.563 L 400.000 153.372 300.071 153.377 C 234.254 153.381,200.217 153.505,200.362 153.739 M0.000 251.485 C 0.000 347.077,0.010 348.515,0.694 348.515 C 1.752 348.515,2.646 349.549,2.129 350.173 C 1.899 350.449,1.845 350.675,2.008 350.675 C 2.171 350.675,2.110 350.869,1.872 351.107 C 0.891 352.088,1.472 353.944,2.823 354.148 C 3.559 354.260,3.779 354.660,3.933 356.166 C 3.948 356.314,4.446 356.436,5.041 356.436 C 6.094 356.436,6.324 356.790,6.147 358.146 C 6.115 358.393,6.218 358.608,6.375 358.623 C 6.532 358.637,7.037 358.719,7.497 358.804 C 7.957 358.890,8.682 358.716,9.108 358.418 C 10.282 357.595,11.051 357.763,11.579 358.956 L 12.057 360.036 105.400 360.036 L 198.744 360.036 198.738 257.246 L 198.732 154.455 99.366 154.455 L 0.000 154.455 0.000 251.485 M101.580 189.379 L 142.574 189.379 142.574 196.580 C 142.574 204.054,142.595 203.954,141.074 203.804 C 140.220 203.720,139.425 208.312,140.166 209.053 C 141.037 209.924,140.390 211.341,139.119 211.341 L 137.825 211.341 137.949 213.591 L 138.074 215.842 136.676 215.956 L 135.278 216.071 135.467 218.158 C 135.571 219.305,135.514 220.469,135.340 220.743 C 135.113 221.102,135.023 221.116,135.019 220.792 C 135.016 220.545,134.842 220.342,134.632 220.342 C 134.423 220.342,134.373 220.545,134.521 220.792 C 134.737 221.151,134.680 221.152,134.239 220.795 C 133.936 220.549,133.581 220.455,133.450 220.585 C 133.040 220.996,133.193 222.141,133.663 222.171 C 134.023 222.193,134.023 222.235,133.663 222.381 C 133.416 222.481,133.213 223.116,133.213 223.792 C 133.213 224.469,133.078 225.023,132.913 225.023 C 132.748 225.023,132.613 225.266,132.613 225.563 C 132.613 225.860,132.748 226.103,132.913 226.103 C 133.078 226.103,133.211 226.386,133.208 226.733 C 133.204 227.216,133.131 227.251,132.898 226.882 C 132.730 226.618,132.464 226.455,132.307 226.522 C 132.150 226.588,131.980 226.358,131.929 226.011 C 131.875 225.640,131.995 225.477,132.220 225.616 C 132.447 225.757,132.499 225.683,132.348 225.438 C 131.331 223.793,130.702 225.338,130.796 229.247 L 130.873 232.403 129.703 232.312 L 128.533 232.220 128.533 234.382 C 128.533 236.043,128.408 236.554,127.993 236.589 C 127.696 236.613,127.291 236.674,127.093 236.724 C 126.895 236.773,126.592 236.834,126.420 236.859 C 126.152 236.897,125.906 239.491,125.958 241.717 C 125.974 242.367,125.958 242.367,125.492 241.730 C 124.506 240.382,123.902 241.664,123.896 245.118 C 123.893 246.838,123.881 248.465,123.871 248.735 C 123.857 249.097,123.529 249.164,122.617 248.993 C 121.227 248.733,120.794 249.762,121.479 251.702 C 122.032 253.269,121.555 253.900,120.030 253.614 L 118.718 253.368 118.878 255.577 C 118.998 257.228,118.918 257.797,118.565 257.831 C 118.305 257.856,117.930 257.916,117.732 257.966 C 117.534 258.015,117.231 258.076,117.059 258.101 C 116.887 258.126,116.725 259.052,116.700 260.159 C 116.647 262.462,116.482 262.877,115.735 262.590 C 114.813 262.236,114.264 263.101,114.175 265.045 C 114.128 266.078,114.017 267.041,113.928 267.184 C 113.839 267.328,113.915 267.500,114.095 267.566 C 115.255 267.993,114.635 269.850,113.296 269.960 L 111.921 270.073 112.036 272.300 L 112.151 274.527 110.760 274.642 L 109.368 274.756 109.521 276.874 L 109.674 278.992 108.573 279.100 C 107.486 279.206,107.469 279.239,107.364 281.458 C 107.257 283.693,107.140 283.864,105.805 283.735 C 105.087 283.665,104.923 284.101,104.801 286.406 C 104.748 287.394,104.629 288.326,104.537 288.476 C 104.444 288.626,104.540 288.749,104.749 288.749 C 104.959 288.749,105.131 289.316,105.131 290.009 C 105.131 291.214,105.074 291.269,103.843 291.269 L 102.556 291.269 102.673 293.519 L 102.790 295.770 101.399 295.884 L 100.007 295.998 100.161 298.134 L 100.316 300.270 99.123 300.270 C 97.851 300.270,97.655 300.550,98.380 301.331 C 98.740 301.719,98.740 301.765,98.380 301.562 C 98.132 301.422,97.930 301.479,97.930 301.689 C 97.930 301.899,98.132 302.083,98.380 302.099 C 98.740 302.121,98.740 302.163,98.380 302.309 C 98.132 302.409,97.930 303.044,97.930 303.720 C 97.930 304.397,97.758 304.950,97.549 304.950 C 97.339 304.950,97.251 305.086,97.353 305.251 C 97.455 305.416,97.309 305.551,97.030 305.551 C 96.750 305.551,96.614 305.400,96.728 305.216 C 96.842 305.032,96.632 304.939,96.262 305.009 C 95.801 305.096,95.554 305.503,95.477 306.304 L 95.364 307.471 85.875 307.471 L 76.387 307.471 76.267 304.913 C 76.123 301.825,76.255 301.558,77.762 301.889 L 78.927 302.145 78.797 299.677 L 78.668 297.210 79.838 297.301 L 81.008 297.392 81.008 295.231 C 81.008 293.570,81.133 293.059,81.548 293.024 C 81.845 293.000,82.250 292.939,82.448 292.889 C 82.646 292.840,82.949 292.779,83.121 292.754 C 83.389 292.716,83.635 290.122,83.583 287.896 C 83.568 287.264,83.594 287.261,84.024 287.849 C 84.543 288.559,86.049 287.944,86.049 287.021 C 86.049 286.737,85.868 286.655,85.599 286.817 C 85.250 287.026,85.243 286.969,85.565 286.568 C 86.068 285.941,86.249 283.803,85.884 282.808 C 85.377 281.428,85.374 281.238,85.856 280.839 C 86.122 280.618,86.748 280.540,87.247 280.665 C 88.294 280.927,88.673 279.643,88.062 277.911 C 87.515 276.363,87.989 275.714,89.464 275.990 C 90.853 276.251,91.222 274.970,90.389 272.779 C 89.956 271.641,90.648 270.983,91.937 271.306 C 92.839 271.533,92.855 271.501,92.961 269.251 C 93.060 267.167,93.135 266.976,93.824 267.070 C 94.523 267.166,95.307 266.614,95.379 265.977 C 95.396 265.828,95.410 264.998,95.410 264.131 C 95.410 262.665,95.485 262.541,96.501 262.338 L 97.593 262.120 97.429 258.512 L 97.264 254.905 98.636 254.905 C 100.042 254.905,100.904 253.343,99.998 252.438 C 99.146 251.585,99.872 250.042,101.080 250.136 L 102.250 250.228 102.250 248.066 C 102.250 245.876,102.346 245.740,103.780 245.886 C 104.127 245.921,104.431 245.778,104.455 245.567 C 104.480 245.357,104.541 245.023,104.590 244.824 C 104.640 244.626,104.701 243.735,104.725 242.844 C 104.769 241.294,104.817 241.224,105.851 241.224 C 106.701 241.224,106.931 241.066,106.931 240.483 C 106.931 240.075,106.796 239.825,106.631 239.927 C 106.466 240.029,106.331 239.884,106.331 239.604 C 106.331 239.324,106.477 239.186,106.655 239.296 C 106.840 239.410,106.943 238.280,106.895 236.670 L 106.811 233.843 108.093 233.734 C 109.272 233.633,110.509 231.503,109.389 231.503 C 109.225 231.503,109.091 230.936,109.091 230.243 C 109.091 229.043,109.151 228.983,110.351 228.983 L 111.611 228.983 111.611 226.823 C 111.611 225.542,111.766 224.662,111.992 224.662 C 112.202 224.662,112.252 224.460,112.103 224.212 C 111.917 223.902,112.021 223.915,112.438 224.253 C 113.584 225.182,114.131 224.503,114.131 222.154 L 114.131 219.982 115.212 219.982 C 116.376 219.982,116.552 219.686,115.842 218.921 C 115.482 218.533,115.482 218.487,115.842 218.690 C 116.187 218.885,116.292 218.188,116.292 215.683 L 116.292 212.421 117.552 212.421 C 118.656 212.421,118.812 212.310,118.812 211.521 C 118.812 211.026,118.985 210.621,119.198 210.621 C 119.410 210.621,119.329 210.366,119.018 210.055 C 118.664 209.702,118.452 208.856,118.452 207.805 L 118.452 206.121 89.289 206.223 C 67.402 206.299,60.126 206.221,60.126 205.909 C 60.126 205.619,59.989 205.605,59.676 205.861 C 59.428 206.064,58.850 206.287,58.389 206.356 L 57.553 206.481 57.489 197.713 L 57.426 188.946 59.006 189.162 C 59.875 189.281,79.034 189.379,101.580 189.379 M305.959 189.811 C 306.527 190.379,306.514 190.931,305.941 190.607 C 305.588 190.408,305.584 190.455,305.925 190.823 C 306.282 191.208,306.461 191.209,306.924 190.825 C 307.394 190.434,307.454 190.445,307.283 190.888 C 307.050 191.497,306.937 191.472,311.331 191.765 C 314.151 191.953,314.683 192.088,314.865 192.663 C 314.983 193.035,315.272 193.364,315.506 193.394 C 316.056 193.465,316.605 193.593,316.832 193.704 C 317.042 193.807,318.138 193.918,320.522 194.079 C 321.675 194.156,322.232 194.355,322.232 194.688 C 322.232 194.960,322.354 195.108,322.502 195.019 C 322.651 194.929,322.998 195.099,323.275 195.398 C 323.715 195.874,323.670 195.911,322.915 195.697 C 322.285 195.518,322.192 195.549,322.572 195.810 C 322.857 196.007,323.544 196.111,324.097 196.041 C 324.650 195.971,325.196 196.063,325.309 196.246 C 325.422 196.430,325.824 196.580,326.203 196.580 C 326.629 196.580,326.820 196.763,326.705 197.062 C 326.603 197.327,326.770 197.752,327.076 198.006 C 327.530 198.382,327.633 198.381,327.633 198.001 C 327.633 197.699,327.871 197.778,328.307 198.227 C 328.678 198.608,328.951 199.001,328.914 199.100 C 328.877 199.199,329.221 199.639,329.680 200.077 C 330.138 200.516,330.513 200.793,330.513 200.693 C 330.513 200.593,330.739 200.721,331.015 200.976 C 331.292 201.231,331.440 201.569,331.344 201.726 C 331.069 202.181,332.019 203.112,332.551 202.908 C 332.850 202.793,333.033 202.984,333.033 203.410 C 333.033 203.789,333.181 204.189,333.362 204.301 C 333.542 204.412,333.624 204.949,333.543 205.492 C 333.362 206.709,333.771 207.400,334.716 207.471 C 335.409 207.523,335.550 207.832,335.575 209.351 C 335.581 209.741,335.847 210.349,336.166 210.701 C 336.580 211.158,336.614 211.341,336.285 211.341 C 335.913 211.341,335.913 211.447,336.287 211.898 C 336.541 212.204,336.966 212.371,337.231 212.269 C 337.624 212.118,337.714 213.357,337.714 218.934 C 337.714 223.602,337.594 225.711,337.338 225.553 C 337.131 225.425,336.719 225.523,336.421 225.770 C 336.043 226.084,336.001 226.294,336.283 226.469 C 336.567 226.644,336.524 226.881,336.139 227.266 C 335.838 227.567,335.585 228.117,335.577 228.488 C 335.547 229.905,335.423 230.385,335.134 230.206 C 334.968 230.104,334.833 230.273,334.833 230.582 C 334.833 230.891,334.662 231.143,334.452 231.143 C 334.242 231.143,334.193 230.941,334.341 230.693 C 334.525 230.387,334.416 230.401,334.003 230.737 C 333.667 231.009,333.393 231.437,333.393 231.688 C 333.393 231.940,332.988 232.247,332.493 232.371 C 331.829 232.538,331.593 232.836,331.593 233.511 C 331.593 234.029,331.437 234.329,331.233 234.203 C 331.035 234.081,330.873 234.243,330.873 234.563 C 330.873 234.884,330.711 235.046,330.513 234.923 C 330.315 234.801,330.153 234.954,330.153 235.262 C 330.153 235.571,329.981 235.824,329.772 235.824 C 329.562 235.824,329.502 235.621,329.637 235.374 C 329.773 235.126,329.452 235.369,328.924 235.914 C 328.065 236.799,327.362 237.054,325.923 237.000 C 325.675 236.991,325.473 237.128,325.473 237.304 C 325.473 237.480,325.278 237.583,325.039 237.534 C 324.801 237.484,324.599 237.690,324.589 237.991 C 324.568 238.672,322.952 240.466,322.952 239.808 C 322.952 239.429,322.846 239.424,322.412 239.784 C 322.115 240.030,321.872 240.442,321.872 240.700 C 321.872 241.119,319.939 241.825,319.262 241.653 C 319.113 241.615,318.992 241.756,318.992 241.967 C 318.992 242.177,318.627 242.299,318.182 242.237 C 317.578 242.153,317.399 242.285,317.478 242.754 C 317.536 243.101,317.434 243.384,317.253 243.384 C 316.954 243.384,316.856 243.877,316.772 245.815 C 316.672 248.117,317.335 249.926,318.162 249.608 C 318.578 249.449,318.667 249.517,318.466 249.842 C 318.253 250.187,318.385 250.238,318.992 250.045 C 319.544 249.870,319.724 249.915,319.556 250.186 C 319.391 250.453,319.794 250.585,320.771 250.585 C 321.854 250.585,322.232 250.730,322.232 251.146 C 322.232 251.455,322.394 251.608,322.592 251.485 C 322.790 251.363,322.952 251.421,322.952 251.614 C 322.952 251.807,322.750 252.058,322.502 252.172 C 322.255 252.286,322.417 252.288,322.862 252.178 C 323.322 252.064,323.672 252.143,323.672 252.361 C 323.672 252.572,323.794 252.714,323.942 252.677 C 324.436 252.551,326.553 253.158,326.553 253.425 C 326.553 253.570,326.809 254.002,327.122 254.387 C 327.684 255.076,327.688 255.076,327.466 254.365 C 327.293 253.811,327.473 253.893,328.247 254.718 C 328.800 255.309,329.253 256.038,329.253 256.339 C 329.254 256.639,329.416 256.891,329.613 256.899 C 330.307 256.923,331.520 257.918,331.361 258.332 C 331.179 258.805,332.215 259.804,332.545 259.474 C 332.854 259.165,333.930 260.335,333.950 261.002 C 333.959 261.312,334.162 261.526,334.400 261.476 C 334.639 261.427,334.833 261.558,334.833 261.767 C 334.833 261.977,334.955 262.075,335.104 261.985 C 335.449 261.776,336.300 262.680,336.021 262.959 C 335.687 263.293,336.703 264.317,337.184 264.132 C 337.483 264.017,337.687 264.662,337.835 266.186 C 338.164 269.591,338.215 269.813,338.794 270.324 C 339.274 270.748,339.274 270.771,338.794 270.536 C 338.482 270.383,338.378 270.408,338.549 270.595 C 338.712 270.772,339.117 270.920,339.449 270.923 C 340.509 270.931,340.539 279.559,339.481 280.125 C 338.852 280.462,338.762 280.449,339.000 280.054 C 339.244 279.649,339.192 279.649,338.690 280.056 C 338.359 280.325,338.093 280.892,338.099 281.316 C 338.128 283.271,337.583 286.910,337.289 286.729 C 337.109 286.618,336.719 286.729,336.421 286.976 C 336.080 287.259,336.016 287.510,336.249 287.654 C 336.472 287.791,336.335 288.124,335.906 288.492 C 335.514 288.827,335.194 289.028,335.194 288.938 C 335.194 288.848,334.819 289.133,334.360 289.572 C 333.902 290.010,333.572 290.465,333.627 290.583 C 333.907 291.183,332.932 293.413,332.302 293.613 C 331.702 293.803,331.444 294.346,331.526 295.245 C 331.535 295.352,331.059 295.477,330.466 295.522 C 328.810 295.648,328.569 295.729,328.096 296.310 C 327.744 296.741,327.653 296.751,327.644 296.356 C 327.635 295.951,327.532 295.945,327.076 296.323 C 326.770 296.577,326.588 296.962,326.671 297.179 C 326.754 297.396,326.600 297.782,326.328 298.036 C 326.055 298.290,325.833 298.380,325.833 298.235 C 325.833 298.091,325.578 298.287,325.266 298.671 C 324.954 299.055,324.817 299.142,324.961 298.864 C 325.130 298.540,325.080 298.447,324.824 298.606 C 324.604 298.742,324.514 299.089,324.625 299.376 C 324.841 299.939,323.158 300.800,322.562 300.431 C 322.381 300.319,322.030 300.354,321.782 300.509 C 321.535 300.664,321.170 300.811,320.972 300.836 C 320.774 300.860,320.420 300.905,320.186 300.935 C 319.952 300.965,319.664 301.294,319.546 301.666 C 319.347 302.294,317.344 302.760,314.581 302.821 C 314.235 302.829,313.951 302.994,313.951 303.188 C 313.951 303.383,313.668 303.494,313.321 303.436 C 312.934 303.371,312.733 303.526,312.800 303.837 C 313.019 304.855,311.712 304.947,297.300 304.934 C 284.432 304.922,282.628 304.853,282.628 304.374 C 282.628 304.074,282.466 303.928,282.268 304.050 C 282.070 304.173,281.908 304.115,281.908 303.922 C 281.908 303.728,282.111 303.477,282.358 303.364 C 282.606 303.250,282.444 303.247,281.998 303.358 C 281.553 303.468,281.188 303.413,281.188 303.235 C 281.188 303.056,280.986 302.887,280.738 302.858 C 276.922 302.419,276.300 302.260,275.685 301.567 C 275.315 301.151,275.116 301.013,275.241 301.260 C 275.367 301.508,275.298 301.710,275.089 301.710 C 274.879 301.710,274.707 301.458,274.707 301.149 C 274.707 300.840,274.557 300.681,274.372 300.795 C 274.188 300.909,273.951 300.862,273.845 300.691 C 273.739 300.520,273.163 300.366,272.565 300.349 C 271.199 300.311,270.644 299.978,270.887 299.345 C 270.991 299.074,270.896 298.742,270.676 298.606 C 270.419 298.447,270.370 298.540,270.538 298.864 C 270.730 299.235,270.673 299.226,270.324 298.830 C 270.062 298.533,269.644 298.274,269.397 298.254 C 269.149 298.234,268.629 298.194,268.241 298.164 C 267.853 298.134,267.104 297.664,266.576 297.120 C 266.048 296.575,265.727 296.332,265.862 296.580 C 265.998 296.827,265.957 297.030,265.772 297.030 C 265.284 297.030,264.591 296.106,264.870 295.826 C 265.000 295.696,264.827 295.590,264.485 295.590 C 264.143 295.590,263.964 295.428,264.086 295.230 C 264.209 295.032,264.056 294.869,263.748 294.869 C 263.439 294.869,263.186 294.698,263.186 294.488 C 263.186 294.278,263.389 294.229,263.636 294.377 C 263.930 294.554,263.911 294.431,263.581 294.025 C 263.303 293.683,262.817 293.440,262.501 293.487 C 261.465 293.638,259.308 293.062,258.851 292.511 C 258.476 292.059,258.514 292.008,259.085 292.190 C 259.737 292.399,259.736 292.383,259.067 291.839 C 258.683 291.525,258.237 291.269,258.077 291.269 C 257.468 291.269,257.818 290.227,258.500 290.011 C 258.892 289.886,259.479 289.225,259.803 288.541 C 260.171 287.766,260.614 287.333,260.980 287.393 C 261.364 287.456,261.530 287.272,261.460 286.859 C 261.402 286.512,261.531 286.229,261.746 286.229 C 261.962 286.229,262.097 286.026,262.047 285.779 C 261.498 283.045,265.810 282.121,267.927 284.519 C 268.320 284.964,268.536 285.086,268.408 284.788 C 268.279 284.491,268.428 284.563,268.740 284.947 C 269.052 285.332,269.307 285.535,269.307 285.400 C 269.307 285.264,269.712 285.505,270.207 285.936 C 271.139 286.746,271.448 287.544,270.657 287.097 C 270.304 286.898,270.301 286.944,270.642 287.313 C 270.998 287.698,271.178 287.698,271.640 287.315 C 272.119 286.917,272.169 286.938,271.971 287.453 C 271.843 287.786,271.880 288.017,272.053 287.967 C 272.918 287.718,274.561 288.417,274.887 289.174 C 275.092 289.649,275.558 290.009,275.968 290.009 C 276.364 290.009,276.890 290.140,277.138 290.300 C 277.385 290.460,277.736 290.500,277.918 290.388 C 278.532 290.008,280.196 290.881,279.971 291.466 C 279.488 292.726,281.259 292.883,295.950 292.881 C 310.229 292.879,311.791 292.817,311.791 292.248 C 311.791 292.079,312.156 292.031,312.601 292.142 C 313.047 292.252,313.209 292.250,312.961 292.136 C 312.714 292.022,312.511 291.771,312.511 291.578 C 312.511 291.385,312.673 291.327,312.871 291.449 C 313.069 291.572,313.231 291.452,313.231 291.184 C 313.231 290.877,313.729 290.663,314.572 290.606 C 315.309 290.556,316.200 290.255,316.552 289.937 C 316.976 289.553,317.192 289.505,317.192 289.794 C 317.192 290.465,317.916 289.866,318.288 288.887 C 318.470 288.408,319.024 287.862,319.519 287.674 C 320.110 287.449,320.347 287.146,320.210 286.789 C 320.074 286.436,320.325 286.098,320.925 285.824 C 321.434 285.593,321.747 285.237,321.622 285.035 C 321.483 284.810,321.632 284.757,322.005 284.900 C 322.679 285.159,323.312 283.972,323.312 282.451 C 323.312 281.605,323.995 280.660,324.801 280.392 C 325.033 280.315,325.246 279.933,325.274 279.543 C 325.303 279.154,325.424 278.676,325.544 278.482 C 325.924 277.863,325.808 267.507,325.422 267.507 C 325.225 267.507,325.166 267.184,325.292 266.790 C 325.462 266.252,325.292 265.969,324.613 265.660 C 323.792 265.286,323.020 263.593,323.258 262.692 C 323.304 262.519,323.052 262.488,322.697 262.623 C 322.180 262.820,322.141 262.779,322.502 262.416 C 322.750 262.166,322.940 261.711,322.924 261.404 C 322.905 261.033,322.835 260.997,322.714 261.296 C 322.614 261.544,322.374 261.746,322.181 261.746 C 321.988 261.746,321.930 261.584,322.052 261.386 C 322.175 261.188,322.092 261.026,321.868 261.026 C 321.644 261.026,321.218 260.783,320.921 260.486 C 320.624 260.189,320.504 259.946,320.655 259.946 C 320.806 259.946,320.615 259.691,320.231 259.379 C 319.846 259.068,319.775 258.937,320.072 259.088 C 320.526 259.320,320.538 259.272,320.147 258.790 C 319.892 258.475,319.269 258.113,318.764 257.986 C 318.158 257.834,317.914 257.579,318.046 257.235 C 318.159 256.940,318.056 256.751,317.809 256.800 C 317.568 256.847,317.410 256.689,317.457 256.449 C 317.507 256.196,317.317 256.098,317.007 256.217 C 316.713 256.330,316.472 256.243,316.472 256.024 C 316.472 255.805,316.350 255.645,316.202 255.668 C 315.342 255.804,310.985 255.592,311.155 255.422 C 311.479 255.098,309.858 253.591,309.361 253.754 C 309.113 253.836,308.911 253.716,308.911 253.488 C 308.911 253.260,308.708 253.100,308.461 253.132 C 308.213 253.164,303.029 253.171,296.940 253.148 L 285.869 253.105 285.869 247.165 L 285.869 241.224 294.599 241.181 C 299.401 241.158,303.533 241.165,303.780 241.197 C 304.028 241.229,304.230 241.069,304.230 240.841 C 304.230 240.613,304.433 240.494,304.680 240.575 C 305.178 240.739,306.798 239.232,306.474 238.907 C 306.289 238.722,312.756 238.529,313.898 238.685 C 314.165 238.722,314.278 238.581,314.149 238.372 C 314.010 238.147,314.127 238.074,314.436 238.192 C 314.723 238.302,315.177 238.127,315.445 237.802 C 316.536 236.480,317.123 235.906,317.523 235.773 C 317.754 235.696,317.970 235.282,318.003 234.853 C 318.035 234.424,318.149 234.090,318.257 234.111 C 318.824 234.221,320.404 233.111,320.745 232.364 C 320.960 231.890,321.343 231.501,321.594 231.498 C 321.913 231.494,321.888 231.379,321.512 231.121 C 321.085 230.828,321.160 230.773,321.872 230.857 C 322.560 230.938,322.747 230.814,322.666 230.333 C 322.608 229.986,322.710 229.703,322.892 229.703 C 323.364 229.703,323.450 228.480,323.446 221.782 C 323.442 215.406,323.114 213.696,321.974 214.106 C 321.621 214.232,321.446 214.210,321.585 214.056 C 321.724 213.902,321.597 213.535,321.303 213.241 C 320.999 212.937,320.861 212.410,320.984 212.023 C 321.109 211.629,321.029 211.341,320.795 211.341 C 320.572 211.341,320.491 211.178,320.614 210.978 C 321.160 210.094,319.313 208.135,318.182 208.398 C 318.033 208.433,317.912 208.208,317.912 207.900 C 317.912 207.591,317.750 207.438,317.552 207.561 C 317.354 207.683,317.192 207.625,317.192 207.432 C 317.192 207.239,317.394 206.988,317.642 206.874 C 317.889 206.760,317.727 206.758,317.282 206.868 C 316.822 206.982,316.472 206.903,316.472 206.685 C 316.472 206.474,316.350 206.328,316.202 206.361 C 315.405 206.540,313.300 205.821,313.453 205.423 C 313.547 205.177,313.374 204.768,313.068 204.514 C 312.617 204.140,312.511 204.140,312.511 204.512 C 312.511 204.849,312.342 204.823,311.881 204.416 C 311.432 204.019,310.375 203.844,308.191 203.805 C 304.033 203.729,303.150 203.529,303.150 202.658 C 303.150 202.460,303.353 202.419,303.600 202.568 C 303.928 202.765,303.921 202.679,303.575 202.252 C 303.313 201.929,302.584 201.643,301.955 201.617 C 294.375 201.300,290.418 201.278,290.069 201.552 C 289.838 201.733,289.244 201.844,288.749 201.797 C 287.623 201.690,286.491 202.250,286.805 202.759 C 287.245 203.471,286.060 203.769,282.774 203.775 C 279.961 203.780,279.408 203.882,278.848 204.500 C 278.151 205.271,277.375 205.497,277.802 204.805 C 277.966 204.539,277.900 204.487,277.619 204.661 C 277.377 204.811,277.259 205.144,277.358 205.402 C 277.533 205.857,275.478 206.521,274.437 206.345 C 274.190 206.303,273.987 206.445,273.987 206.661 C 273.987 206.876,273.704 207.005,273.357 206.946 C 272.938 206.876,272.761 207.042,272.827 207.444 C 272.949 208.182,272.562 208.444,271.229 208.528 C 270.667 208.563,270.005 208.744,269.757 208.930 C 269.509 209.117,269.307 209.137,269.307 208.976 C 269.307 208.815,269.052 208.998,268.740 209.382 C 268.428 209.767,268.298 209.838,268.449 209.541 C 268.681 209.087,268.633 209.075,268.151 209.466 C 267.836 209.721,267.481 210.314,267.364 210.783 C 267.201 211.431,266.955 211.598,266.338 211.484 C 265.892 211.401,265.729 211.429,265.977 211.547 C 266.224 211.665,266.427 211.919,266.427 212.112 C 266.427 212.306,266.265 212.364,266.067 212.241 C 265.869 212.119,265.707 212.283,265.707 212.606 C 265.707 213.465,264.455 213.106,264.410 212.235 C 264.390 211.842,264.330 211.359,264.277 211.161 C 264.224 210.963,264.203 210.673,264.229 210.516 C 264.322 209.957,263.490 208.780,263.094 208.912 C 262.570 209.086,261.360 207.873,261.476 207.291 C 261.526 207.043,261.355 206.884,261.097 206.937 C 260.839 206.990,260.377 206.783,260.071 206.477 C 259.408 205.814,260.015 204.787,260.976 204.946 C 261.292 204.998,261.559 204.878,261.571 204.680 C 261.612 203.975,262.602 202.775,263.013 202.933 C 263.486 203.114,264.485 202.078,264.155 201.749 C 263.846 201.440,265.016 200.363,265.682 200.343 C 265.993 200.334,266.206 200.131,266.157 199.893 C 266.107 199.655,266.238 199.460,266.448 199.460 C 266.658 199.460,266.729 199.298,266.607 199.100 C 266.412 198.786,267.466 198.550,268.355 198.710 C 268.524 198.740,268.863 198.599,269.108 198.396 C 269.353 198.192,269.660 198.133,269.790 198.263 C 269.920 198.393,270.027 198.230,270.027 197.900 C 270.027 197.570,270.199 197.300,270.408 197.300 C 270.618 197.300,270.679 197.502,270.543 197.750 C 270.407 197.997,270.728 197.754,271.256 197.210 C 272.115 196.324,272.818 196.069,274.257 196.123 C 274.505 196.132,274.707 195.996,274.707 195.820 C 274.707 195.644,274.910 195.540,275.158 195.590 C 275.410 195.640,275.561 195.401,275.501 195.047 C 275.383 194.347,276.876 193.587,277.728 193.914 C 278.007 194.021,278.344 193.933,278.476 193.718 C 278.609 193.503,278.868 193.421,279.053 193.535 C 279.237 193.649,279.388 193.489,279.388 193.181 C 279.388 192.872,279.560 192.619,279.769 192.619 C 279.979 192.619,280.050 192.781,279.928 192.979 C 279.806 193.177,279.866 193.339,280.063 193.339 C 280.259 193.339,280.518 193.029,280.639 192.649 C 280.834 192.033,281.330 191.938,285.253 191.769 C 291.149 191.514,290.909 191.541,290.909 191.141 C 290.909 190.947,291.193 190.835,291.539 190.893 C 291.926 190.958,292.127 190.804,292.060 190.492 C 292.000 190.213,292.162 189.851,292.420 189.687 C 293.195 189.196,305.455 189.308,305.959 189.811 M59.250 204.102 C 59.114 204.321,59.185 204.500,59.406 204.500 C 59.627 204.500,59.708 204.662,59.586 204.860 C 59.464 205.059,59.535 205.221,59.745 205.221 C 60.203 205.221,60.225 204.854,59.805 204.192 C 59.590 203.851,59.421 203.824,59.250 204.102 M138.018 209.016 C 137.694 209.861,138.044 209.960,138.541 209.165 C 138.819 208.719,138.843 208.461,138.606 208.461 C 138.400 208.461,138.135 208.711,138.018 209.016 M135.014 221.962 C 135.323 222.335,135.337 222.502,135.058 222.502 C 134.835 222.502,134.653 222.352,134.653 222.169 C 134.653 221.985,134.370 221.761,134.023 221.670 C 133.492 221.531,133.485 221.499,133.979 221.464 C 134.302 221.441,134.767 221.665,135.014 221.962 M112.438 223.102 C 112.337 223.366,112.110 223.582,111.933 223.582 C 111.756 223.582,111.611 223.366,111.611 223.102 C 111.611 222.838,111.839 222.622,112.117 222.622 C 112.395 222.622,112.540 222.838,112.438 223.102 M127.975 237.653 C 127.883 237.801,128.000 237.986,128.234 238.064 C 128.757 238.239,128.302 239.064,127.684 239.064 C 127.438 239.064,127.237 238.686,127.237 238.224 C 127.237 237.762,127.440 237.384,127.689 237.384 C 127.938 237.384,128.066 237.505,127.975 237.653 M103.859 243.726 C 103.975 243.914,103.728 244.001,103.308 243.920 C 102.718 243.807,102.633 243.879,102.933 244.239 C 103.219 244.584,103.181 244.704,102.785 244.704 C 102.237 244.704,102.060 244.054,102.490 243.624 C 102.841 243.274,103.615 243.331,103.859 243.726 M101.530 252.385 C 101.530 252.607,101.368 252.688,101.170 252.565 C 100.972 252.443,100.810 252.514,100.810 252.724 C 100.810 253.182,101.177 253.204,101.839 252.785 C 102.179 252.569,102.206 252.401,101.929 252.229 C 101.709 252.094,101.530 252.164,101.530 252.385 M118.692 259.826 C 118.692 260.090,118.503 260.306,118.272 260.306 C 118.041 260.306,117.852 260.090,117.852 259.826 C 117.852 259.562,118.041 259.346,118.272 259.346 C 118.503 259.346,118.692 259.562,118.692 259.826 M116.652 264.137 C 116.652 264.831,115.887 265.136,115.537 264.583 C 115.364 264.310,115.220 264.217,115.217 264.378 C 115.214 264.538,115.047 264.567,114.846 264.443 C 114.263 264.083,114.723 263.690,115.728 263.690 C 116.236 263.690,116.652 263.891,116.652 264.137 M93.969 264.986 C 93.969 265.185,94.115 265.306,94.293 265.257 C 94.472 265.207,94.635 265.322,94.658 265.513 C 94.680 265.703,94.291 265.881,93.793 265.907 C 92.944 265.952,92.593 265.403,93.129 264.866 C 93.488 264.508,93.969 264.577,93.969 264.986 M108.907 280.114 C 108.783 280.315,108.505 280.371,108.290 280.238 C 108.063 280.098,108.003 280.164,108.147 280.397 C 108.283 280.617,108.658 280.695,108.981 280.571 C 109.359 280.426,109.481 280.488,109.323 280.744 C 108.716 281.727,107.630 280.993,107.983 279.838 C 107.998 279.788,108.263 279.748,108.572 279.748 C 108.881 279.748,109.032 279.913,108.907 280.114 M107.291 285.400 C 107.291 286.065,106.258 286.420,105.763 285.925 C 105.470 285.632,105.582 285.567,106.179 285.682 C 106.814 285.805,106.909 285.736,106.608 285.374 C 106.322 285.029,106.360 284.908,106.756 284.908 C 107.050 284.908,107.291 285.130,107.291 285.400 M82.328 291.017 C 82.328 291.274,82.031 291.507,81.668 291.535 C 81.003 291.585,80.804 291.233,81.248 290.789 C 81.655 290.382,82.328 290.524,82.328 291.017 M99.709 301.195 C 99.450 301.507,99.479 301.690,99.805 301.806 C 100.061 301.897,100.140 302.111,99.980 302.281 C 99.821 302.450,99.540 302.351,99.356 302.060 C 98.862 301.279,98.938 300.750,99.544 300.750 C 99.928 300.750,99.974 300.876,99.709 301.195 M97.930 306.511 C 97.930 306.775,97.702 306.991,97.424 306.991 C 97.146 306.991,97.001 306.775,97.103 306.511 C 97.204 306.247,97.431 306.031,97.608 306.031 C 97.785 306.031,97.930 306.247,97.930 306.511 " stroke="none" fill="#d1d3d4" fill-rule="evenodd"></path><path id="path30" d="" stroke="none" fill="#00ffff" fill-rule="evenodd"></path><path id="path31" d="" stroke="none" fill="#99ffff" fill-rule="evenodd"></path></g></svg>